<?xml version="1.0" encoding="UTF-8" standalone="no"?>
<svg width="143.933mm" height="177.8mm"
 xmlns="http://www.w3.org/2000/svg" xmlns:xlink="http://www.w3.org/1999/xlink"  version="1.2" baseProfile="tiny">
<title>Qt SVG Document</title>
<desc>Generated with Qt</desc>
<defs>
</defs>
<g fill="none" stroke="black" stroke-width="1" fill-rule="evenodd" stroke-linecap="square" stroke-linejoin="bevel" >

<g fill="none" stroke="#000000" stroke-opacity="1" stroke-width="1" stroke-linecap="square" stroke-linejoin="bevel" transform="matrix(1,0,0,1,0,0)"
font-family="Ubuntu" font-size="11" font-weight="400" font-style="normal" 
>
</g>

<g fill="none" stroke="#000000" stroke-opacity="1" stroke-width="1" stroke-linecap="square" stroke-linejoin="bevel" transform="matrix(1,0,0,1,0,0)"
font-family="Ubuntu" font-size="11" font-weight="400" font-style="normal" 
>
</g>

<g fill="none" stroke="#000000" stroke-opacity="1" stroke-width="1" stroke-linecap="square" stroke-linejoin="bevel" transform="matrix(1.99815,0,0,1.99815,-0.00199815,503.533)"
font-family="Ubuntu" font-size="11" font-weight="400" font-style="normal" 
>
</g>

<g fill="#ffffff" fill-opacity="1" stroke="none" transform="matrix(1.99815,0,0,1.99815,-0.00199815,503.533)"
font-family="Ubuntu" font-size="11" font-weight="400" font-style="normal" 
>
<rect x="0.001" y="-252" width="204.189" height="252"/>
</g>

<g fill="none" stroke="#000000" stroke-opacity="1" stroke-width="1" stroke-linecap="square" stroke-linejoin="bevel" transform="matrix(1.99815,0,0,1.99815,-0.00199815,503.533)"
font-family="Ubuntu" font-size="11" font-weight="400" font-style="normal" 
>
</g>

<g fill="none" stroke="#000000" stroke-opacity="1" stroke-width="1" stroke-linecap="square" stroke-linejoin="bevel" transform="matrix(1.99815,0,0,1.99815,-0.00199815,503.533)"
font-family="Ubuntu" font-size="11" font-weight="400" font-style="normal" 
>
</g>

<g fill="none" stroke="#000000" stroke-opacity="1" stroke-width="1" stroke-linecap="square" stroke-linejoin="bevel" transform="matrix(1.99815,0,0,1.99815,-0.00199815,503.533)"
font-family="Ubuntu" font-size="11" font-weight="400" font-style="normal" 
>
</g>

<g fill="none" stroke="#000000" stroke-opacity="1" stroke-width="1" stroke-linecap="square" stroke-linejoin="bevel" transform="matrix(1.99815,0,0,1.99815,-0.00199815,503.533)"
font-family="Ubuntu" font-size="11" font-weight="400" font-style="normal" 
>
</g>

<g fill="none" stroke="#000000" stroke-opacity="1" stroke-width="1" stroke-linecap="square" stroke-linejoin="round" transform="matrix(1.99815,0,0,1.99815,-0.00199815,503.533)"
font-family="Ubuntu" font-size="11" font-weight="400" font-style="normal" 
>
<rect x="123.69" y="-116.5" width="80" height="35"/>
</g>

<g fill="none" stroke="#000000" stroke-opacity="1" stroke-width="1" stroke-linecap="square" stroke-linejoin="bevel" transform="matrix(1.99815,0,0,1.99815,-0.00199815,503.533)"
font-family="Ubuntu" font-size="11" font-weight="400" font-style="normal" 
>
</g>

<g fill="none" stroke="#000000" stroke-opacity="1" stroke-width="1" stroke-linecap="square" stroke-linejoin="bevel" transform="matrix(1.99815,0,0,1.99815,261.558,292.729)"
font-family="Ubuntu" font-size="11" font-weight="400" font-style="normal" 
>
</g>

<g fill="none" stroke="#000000" stroke-opacity="1" stroke-width="1" stroke-linecap="square" stroke-linejoin="bevel" transform="matrix(1.99815,0,0,1.99815,261.558,292.729)"
font-family="sans" font-size="11" font-weight="100" font-style="normal" 
>
</g>

<g fill="#000000" fill-opacity="1" stroke="#000000" stroke-opacity="1" stroke-width="1" stroke-linecap="square" stroke-linejoin="round" transform="matrix(1.99815,0,0,1.99815,261.558,292.729)"
font-family="sans" font-size="11" font-weight="100" font-style="normal" 
>
<path vector-effect="none" fill-rule="nonzero" d="M2.96875,1.98438 L3.53125,1.98438 L0.734375,11.0156 L0.171875,11.0156 L2.96875,1.98438 M8.95312,5.35938 L8.95312,1.64062 L9.42188,1.64062 L9.42188,10 L8.95312,10 L8.95312,8.64062 C8.72396,9.16146 8.47396,9.51562 8.20312,9.70312 C7.80729,10.0052 7.42708,10.1562 7.0625,10.1562 C6.35417,10.1562 5.76302,9.86719 5.28906,9.28906 C4.8151,8.71094 4.57812,7.94792 4.57812,7 C4.57812,6.05208 4.8151,5.28906 5.28906,4.71094 C5.76302,4.13281 6.35417,3.84375 7.0625,3.84375 C7.42708,3.84375 7.80729,3.98958 8.20312,4.28125 C8.47396,4.47917 8.72396,4.83854 8.95312,5.35938 M5.71875,4.90625 C5.30208,5.32292 5.09375,6.02083 5.09375,7 C5.09375,7.97917 5.30208,8.67708 5.71875,9.09375 C6.13542,9.51042 6.57292,9.71875 7.03125,9.71875 C7.47917,9.71875 7.91146,9.51042 8.32812,9.09375 C8.73438,8.67708 8.9375,7.97917 8.9375,7 C8.9375,6.02083 8.73438,5.32292 8.32812,4.90625 C7.91146,4.48958 7.47917,4.28125 7.03125,4.28125 C6.57292,4.28125 6.13542,4.48958 5.71875,4.90625 M11.9062,3.98438 L12.4062,3.98438 L12.4062,10 L11.9062,10 L11.9062,3.98438 M11.9062,1.64062 L12.4062,1.64062 L12.4062,2.3125 L11.9062,2.3125 L11.9062,1.64062 M17.375,6.60938 C16.5729,6.60938 15.9974,6.75 15.6484,7.03125 C15.2995,7.3125 15.125,7.72396 15.125,8.26562 C15.125,8.79688 15.2708,9.17448 15.5625,9.39844 C15.8542,9.6224 16.1979,9.73438 16.5938,9.73438 C17.3438,9.73438 17.8854,9.41667 18.2188,8.78125 C18.5521,8.13542 18.7188,7.53125 18.7188,6.96875 L18.7188,6.60938 L17.375,6.60938 M19.2188,6.5625 L19.2188,10 L18.7188,10 L18.7188,8.35938 C18.4479,9.16146 18.0833,9.67188 17.625,9.89062 C17.2708,10.0677 16.9115,10.1562 16.5469,10.1562 C15.9531,10.1562 15.4844,9.99479 15.1406,9.67188 C14.7969,9.34896 14.625,8.8776 14.625,8.25781 C14.625,7.63802 14.849,7.14062 15.2969,6.76562 C15.7448,6.39062 16.474,6.20312 17.4844,6.20312 L18.7188,6.20312 L18.7188,6.10938 C18.7188,5.57812 18.5625,5.14062 18.25,4.79688 C17.9583,4.45312 17.4635,4.28125 16.7656,4.28125 C16.4219,4.28125 16.0729,4.34375 15.7188,4.46875 C15.4896,4.55208 15.1875,4.71875 14.8125,4.96875 L14.8125,4.4375 C15.1354,4.23958 15.4375,4.09896 15.7188,4.01562 C16.1146,3.90104 16.4948,3.84375 16.8594,3.84375 C17.5781,3.84375 18.1667,4.05729 18.625,4.48438 C19.0208,4.84896 19.2188,5.54167 19.2188,6.5625 M25.7031,6.92188 C25.7031,6.08854 25.5339,5.44271 25.1953,4.98438 C24.8568,4.52604 24.3802,4.29688 23.7656,4.29688 C23.1615,4.29688 22.6901,4.52604 22.3516,4.98438 C22.013,5.44271 21.8438,6.08854 21.8438,6.92188 C21.8438,7.75521 22.013,8.40104 22.3516,8.85938 C22.6901,9.31771 23.1615,9.54688 23.7656,9.54688 C24.3802,9.54688 24.8568,9.31771 25.1953,8.85938 C25.5339,8.40104 25.7031,7.75521 25.7031,6.92188 M26.1875,9.25 C26.1875,10.5 25.9505,11.3177 25.4766,11.7031 C25.0026,12.0885 24.401,12.2812 23.6719,12.2812 C23.3177,12.2812 22.9896,12.2604 22.6875,12.2188 C22.375,12.1562 22.0729,12.0729 21.7812,11.9688 L21.7812,11.4062 C22.0729,11.5625 22.3594,11.6797 22.6406,11.7578 C22.9219,11.8359 23.2135,11.875 23.5156,11.875 C24.1094,11.875 24.6224,11.7474 25.0547,11.4922 C25.487,11.237 25.7031,10.5521 25.7031,9.4375 L25.7031,8.48438 C25.5469,8.90104 25.3438,9.22917 25.0938,9.46875 C24.6979,9.82292 24.2552,10 23.7656,10 C23.0052,10 22.4115,9.73177 21.9844,9.19531 C21.5573,8.65885 21.3438,7.90104 21.3438,6.92188 C21.3438,5.94271 21.5573,5.1849 21.9844,4.64844 C22.4115,4.11198 23.0052,3.84375 23.7656,3.84375 C24.2552,3.84375 24.6719,3.99479 25.0156,4.29688 C25.2865,4.53646 25.5156,4.85938 25.7031,5.26562 L25.7031,3.98438 L26.1875,3.98438 L26.1875,9.25 M32.8438,6.375 L32.8438,10 L32.3438,10 L32.3438,6.40625 C32.3438,5.625 32.2188,5.07552 31.9688,4.75781 C31.7188,4.4401 31.349,4.28125 30.8594,4.28125 C30.2865,4.28125 29.8021,4.45312 29.4062,4.79688 C28.9896,5.14062 28.7812,5.73958 28.7812,6.59375 L28.7812,10 L28.2969,10 L28.2969,3.98438 L28.7812,3.98438 L28.7812,5.10938 C28.9583,4.74479 29.1927,4.46875 29.4844,4.28125 C29.901,3.98958 30.3646,3.84375 30.875,3.84375 C31.4792,3.84375 31.9583,4.04688 32.3125,4.45312 C32.6667,4.84896 32.8438,5.48958 32.8438,6.375 M38.8438,5.01562 C38.4896,4.52604 38.0052,4.28125 37.3906,4.28125 C36.776,4.28125 36.2917,4.52604 35.9375,5.01562 C35.5833,5.49479 35.4062,6.15104 35.4062,6.98438 C35.4062,7.83854 35.5833,8.51042 35.9375,9 C36.2917,9.48958 36.776,9.73438 37.3906,9.73438 C38.0052,9.73438 38.4896,9.48958 38.8438,9 C39.1979,8.5 39.375,7.82812 39.375,6.98438 C39.375,6.16146 39.1979,5.50521 38.8438,5.01562 M37.3906,3.84375 C38.151,3.84375 38.7552,4.13021 39.2031,4.70312 C39.651,5.27604 39.875,6.03646 39.875,6.98438 C39.875,7.97396 39.651,8.75521 39.2031,9.32812 C38.7552,9.90104 38.151,10.1875 37.3906,10.1875 C36.6094,10.1875 35.9948,9.90104 35.5469,9.32812 C35.1094,8.75521 34.8906,7.97396 34.8906,6.98438 C34.8906,6.02604 35.1146,5.26302 35.5625,4.69531 C36.0104,4.1276 36.6198,3.84375 37.3906,3.84375 M45.3906,4.15625 L45.3906,4.70312 C45.0365,4.50521 44.8177,4.39583 44.7344,4.375 C44.4844,4.32292 44.1719,4.29167 43.7969,4.28125 C43.2344,4.28125 42.7917,4.39062 42.4688,4.60938 C42.2188,4.79688 42.0938,5.11458 42.0938,5.5625 C42.0938,5.875 42.2135,6.11458 42.4531,6.28125 C42.6927,6.46875 43.0417,6.61458 43.5,6.71875 L43.8438,6.78125 C44.4167,6.90625 44.849,7.08333 45.1406,7.3125 C45.4844,7.58333 45.6615,7.92708 45.6719,8.34375 C45.6719,8.90625 45.5052,9.34896 45.1719,9.67188 C44.8177,9.99479 44.2396,10.1562 43.4375,10.1562 C43,10.1562 42.6667,10.125 42.4375,10.0625 C42.1562,9.98958 41.8646,9.89583 41.5625,9.78125 L41.5625,9.15625 C42,9.40625 42.2812,9.55208 42.4062,9.59375 C42.7604,9.6875 43.1146,9.73438 43.4688,9.73438 C44.0417,9.73438 44.4688,9.61458 44.75,9.375 C45.0312,9.125 45.1719,8.80729 45.1719,8.42188 C45.1719,8.08854 45.0781,7.84896 44.8906,7.70312 C44.6198,7.48438 44.1927,7.30729 43.6094,7.17188 L43.2656,7.09375 C42.7552,6.96875 42.3698,6.80208 42.1094,6.59375 C41.776,6.32292 41.6094,5.99479 41.6094,5.60938 C41.6094,4.98438 41.8099,4.53385 42.2109,4.25781 C42.612,3.98177 43.1042,3.84375 43.6875,3.84375 C44.1875,3.84375 44.5312,3.86979 44.7188,3.92188 C44.9479,3.98438 45.1719,4.0625 45.3906,4.15625 M48.2188,2.28125 L48.2188,3.98438 L50.25,3.98438 L50.25,4.40625 L48.2188,4.40625 L48.2188,8.01562 C48.2188,8.47396 48.276,8.79688 48.3906,8.98438 C48.6406,9.38021 49,9.57812 49.4688,9.57812 L50.25,9.57812 L50.25,10 L49.4844,10 C48.9948,10 48.5781,9.85677 48.2344,9.57031 C47.8906,9.28385 47.7188,8.76562 47.7188,8.01562 L47.7188,4.40625 L47,4.40625 L47,3.98438 L47.7188,3.98438 L47.7188,2.28125 L48.2188,2.28125 M52,3.98438 L52.5,3.98438 L52.5,10 L52,10 L52,3.98438 M52,1.64062 L52.5,1.64062 L52.5,2.3125 L52,2.3125 L52,1.64062 M59.1719,4.28125 L59.1719,4.79688 C58.8802,4.61979 58.6354,4.5 58.4375,4.4375 C58.1042,4.33333 57.7865,4.28125 57.4844,4.28125 C56.6198,4.28125 56,4.5026 55.625,4.94531 C55.25,5.38802 55.0625,6.07292 55.0625,7 C55.0625,7.9375 55.25,8.6276 55.625,9.07031 C56,9.51302 56.6198,9.73438 57.4844,9.73438 C57.776,9.73438 58.0573,9.69271 58.3281,9.60938 C58.6198,9.53646 58.901,9.42188 59.1719,9.26562 L59.1719,9.76562 C58.901,9.90104 58.6198,10 58.3281,10.0625 C58.026,10.125 57.7292,10.1562 57.4375,10.1562 C56.5625,10.1562 55.8646,9.91667 55.3438,9.4375 C54.8229,8.95833 54.5625,8.14323 54.5625,6.99219 C54.5625,5.84115 54.8229,5.02604 55.3438,4.54688 C55.8646,4.07812 56.5625,3.84375 57.4375,3.84375 C57.7292,3.84375 58.0365,3.88542 58.3594,3.96875 C58.6823,4.04167 58.9531,4.14583 59.1719,4.28125 M64.5156,4.15625 L64.5156,4.70312 C64.1615,4.50521 63.9427,4.39583 63.8594,4.375 C63.6094,4.32292 63.2969,4.29167 62.9219,4.28125 C62.3594,4.28125 61.9167,4.39062 61.5938,4.60938 C61.3438,4.79688 61.2188,5.11458 61.2188,5.5625 C61.2188,5.875 61.3385,6.11458 61.5781,6.28125 C61.8177,6.46875 62.1667,6.61458 62.625,6.71875 L62.9688,6.78125 C63.5417,6.90625 63.974,7.08333 64.2656,7.3125 C64.6094,7.58333 64.7865,7.92708 64.7969,8.34375 C64.7969,8.90625 64.6302,9.34896 64.2969,9.67188 C63.9427,9.99479 63.3646,10.1562 62.5625,10.1562 C62.125,10.1562 61.7917,10.125 61.5625,10.0625 C61.2812,9.98958 60.9896,9.89583 60.6875,9.78125 L60.6875,9.15625 C61.125,9.40625 61.4062,9.55208 61.5312,9.59375 C61.8854,9.6875 62.2396,9.73438 62.5938,9.73438 C63.1667,9.73438 63.5938,9.61458 63.875,9.375 C64.1562,9.125 64.2969,8.80729 64.2969,8.42188 C64.2969,8.08854 64.2031,7.84896 64.0156,7.70312 C63.7448,7.48438 63.3177,7.30729 62.7344,7.17188 L62.3906,7.09375 C61.8802,6.96875 61.4948,6.80208 61.2344,6.59375 C60.901,6.32292 60.7344,5.99479 60.7344,5.60938 C60.7344,4.98438 60.9349,4.53385 61.3359,4.25781 C61.737,3.98177 62.2292,3.84375 62.8125,3.84375 C63.3125,3.84375 63.6562,3.86979 63.8438,3.92188 C64.0729,3.98438 64.2969,4.0625 64.5156,4.15625 "/>
</g>

<g fill="none" stroke="#000000" stroke-opacity="1" stroke-width="1" stroke-linecap="square" stroke-linejoin="bevel" transform="matrix(1.99815,0,0,1.99815,261.558,292.729)"
font-family="sans" font-size="11" font-weight="100" font-style="normal" 
>
</g>

<g fill="none" stroke="#000000" stroke-opacity="1" stroke-width="1" stroke-linecap="square" stroke-linejoin="bevel" transform="matrix(1.99815,0,0,1.99815,261.558,292.729)"
font-family="Ubuntu" font-size="11" font-weight="400" font-style="normal" 
>
</g>

<g fill="none" stroke="#000000" stroke-opacity="1" stroke-width="1" stroke-linecap="square" stroke-linejoin="bevel" transform="matrix(1.99815,0,0,1.99815,-0.00199815,503.533)"
font-family="Ubuntu" font-size="11" font-weight="400" font-style="normal" 
>
</g>

<g fill="none" stroke="#000000" stroke-opacity="1" stroke-width="1" stroke-linecap="square" stroke-linejoin="bevel" transform="matrix(1.99815,0,0,1.99815,-0.00199815,503.533)"
font-family="Ubuntu" font-size="11" font-weight="400" font-style="normal" 
>
</g>

<g fill="none" stroke="#000000" stroke-opacity="1" stroke-width="1" stroke-linecap="square" stroke-linejoin="bevel" transform="matrix(1.99815,0,0,1.99815,-0.00199815,503.533)"
font-family="Ubuntu" font-size="11" font-weight="400" font-style="normal" 
>
</g>

<g fill="none" stroke="#000000" stroke-opacity="1" stroke-width="1" stroke-linecap="square" stroke-linejoin="round" transform="matrix(1.99815,0,0,1.99815,-0.00199815,503.533)"
font-family="Ubuntu" font-size="11" font-weight="400" font-style="normal" 
>
<ellipse cx="54.595" cy="-234" rx="37.8472" ry="17.5"/>
</g>

<g fill="none" stroke="#000000" stroke-opacity="1" stroke-width="1" stroke-linecap="square" stroke-linejoin="bevel" transform="matrix(1.99815,0,0,1.99815,-0.00199815,503.533)"
font-family="Ubuntu" font-size="11" font-weight="400" font-style="normal" 
>
</g>

<g fill="none" stroke="#000000" stroke-opacity="1" stroke-width="1" stroke-linecap="square" stroke-linejoin="bevel" transform="matrix(1.99815,0,0,1.99815,69.9825,22.9787)"
font-family="Ubuntu" font-size="11" font-weight="400" font-style="normal" 
>
</g>

<g fill="none" stroke="#000000" stroke-opacity="1" stroke-width="1" stroke-linecap="square" stroke-linejoin="bevel" transform="matrix(1.99815,0,0,1.99815,69.9825,22.9787)"
font-family="sans" font-size="11" font-weight="100" font-style="normal" 
>
</g>

<g fill="#000000" fill-opacity="1" stroke="#000000" stroke-opacity="1" stroke-width="1" stroke-linecap="square" stroke-linejoin="round" transform="matrix(1.99815,0,0,1.99815,69.9825,22.9787)"
font-family="sans" font-size="11" font-weight="100" font-style="normal" 
>
<path vector-effect="none" fill-rule="nonzero" d="M2.96875,1.98438 L3.53125,1.98438 L0.734375,11.0156 L0.171875,11.0156 L2.96875,1.98438 M7.53125,1.64062 L7.53125,2.0625 L6.84375,2.0625 C6.47917,2.0625 6.19792,2.15625 6,2.34375 C5.76042,2.57292 5.64062,2.94271 5.64062,3.45312 L5.64062,3.98438 L7.26562,3.98438 L7.26562,4.40625 L5.64062,4.40625 L5.64062,10 L5.14062,10 L5.14062,4.40625 L4.20312,4.40625 L4.20312,3.98438 L5.14062,3.98438 L5.14062,3.5625 C5.14062,2.89583 5.29688,2.41146 5.60938,2.10938 C5.91146,1.79688 6.32292,1.64062 6.84375,1.64062 L7.53125,1.64062 M13.3594,6.375 L13.3594,10 L12.8594,10 L12.8594,6.40625 C12.8594,5.625 12.7292,5.07552 12.4688,4.75781 C12.2083,4.4401 11.8125,4.28125 11.2812,4.28125 C10.6667,4.28125 10.1823,4.45833 9.82812,4.8125 C9.47396,5.16667 9.29688,5.76042 9.29688,6.59375 L9.29688,10 L8.8125,10 L8.8125,1.64062 L9.29688,1.64062 L9.29688,5.09375 C9.41146,4.79167 9.61979,4.52083 9.92188,4.28125 C10.2656,3.98958 10.7552,3.84375 11.3906,3.84375 C11.9948,3.84375 12.474,4.05729 12.8281,4.48438 C13.1823,4.91146 13.3594,5.54167 13.3594,6.375 M19.5,9.09375 C19.9167,8.67708 20.125,7.97917 20.125,7 C20.125,6.02083 19.9167,5.32292 19.5,4.90625 C19.0833,4.48958 18.6458,4.28125 18.1875,4.28125 C17.7396,4.28125 17.3073,4.48958 16.8906,4.90625 C16.4844,5.32292 16.2812,6.02083 16.2812,7 C16.2812,7.97917 16.4844,8.67708 16.8906,9.09375 C17.3073,9.51042 17.7396,9.71875 18.1875,9.71875 C18.6458,9.71875 19.0833,9.51042 19.5,9.09375 M16.2656,5.35938 C16.4948,4.83854 16.7396,4.47917 17,4.28125 C17.4062,3.98958 17.7917,3.84375 18.1562,3.84375 C18.8646,3.84375 19.4557,4.13281 19.9297,4.71094 C20.4036,5.28906 20.6406,6.05208 20.6406,7 C20.6406,7.94792 20.4036,8.71094 19.9297,9.28906 C19.4557,9.86719 18.8646,10.1562 18.1562,10.1562 C17.7917,10.1562 17.4062,10.0052 17,9.70312 C16.7396,9.51562 16.4948,9.16146 16.2656,8.64062 L16.2656,10 L15.7812,10 L15.7812,1.64062 L16.2656,1.64062 L16.2656,5.35938 M27.1094,12.1719 L27.1094,12.5938 L21.3906,12.5938 L21.3906,12.1719 L27.1094,12.1719 M32.3594,4.28125 L32.3594,4.79688 C32.0677,4.61979 31.8229,4.5 31.625,4.4375 C31.2917,4.33333 30.974,4.28125 30.6719,4.28125 C29.8073,4.28125 29.1875,4.5026 28.8125,4.94531 C28.4375,5.38802 28.25,6.07292 28.25,7 C28.25,7.9375 28.4375,8.6276 28.8125,9.07031 C29.1875,9.51302 29.8073,9.73438 30.6719,9.73438 C30.9635,9.73438 31.2448,9.69271 31.5156,9.60938 C31.8073,9.53646 32.0885,9.42188 32.3594,9.26562 L32.3594,9.76562 C32.0885,9.90104 31.8073,10 31.5156,10.0625 C31.2135,10.125 30.9167,10.1562 30.625,10.1562 C29.75,10.1562 29.0521,9.91667 28.5312,9.4375 C28.0104,8.95833 27.75,8.14323 27.75,6.99219 C27.75,5.84115 28.0104,5.02604 28.5312,4.54688 C29.0521,4.07812 29.75,3.84375 30.625,3.84375 C30.9167,3.84375 31.224,3.88542 31.5469,3.96875 C31.8698,4.04167 32.1406,4.14583 32.3594,4.28125 M34.2969,1.64062 L34.7812,1.64062 L34.7812,10 L34.2969,10 L34.2969,1.64062 M37.3281,3.98438 L37.8281,3.98438 L37.8281,10 L37.3281,10 L37.3281,3.98438 M37.3281,1.64062 L37.8281,1.64062 L37.8281,2.3125 L37.3281,2.3125 L37.3281,1.64062"/>
</g>

<g fill="none" stroke="#000000" stroke-opacity="1" stroke-width="1" stroke-linecap="square" stroke-linejoin="bevel" transform="matrix(1.99815,0,0,1.99815,69.9825,22.9787)"
font-family="sans" font-size="11" font-weight="100" font-style="normal" 
>
</g>

<g fill="none" stroke="#000000" stroke-opacity="1" stroke-width="1" stroke-linecap="square" stroke-linejoin="bevel" transform="matrix(1.99815,0,0,1.99815,69.9825,22.9787)"
font-family="Ubuntu" font-size="11" font-weight="400" font-style="normal" 
>
</g>

<g fill="none" stroke="#000000" stroke-opacity="1" stroke-width="1" stroke-linecap="square" stroke-linejoin="bevel" transform="matrix(1.99815,0,0,1.99815,-0.00199815,503.533)"
font-family="Ubuntu" font-size="11" font-weight="400" font-style="normal" 
>
</g>

<g fill="none" stroke="#000000" stroke-opacity="1" stroke-width="1" stroke-linecap="square" stroke-linejoin="bevel" transform="matrix(1.99815,0,0,1.99815,-0.00199815,503.533)"
font-family="Ubuntu" font-size="11" font-weight="400" font-style="normal" 
>
</g>

<g fill="none" stroke="#000000" stroke-opacity="1" stroke-width="1" stroke-linecap="square" stroke-linejoin="bevel" transform="matrix(1.99815,0,0,1.99815,-0.00199815,503.533)"
font-family="Ubuntu" font-size="11" font-weight="400" font-style="normal" 
>
</g>

<g fill="none" stroke="#000000" stroke-opacity="1" stroke-width="1" stroke-linecap="square" stroke-linejoin="round" transform="matrix(1.99815,0,0,1.99815,-0.00199815,503.533)"
font-family="Ubuntu" font-size="11" font-weight="400" font-style="normal" 
>
<ellipse cx="54.595" cy="-126" rx="39.7948" ry="17.5"/>
</g>

<g fill="none" stroke="#000000" stroke-opacity="1" stroke-width="1" stroke-linecap="square" stroke-linejoin="bevel" transform="matrix(1.99815,0,0,1.99815,-0.00199815,503.533)"
font-family="Ubuntu" font-size="11" font-weight="400" font-style="normal" 
>
</g>

<g fill="none" stroke="#000000" stroke-opacity="1" stroke-width="1" stroke-linecap="square" stroke-linejoin="bevel" transform="matrix(1.99815,0,0,1.99815,64.8311,238.779)"
font-family="Ubuntu" font-size="11" font-weight="400" font-style="normal" 
>
</g>

<g fill="none" stroke="#000000" stroke-opacity="1" stroke-width="1" stroke-linecap="square" stroke-linejoin="bevel" transform="matrix(1.99815,0,0,1.99815,64.8311,238.779)"
font-family="sans" font-size="11" font-weight="100" font-style="normal" 
>
</g>

<g fill="#000000" fill-opacity="1" stroke="#000000" stroke-opacity="1" stroke-width="1" stroke-linecap="square" stroke-linejoin="round" transform="matrix(1.99815,0,0,1.99815,64.8311,238.779)"
font-family="sans" font-size="11" font-weight="100" font-style="normal" 
>
<path vector-effect="none" fill-rule="nonzero" d="M2.96875,1.98438 L3.53125,1.98438 L0.734375,11.0156 L0.171875,11.0156 L2.96875,1.98438 M7.53125,1.64062 L7.53125,2.0625 L6.84375,2.0625 C6.47917,2.0625 6.19792,2.15625 6,2.34375 C5.76042,2.57292 5.64062,2.94271 5.64062,3.45312 L5.64062,3.98438 L7.26562,3.98438 L7.26562,4.40625 L5.64062,4.40625 L5.64062,10 L5.14062,10 L5.14062,4.40625 L4.20312,4.40625 L4.20312,3.98438 L5.14062,3.98438 L5.14062,3.5625 C5.14062,2.89583 5.29688,2.41146 5.60938,2.10938 C5.91146,1.79688 6.32292,1.64062 6.84375,1.64062 L7.53125,1.64062 M13.3594,6.375 L13.3594,10 L12.8594,10 L12.8594,6.40625 C12.8594,5.625 12.7292,5.07552 12.4688,4.75781 C12.2083,4.4401 11.8125,4.28125 11.2812,4.28125 C10.6667,4.28125 10.1823,4.45833 9.82812,4.8125 C9.47396,5.16667 9.29688,5.76042 9.29688,6.59375 L9.29688,10 L8.8125,10 L8.8125,1.64062 L9.29688,1.64062 L9.29688,5.09375 C9.41146,4.79167 9.61979,4.52083 9.92188,4.28125 C10.2656,3.98958 10.7552,3.84375 11.3906,3.84375 C11.9948,3.84375 12.474,4.05729 12.8281,4.48438 C13.1823,4.91146 13.3594,5.54167 13.3594,6.375 M19.5,9.09375 C19.9167,8.67708 20.125,7.97917 20.125,7 C20.125,6.02083 19.9167,5.32292 19.5,4.90625 C19.0833,4.48958 18.6458,4.28125 18.1875,4.28125 C17.7396,4.28125 17.3073,4.48958 16.8906,4.90625 C16.4844,5.32292 16.2812,6.02083 16.2812,7 C16.2812,7.97917 16.4844,8.67708 16.8906,9.09375 C17.3073,9.51042 17.7396,9.71875 18.1875,9.71875 C18.6458,9.71875 19.0833,9.51042 19.5,9.09375 M16.2656,5.35938 C16.4948,4.83854 16.7396,4.47917 17,4.28125 C17.4062,3.98958 17.7917,3.84375 18.1562,3.84375 C18.8646,3.84375 19.4557,4.13281 19.9297,4.71094 C20.4036,5.28906 20.6406,6.05208 20.6406,7 C20.6406,7.94792 20.4036,8.71094 19.9297,9.28906 C19.4557,9.86719 18.8646,10.1562 18.1562,10.1562 C17.7917,10.1562 17.4062,10.0052 17,9.70312 C16.7396,9.51562 16.4948,9.16146 16.2656,8.64062 L16.2656,10 L15.7812,10 L15.7812,1.64062 L16.2656,1.64062 L16.2656,5.35938 M27.1094,12.1719 L27.1094,12.5938 L21.3906,12.5938 L21.3906,12.1719 L27.1094,12.1719 M32.3594,4.28125 L32.3594,4.79688 C32.0677,4.61979 31.8229,4.5 31.625,4.4375 C31.2917,4.33333 30.974,4.28125 30.6719,4.28125 C29.8073,4.28125 29.1875,4.5026 28.8125,4.94531 C28.4375,5.38802 28.25,6.07292 28.25,7 C28.25,7.9375 28.4375,8.6276 28.8125,9.07031 C29.1875,9.51302 29.8073,9.73438 30.6719,9.73438 C30.9635,9.73438 31.2448,9.69271 31.5156,9.60938 C31.8073,9.53646 32.0885,9.42188 32.3594,9.26562 L32.3594,9.76562 C32.0885,9.90104 31.8073,10 31.5156,10.0625 C31.2135,10.125 30.9167,10.1562 30.625,10.1562 C29.75,10.1562 29.0521,9.91667 28.5312,9.4375 C28.0104,8.95833 27.75,8.14323 27.75,6.99219 C27.75,5.84115 28.0104,5.02604 28.5312,4.54688 C29.0521,4.07812 29.75,3.84375 30.625,3.84375 C30.9167,3.84375 31.224,3.88542 31.5469,3.96875 C31.8698,4.04167 32.1406,4.14583 32.3594,4.28125 M36.7031,6.60938 C35.901,6.60938 35.3255,6.75 34.9766,7.03125 C34.6276,7.3125 34.4531,7.72396 34.4531,8.26562 C34.4531,8.79688 34.599,9.17448 34.8906,9.39844 C35.1823,9.6224 35.526,9.73438 35.9219,9.73438 C36.6719,9.73438 37.2135,9.41667 37.5469,8.78125 C37.8802,8.13542 38.0469,7.53125 38.0469,6.96875 L38.0469,6.60938 L36.7031,6.60938 M38.5469,6.5625 L38.5469,10 L38.0469,10 L38.0469,8.35938 C37.776,9.16146 37.4115,9.67188 36.9531,9.89062 C36.599,10.0677 36.2396,10.1562 35.875,10.1562 C35.2812,10.1562 34.8125,9.99479 34.4688,9.67188 C34.125,9.34896 33.9531,8.8776 33.9531,8.25781 C33.9531,7.63802 34.1771,7.14062 34.625,6.76562 C35.0729,6.39062 35.8021,6.20312 36.8125,6.20312 L38.0469,6.20312 L38.0469,6.10938 C38.0469,5.57812 37.8906,5.14062 37.5781,4.79688 C37.2865,4.45312 36.7917,4.28125 36.0938,4.28125 C35.75,4.28125 35.401,4.34375 35.0469,4.46875 C34.8177,4.55208 34.5156,4.71875 34.1406,4.96875 L34.1406,4.4375 C34.4635,4.23958 34.7656,4.09896 35.0469,4.01562 C35.4427,3.90104 35.8229,3.84375 36.1875,3.84375 C36.9062,3.84375 37.4948,4.05729 37.9531,4.48438 C38.349,4.84896 38.5469,5.54167 38.5469,6.5625 M44.2969,4.40625 C44.2135,4.36458 44.1042,4.33333 43.9688,4.3125 C43.8438,4.29167 43.6927,4.28125 43.5156,4.28125 C42.901,4.28125 42.3958,4.50521 42,4.95312 C41.6771,5.31771 41.5156,5.94271 41.5156,6.82812 L41.5156,10 L41.0312,10 L41.0312,3.98438 L41.5156,3.98438 L41.5156,5.10938 C41.6823,4.78646 41.9115,4.51562 42.2031,4.29688 C42.599,3.99479 43.0677,3.84375 43.6094,3.84375 C43.7552,3.84375 43.8802,3.84896 43.9844,3.85938 C44.0885,3.85938 44.1927,3.86979 44.2969,3.89062 L44.2969,4.40625"/>
</g>

<g fill="none" stroke="#000000" stroke-opacity="1" stroke-width="1" stroke-linecap="square" stroke-linejoin="bevel" transform="matrix(1.99815,0,0,1.99815,64.8311,238.779)"
font-family="sans" font-size="11" font-weight="100" font-style="normal" 
>
</g>

<g fill="none" stroke="#000000" stroke-opacity="1" stroke-width="1" stroke-linecap="square" stroke-linejoin="bevel" transform="matrix(1.99815,0,0,1.99815,64.8311,238.779)"
font-family="Ubuntu" font-size="11" font-weight="400" font-style="normal" 
>
</g>

<g fill="none" stroke="#000000" stroke-opacity="1" stroke-width="1" stroke-linecap="square" stroke-linejoin="bevel" transform="matrix(1.99815,0,0,1.99815,-0.00199815,503.533)"
font-family="Ubuntu" font-size="11" font-weight="400" font-style="normal" 
>
</g>

<g fill="none" stroke="#000000" stroke-opacity="1" stroke-width="1" stroke-linecap="square" stroke-linejoin="bevel" transform="matrix(1.99815,0,0,1.99815,-0.00199815,503.533)"
font-family="Ubuntu" font-size="11" font-weight="400" font-style="normal" 
>
</g>

<g fill="none" stroke="#000000" stroke-opacity="1" stroke-width="1" stroke-linecap="square" stroke-linejoin="bevel" transform="matrix(1.99815,0,0,1.99815,-0.00199815,503.533)"
font-family="Ubuntu" font-size="11" font-weight="400" font-style="normal" 
>
</g>

<g fill="none" stroke="#000000" stroke-opacity="1" stroke-width="1" stroke-linecap="square" stroke-linejoin="round" transform="matrix(1.99815,0,0,1.99815,-0.00199815,503.533)"
font-family="Ubuntu" font-size="11" font-weight="400" font-style="normal" 
>
<ellipse cx="54.595" cy="-180" rx="43.0456" ry="17.5"/>
</g>

<g fill="none" stroke="#000000" stroke-opacity="1" stroke-width="1" stroke-linecap="square" stroke-linejoin="bevel" transform="matrix(1.99815,0,0,1.99815,-0.00199815,503.533)"
font-family="Ubuntu" font-size="11" font-weight="400" font-style="normal" 
>
</g>

<g fill="none" stroke="#000000" stroke-opacity="1" stroke-width="1" stroke-linecap="square" stroke-linejoin="bevel" transform="matrix(1.99815,0,0,1.99815,60.1791,130.879)"
font-family="Ubuntu" font-size="11" font-weight="400" font-style="normal" 
>
</g>

<g fill="none" stroke="#000000" stroke-opacity="1" stroke-width="1" stroke-linecap="square" stroke-linejoin="bevel" transform="matrix(1.99815,0,0,1.99815,60.1791,130.879)"
font-family="sans" font-size="11" font-weight="100" font-style="normal" 
>
</g>

<g fill="#000000" fill-opacity="1" stroke="#000000" stroke-opacity="1" stroke-width="1" stroke-linecap="square" stroke-linejoin="round" transform="matrix(1.99815,0,0,1.99815,60.1791,130.879)"
font-family="sans" font-size="11" font-weight="100" font-style="normal" 
>
<path vector-effect="none" fill-rule="nonzero" d="M2.96875,1.98438 L3.53125,1.98438 L0.734375,11.0156 L0.171875,11.0156 L2.96875,1.98438 M7.53125,1.64062 L7.53125,2.0625 L6.84375,2.0625 C6.47917,2.0625 6.19792,2.15625 6,2.34375 C5.76042,2.57292 5.64062,2.94271 5.64062,3.45312 L5.64062,3.98438 L7.26562,3.98438 L7.26562,4.40625 L5.64062,4.40625 L5.64062,10 L5.14062,10 L5.14062,4.40625 L4.20312,4.40625 L4.20312,3.98438 L5.14062,3.98438 L5.14062,3.5625 C5.14062,2.89583 5.29688,2.41146 5.60938,2.10938 C5.91146,1.79688 6.32292,1.64062 6.84375,1.64062 L7.53125,1.64062 M13.3594,6.375 L13.3594,10 L12.8594,10 L12.8594,6.40625 C12.8594,5.625 12.7292,5.07552 12.4688,4.75781 C12.2083,4.4401 11.8125,4.28125 11.2812,4.28125 C10.6667,4.28125 10.1823,4.45833 9.82812,4.8125 C9.47396,5.16667 9.29688,5.76042 9.29688,6.59375 L9.29688,10 L8.8125,10 L8.8125,1.64062 L9.29688,1.64062 L9.29688,5.09375 C9.41146,4.79167 9.61979,4.52083 9.92188,4.28125 C10.2656,3.98958 10.7552,3.84375 11.3906,3.84375 C11.9948,3.84375 12.474,4.05729 12.8281,4.48438 C13.1823,4.91146 13.3594,5.54167 13.3594,6.375 M19.5,9.09375 C19.9167,8.67708 20.125,7.97917 20.125,7 C20.125,6.02083 19.9167,5.32292 19.5,4.90625 C19.0833,4.48958 18.6458,4.28125 18.1875,4.28125 C17.7396,4.28125 17.3073,4.48958 16.8906,4.90625 C16.4844,5.32292 16.2812,6.02083 16.2812,7 C16.2812,7.97917 16.4844,8.67708 16.8906,9.09375 C17.3073,9.51042 17.7396,9.71875 18.1875,9.71875 C18.6458,9.71875 19.0833,9.51042 19.5,9.09375 M16.2656,5.35938 C16.4948,4.83854 16.7396,4.47917 17,4.28125 C17.4062,3.98958 17.7917,3.84375 18.1562,3.84375 C18.8646,3.84375 19.4557,4.13281 19.9297,4.71094 C20.4036,5.28906 20.6406,6.05208 20.6406,7 C20.6406,7.94792 20.4036,8.71094 19.9297,9.28906 C19.4557,9.86719 18.8646,10.1562 18.1562,10.1562 C17.7917,10.1562 17.4062,10.0052 17,9.70312 C16.7396,9.51562 16.4948,9.16146 16.2656,8.64062 L16.2656,10 L15.7812,10 L15.7812,1.64062 L16.2656,1.64062 L16.2656,5.35938 M27.1094,12.1719 L27.1094,12.5938 L21.3906,12.5938 L21.3906,12.1719 L27.1094,12.1719 M30.6562,6.60938 C29.8542,6.60938 29.2786,6.75 28.9297,7.03125 C28.5807,7.3125 28.4062,7.72396 28.4062,8.26562 C28.4062,8.79688 28.5521,9.17448 28.8438,9.39844 C29.1354,9.6224 29.4792,9.73438 29.875,9.73438 C30.625,9.73438 31.1667,9.41667 31.5,8.78125 C31.8333,8.13542 32,7.53125 32,6.96875 L32,6.60938 L30.6562,6.60938 M32.5,6.5625 L32.5,10 L32,10 L32,8.35938 C31.7292,9.16146 31.3646,9.67188 30.9062,9.89062 C30.5521,10.0677 30.1927,10.1562 29.8281,10.1562 C29.2344,10.1562 28.7656,9.99479 28.4219,9.67188 C28.0781,9.34896 27.9062,8.8776 27.9062,8.25781 C27.9062,7.63802 28.1302,7.14062 28.5781,6.76562 C29.026,6.39062 29.7552,6.20312 30.7656,6.20312 L32,6.20312 L32,6.10938 C32,5.57812 31.8438,5.14062 31.5312,4.79688 C31.2396,4.45312 30.7448,4.28125 30.0469,4.28125 C29.7031,4.28125 29.3542,4.34375 29,4.46875 C28.7708,4.55208 28.4688,4.71875 28.0938,4.96875 L28.0938,4.4375 C28.4167,4.23958 28.7188,4.09896 29,4.01562 C29.3958,3.90104 29.776,3.84375 30.1406,3.84375 C30.8594,3.84375 31.4479,4.05729 31.9062,4.48438 C32.3021,4.84896 32.5,5.54167 32.5,6.5625 M38.25,4.40625 C38.1667,4.36458 38.0573,4.33333 37.9219,4.3125 C37.7969,4.29167 37.6458,4.28125 37.4688,4.28125 C36.8542,4.28125 36.349,4.50521 35.9531,4.95312 C35.6302,5.31771 35.4688,5.94271 35.4688,6.82812 L35.4688,10 L34.9844,10 L34.9844,3.98438 L35.4688,3.98438 L35.4688,5.10938 C35.6354,4.78646 35.8646,4.51562 36.1562,4.29688 C36.5521,3.99479 37.0208,3.84375 37.5625,3.84375 C37.7083,3.84375 37.8333,3.84896 37.9375,3.85938 C38.0417,3.85938 38.1458,3.86979 38.25,3.89062 L38.25,4.40625 M43.8281,5.29688 C44.0156,4.80729 44.3073,4.44271 44.7031,4.20312 C45.0885,3.96354 45.5417,3.84375 46.0625,3.84375 C46.5833,3.84375 47,4.02604 47.3125,4.39062 C47.6354,4.75521 47.7969,5.41667 47.7969,6.375 L47.7969,10 L47.3125,10 L47.3125,6.40625 C47.3125,5.57292 47.1979,5.01042 46.9688,4.71875 C46.7396,4.42708 46.4323,4.28125 46.0469,4.28125 C45.4948,4.28125 45.0104,4.44792 44.5938,4.78125 C44.125,5.15625 43.8906,5.76042 43.8906,6.59375 L43.8906,10 L43.4062,10 L43.4062,6.40625 C43.4062,5.60417 43.2943,5.04948 43.0703,4.74219 C42.8464,4.4349 42.5365,4.28125 42.1406,4.28125 C41.5885,4.28125 41.1042,4.45312 40.6875,4.79688 C40.2188,5.16146 39.9844,5.76042 39.9844,6.59375 L39.9844,10 L39.5,10 L39.5,3.98438 L39.9844,3.98438 L39.9844,5.10938 C40.1615,4.71354 40.4375,4.40104 40.8125,4.17188 C41.1771,3.95312 41.6302,3.84375 42.1719,3.84375 C42.526,3.84375 42.8646,3.95833 43.1875,4.1875 C43.4375,4.375 43.651,4.74479 43.8281,5.29688 "/>
</g>

<g fill="none" stroke="#000000" stroke-opacity="1" stroke-width="1" stroke-linecap="square" stroke-linejoin="bevel" transform="matrix(1.99815,0,0,1.99815,60.1791,130.879)"
font-family="sans" font-size="11" font-weight="100" font-style="normal" 
>
</g>

<g fill="none" stroke="#000000" stroke-opacity="1" stroke-width="1" stroke-linecap="square" stroke-linejoin="bevel" transform="matrix(1.99815,0,0,1.99815,60.1791,130.879)"
font-family="Ubuntu" font-size="11" font-weight="400" font-style="normal" 
>
</g>

<g fill="none" stroke="#000000" stroke-opacity="1" stroke-width="1" stroke-linecap="square" stroke-linejoin="bevel" transform="matrix(1.99815,0,0,1.99815,-0.00199815,503.533)"
font-family="Ubuntu" font-size="11" font-weight="400" font-style="normal" 
>
</g>

<g fill="none" stroke="#000000" stroke-opacity="1" stroke-width="1" stroke-linecap="square" stroke-linejoin="bevel" transform="matrix(1.99815,0,0,1.99815,-0.00199815,503.533)"
font-family="Ubuntu" font-size="11" font-weight="400" font-style="normal" 
>
</g>

<g fill="none" stroke="#000000" stroke-opacity="1" stroke-width="1" stroke-linecap="square" stroke-linejoin="bevel" transform="matrix(1.99815,0,0,1.99815,-0.00199815,503.533)"
font-family="Ubuntu" font-size="11" font-weight="400" font-style="normal" 
>
</g>

<g fill="none" stroke="#000000" stroke-opacity="1" stroke-width="1" stroke-linecap="square" stroke-linejoin="round" transform="matrix(1.99815,0,0,1.99815,-0.00199815,503.533)"
font-family="Ubuntu" font-size="11" font-weight="400" font-style="normal" 
>
<ellipse cx="54.595" cy="-72" rx="50.1952" ry="17.5"/>
</g>

<g fill="none" stroke="#000000" stroke-opacity="1" stroke-width="1" stroke-linecap="square" stroke-linejoin="bevel" transform="matrix(1.99815,0,0,1.99815,-0.00199815,503.533)"
font-family="Ubuntu" font-size="11" font-weight="400" font-style="normal" 
>
</g>

<g fill="none" stroke="#000000" stroke-opacity="1" stroke-width="1" stroke-linecap="square" stroke-linejoin="bevel" transform="matrix(1.99815,0,0,1.99815,50.1415,346.679)"
font-family="Ubuntu" font-size="11" font-weight="400" font-style="normal" 
>
</g>

<g fill="none" stroke="#000000" stroke-opacity="1" stroke-width="1" stroke-linecap="square" stroke-linejoin="bevel" transform="matrix(1.99815,0,0,1.99815,50.1415,346.679)"
font-family="sans" font-size="11" font-weight="100" font-style="normal" 
>
</g>

<g fill="#000000" fill-opacity="1" stroke="#000000" stroke-opacity="1" stroke-width="1" stroke-linecap="square" stroke-linejoin="round" transform="matrix(1.99815,0,0,1.99815,50.1415,346.679)"
font-family="sans" font-size="11" font-weight="100" font-style="normal" 
>
<path vector-effect="none" fill-rule="nonzero" d="M2.96875,1.98438 L3.53125,1.98438 L0.734375,11.0156 L0.171875,11.0156 L2.96875,1.98438 M7.53125,1.64062 L7.53125,2.0625 L6.84375,2.0625 C6.47917,2.0625 6.19792,2.15625 6,2.34375 C5.76042,2.57292 5.64062,2.94271 5.64062,3.45312 L5.64062,3.98438 L7.26562,3.98438 L7.26562,4.40625 L5.64062,4.40625 L5.64062,10 L5.14062,10 L5.14062,4.40625 L4.20312,4.40625 L4.20312,3.98438 L5.14062,3.98438 L5.14062,3.5625 C5.14062,2.89583 5.29688,2.41146 5.60938,2.10938 C5.91146,1.79688 6.32292,1.64062 6.84375,1.64062 L7.53125,1.64062 M13.3594,6.375 L13.3594,10 L12.8594,10 L12.8594,6.40625 C12.8594,5.625 12.7292,5.07552 12.4688,4.75781 C12.2083,4.4401 11.8125,4.28125 11.2812,4.28125 C10.6667,4.28125 10.1823,4.45833 9.82812,4.8125 C9.47396,5.16667 9.29688,5.76042 9.29688,6.59375 L9.29688,10 L8.8125,10 L8.8125,1.64062 L9.29688,1.64062 L9.29688,5.09375 C9.41146,4.79167 9.61979,4.52083 9.92188,4.28125 C10.2656,3.98958 10.7552,3.84375 11.3906,3.84375 C11.9948,3.84375 12.474,4.05729 12.8281,4.48438 C13.1823,4.91146 13.3594,5.54167 13.3594,6.375 M19.5,9.09375 C19.9167,8.67708 20.125,7.97917 20.125,7 C20.125,6.02083 19.9167,5.32292 19.5,4.90625 C19.0833,4.48958 18.6458,4.28125 18.1875,4.28125 C17.7396,4.28125 17.3073,4.48958 16.8906,4.90625 C16.4844,5.32292 16.2812,6.02083 16.2812,7 C16.2812,7.97917 16.4844,8.67708 16.8906,9.09375 C17.3073,9.51042 17.7396,9.71875 18.1875,9.71875 C18.6458,9.71875 19.0833,9.51042 19.5,9.09375 M16.2656,5.35938 C16.4948,4.83854 16.7396,4.47917 17,4.28125 C17.4062,3.98958 17.7917,3.84375 18.1562,3.84375 C18.8646,3.84375 19.4557,4.13281 19.9297,4.71094 C20.4036,5.28906 20.6406,6.05208 20.6406,7 C20.6406,7.94792 20.4036,8.71094 19.9297,9.28906 C19.4557,9.86719 18.8646,10.1562 18.1562,10.1562 C17.7917,10.1562 17.4062,10.0052 17,9.70312 C16.7396,9.51562 16.4948,9.16146 16.2656,8.64062 L16.2656,10 L15.7812,10 L15.7812,1.64062 L16.2656,1.64062 L16.2656,5.35938 M27.1094,12.1719 L27.1094,12.5938 L21.3906,12.5938 L21.3906,12.1719 L27.1094,12.1719 M27.7031,3.98438 L28.2188,3.98438 L30.25,9.45312 L32.2969,3.98438 L32.8125,3.98438 L30.5781,10 L29.9375,10 L27.7031,3.98438 M34.7344,3.98438 L35.2344,3.98438 L35.2344,10 L34.7344,10 L34.7344,3.98438 M34.7344,1.64062 L35.2344,1.64062 L35.2344,2.3125 L34.7344,2.3125 L34.7344,1.64062 M41.2031,4.15625 L41.2031,4.70312 C40.849,4.50521 40.6302,4.39583 40.5469,4.375 C40.2969,4.32292 39.9844,4.29167 39.6094,4.28125 C39.0469,4.28125 38.6042,4.39062 38.2812,4.60938 C38.0312,4.79688 37.9062,5.11458 37.9062,5.5625 C37.9062,5.875 38.026,6.11458 38.2656,6.28125 C38.5052,6.46875 38.8542,6.61458 39.3125,6.71875 L39.6562,6.78125 C40.2292,6.90625 40.6615,7.08333 40.9531,7.3125 C41.2969,7.58333 41.474,7.92708 41.4844,8.34375 C41.4844,8.90625 41.3177,9.34896 40.9844,9.67188 C40.6302,9.99479 40.0521,10.1562 39.25,10.1562 C38.8125,10.1562 38.4792,10.125 38.25,10.0625 C37.9688,9.98958 37.6771,9.89583 37.375,9.78125 L37.375,9.15625 C37.8125,9.40625 38.0938,9.55208 38.2188,9.59375 C38.5729,9.6875 38.9271,9.73438 39.2812,9.73438 C39.8542,9.73438 40.2812,9.61458 40.5625,9.375 C40.8438,9.125 40.9844,8.80729 40.9844,8.42188 C40.9844,8.08854 40.8906,7.84896 40.7031,7.70312 C40.4323,7.48438 40.0052,7.30729 39.4219,7.17188 L39.0781,7.09375 C38.5677,6.96875 38.1823,6.80208 37.9219,6.59375 C37.5885,6.32292 37.4219,5.99479 37.4219,5.60938 C37.4219,4.98438 37.6224,4.53385 38.0234,4.25781 C38.4245,3.98177 38.9167,3.84375 39.5,3.84375 C40,3.84375 40.3438,3.86979 40.5312,3.92188 C40.7604,3.98438 40.9844,4.0625 41.2031,4.15625 M43.5,3.98438 L44,3.98438 L44,10 L43.5,10 L43.5,3.98438 M43.5,1.64062 L44,1.64062 L44,2.3125 L43.5,2.3125 L43.5,1.64062 M50.1406,5.01562 C49.7865,4.52604 49.3021,4.28125 48.6875,4.28125 C48.0729,4.28125 47.5885,4.52604 47.2344,5.01562 C46.8802,5.49479 46.7031,6.15104 46.7031,6.98438 C46.7031,7.83854 46.8802,8.51042 47.2344,9 C47.5885,9.48958 48.0729,9.73438 48.6875,9.73438 C49.3021,9.73438 49.7865,9.48958 50.1406,9 C50.4948,8.5 50.6719,7.82812 50.6719,6.98438 C50.6719,6.16146 50.4948,5.50521 50.1406,5.01562 M48.6875,3.84375 C49.4479,3.84375 50.0521,4.13021 50.5,4.70312 C50.9479,5.27604 51.1719,6.03646 51.1719,6.98438 C51.1719,7.97396 50.9479,8.75521 50.5,9.32812 C50.0521,9.90104 49.4479,10.1875 48.6875,10.1875 C47.9062,10.1875 47.2917,9.90104 46.8438,9.32812 C46.4062,8.75521 46.1875,7.97396 46.1875,6.98438 C46.1875,6.02604 46.4115,5.26302 46.8594,4.69531 C47.3073,4.1276 47.9167,3.84375 48.6875,3.84375 M57.8281,6.375 L57.8281,10 L57.3281,10 L57.3281,6.40625 C57.3281,5.625 57.2031,5.07552 56.9531,4.75781 C56.7031,4.4401 56.3333,4.28125 55.8438,4.28125 C55.2708,4.28125 54.7865,4.45312 54.3906,4.79688 C53.974,5.14062 53.7656,5.73958 53.7656,6.59375 L53.7656,10 L53.2812,10 L53.2812,3.98438 L53.7656,3.98438 L53.7656,5.10938 C53.9427,4.74479 54.1771,4.46875 54.4688,4.28125 C54.8854,3.98958 55.349,3.84375 55.8594,3.84375 C56.4635,3.84375 56.9427,4.04688 57.2969,4.45312 C57.651,4.84896 57.8281,5.48958 57.8281,6.375 "/>
</g>

<g fill="none" stroke="#000000" stroke-opacity="1" stroke-width="1" stroke-linecap="square" stroke-linejoin="bevel" transform="matrix(1.99815,0,0,1.99815,50.1415,346.679)"
font-family="sans" font-size="11" font-weight="100" font-style="normal" 
>
</g>

<g fill="none" stroke="#000000" stroke-opacity="1" stroke-width="1" stroke-linecap="square" stroke-linejoin="bevel" transform="matrix(1.99815,0,0,1.99815,50.1415,346.679)"
font-family="Ubuntu" font-size="11" font-weight="400" font-style="normal" 
>
</g>

<g fill="none" stroke="#000000" stroke-opacity="1" stroke-width="1" stroke-linecap="square" stroke-linejoin="bevel" transform="matrix(1.99815,0,0,1.99815,-0.00199815,503.533)"
font-family="Ubuntu" font-size="11" font-weight="400" font-style="normal" 
>
</g>

<g fill="none" stroke="#000000" stroke-opacity="1" stroke-width="1" stroke-linecap="square" stroke-linejoin="bevel" transform="matrix(1.99815,0,0,1.99815,-0.00199815,503.533)"
font-family="Ubuntu" font-size="11" font-weight="400" font-style="normal" 
>
</g>

<g fill="none" stroke="#000000" stroke-opacity="1" stroke-width="1" stroke-linecap="square" stroke-linejoin="bevel" transform="matrix(1.99815,0,0,1.99815,-0.00199815,503.533)"
font-family="Ubuntu" font-size="11" font-weight="400" font-style="normal" 
>
</g>

<g fill="none" stroke="#000000" stroke-opacity="1" stroke-width="1" stroke-linecap="square" stroke-linejoin="round" transform="matrix(1.99815,0,0,1.99815,-0.00199815,503.533)"
font-family="Ubuntu" font-size="11" font-weight="400" font-style="normal" 
>
<ellipse cx="54.595" cy="-18" rx="54.094" ry="17.5"/>
</g>

<g fill="none" stroke="#000000" stroke-opacity="1" stroke-width="1" stroke-linecap="square" stroke-linejoin="bevel" transform="matrix(1.99815,0,0,1.99815,-0.00199815,503.533)"
font-family="Ubuntu" font-size="11" font-weight="400" font-style="normal" 
>
</g>

<g fill="none" stroke="#000000" stroke-opacity="1" stroke-width="1" stroke-linecap="square" stroke-linejoin="bevel" transform="matrix(1.99815,0,0,1.99815,40.6347,454.579)"
font-family="Ubuntu" font-size="11" font-weight="400" font-style="normal" 
>
</g>

<g fill="none" stroke="#000000" stroke-opacity="1" stroke-width="1" stroke-linecap="square" stroke-linejoin="bevel" transform="matrix(1.99815,0,0,1.99815,40.6347,454.579)"
font-family="sans" font-size="11" font-weight="100" font-style="normal" 
>
</g>

<g fill="#000000" fill-opacity="1" stroke="#000000" stroke-opacity="1" stroke-width="1" stroke-linecap="square" stroke-linejoin="round" transform="matrix(1.99815,0,0,1.99815,40.6347,454.579)"
font-family="sans" font-size="11" font-weight="100" font-style="normal" 
>
<path vector-effect="none" fill-rule="nonzero" d="M2.96875,1.98438 L3.53125,1.98438 L0.734375,11.0156 L0.171875,11.0156 L2.96875,1.98438 M7.53125,1.64062 L7.53125,2.0625 L6.84375,2.0625 C6.47917,2.0625 6.19792,2.15625 6,2.34375 C5.76042,2.57292 5.64062,2.94271 5.64062,3.45312 L5.64062,3.98438 L7.26562,3.98438 L7.26562,4.40625 L5.64062,4.40625 L5.64062,10 L5.14062,10 L5.14062,4.40625 L4.20312,4.40625 L4.20312,3.98438 L5.14062,3.98438 L5.14062,3.5625 C5.14062,2.89583 5.29688,2.41146 5.60938,2.10938 C5.91146,1.79688 6.32292,1.64062 6.84375,1.64062 L7.53125,1.64062 M13.3594,6.375 L13.3594,10 L12.8594,10 L12.8594,6.40625 C12.8594,5.625 12.7292,5.07552 12.4688,4.75781 C12.2083,4.4401 11.8125,4.28125 11.2812,4.28125 C10.6667,4.28125 10.1823,4.45833 9.82812,4.8125 C9.47396,5.16667 9.29688,5.76042 9.29688,6.59375 L9.29688,10 L8.8125,10 L8.8125,1.64062 L9.29688,1.64062 L9.29688,5.09375 C9.41146,4.79167 9.61979,4.52083 9.92188,4.28125 C10.2656,3.98958 10.7552,3.84375 11.3906,3.84375 C11.9948,3.84375 12.474,4.05729 12.8281,4.48438 C13.1823,4.91146 13.3594,5.54167 13.3594,6.375 M19.5,9.09375 C19.9167,8.67708 20.125,7.97917 20.125,7 C20.125,6.02083 19.9167,5.32292 19.5,4.90625 C19.0833,4.48958 18.6458,4.28125 18.1875,4.28125 C17.7396,4.28125 17.3073,4.48958 16.8906,4.90625 C16.4844,5.32292 16.2812,6.02083 16.2812,7 C16.2812,7.97917 16.4844,8.67708 16.8906,9.09375 C17.3073,9.51042 17.7396,9.71875 18.1875,9.71875 C18.6458,9.71875 19.0833,9.51042 19.5,9.09375 M16.2656,5.35938 C16.4948,4.83854 16.7396,4.47917 17,4.28125 C17.4062,3.98958 17.7917,3.84375 18.1562,3.84375 C18.8646,3.84375 19.4557,4.13281 19.9297,4.71094 C20.4036,5.28906 20.6406,6.05208 20.6406,7 C20.6406,7.94792 20.4036,8.71094 19.9297,9.28906 C19.4557,9.86719 18.8646,10.1562 18.1562,10.1562 C17.7917,10.1562 17.4062,10.0052 17,9.70312 C16.7396,9.51562 16.4948,9.16146 16.2656,8.64062 L16.2656,10 L15.7812,10 L15.7812,1.64062 L16.2656,1.64062 L16.2656,5.35938 M27.1094,12.1719 L27.1094,12.5938 L21.3906,12.5938 L21.3906,12.1719 L27.1094,12.1719 M32.7969,6.375 L32.7969,10 L32.2969,10 L32.2969,6.40625 C32.2969,5.625 32.1667,5.07552 31.9062,4.75781 C31.6458,4.4401 31.25,4.28125 30.7188,4.28125 C30.1042,4.28125 29.6198,4.45833 29.2656,4.8125 C28.9115,5.16667 28.7344,5.76042 28.7344,6.59375 L28.7344,10 L28.25,10 L28.25,1.64062 L28.7344,1.64062 L28.7344,5.09375 C28.849,4.79167 29.0573,4.52083 29.3594,4.28125 C29.7031,3.98958 30.1927,3.84375 30.8281,3.84375 C31.4323,3.84375 31.9115,4.05729 32.2656,4.48438 C32.6198,4.91146 32.7969,5.54167 32.7969,6.375 M37.625,6.60938 C36.8229,6.60938 36.2474,6.75 35.8984,7.03125 C35.5495,7.3125 35.375,7.72396 35.375,8.26562 C35.375,8.79688 35.5208,9.17448 35.8125,9.39844 C36.1042,9.6224 36.4479,9.73438 36.8438,9.73438 C37.5938,9.73438 38.1354,9.41667 38.4688,8.78125 C38.8021,8.13542 38.9688,7.53125 38.9688,6.96875 L38.9688,6.60938 L37.625,6.60938 M39.4688,6.5625 L39.4688,10 L38.9688,10 L38.9688,8.35938 C38.6979,9.16146 38.3333,9.67188 37.875,9.89062 C37.5208,10.0677 37.1615,10.1562 36.7969,10.1562 C36.2031,10.1562 35.7344,9.99479 35.3906,9.67188 C35.0469,9.34896 34.875,8.8776 34.875,8.25781 C34.875,7.63802 35.099,7.14062 35.5469,6.76562 C35.9948,6.39062 36.724,6.20312 37.7344,6.20312 L38.9688,6.20312 L38.9688,6.10938 C38.9688,5.57812 38.8125,5.14062 38.5,4.79688 C38.2083,4.45312 37.7135,4.28125 37.0156,4.28125 C36.6719,4.28125 36.3229,4.34375 35.9688,4.46875 C35.7396,4.55208 35.4375,4.71875 35.0625,4.96875 L35.0625,4.4375 C35.3854,4.23958 35.6875,4.09896 35.9688,4.01562 C36.3646,3.90104 36.7448,3.84375 37.1094,3.84375 C37.8281,3.84375 38.4167,4.05729 38.875,4.48438 C39.2708,4.84896 39.4688,5.54167 39.4688,6.5625 M45.2188,4.40625 C45.1354,4.36458 45.026,4.33333 44.8906,4.3125 C44.7656,4.29167 44.6146,4.28125 44.4375,4.28125 C43.8229,4.28125 43.3177,4.50521 42.9219,4.95312 C42.599,5.31771 42.4375,5.94271 42.4375,6.82812 L42.4375,10 L41.9531,10 L41.9531,3.98438 L42.4375,3.98438 L42.4375,5.10938 C42.6042,4.78646 42.8333,4.51562 43.125,4.29688 C43.5208,3.99479 43.9896,3.84375 44.5312,3.84375 C44.6771,3.84375 44.8021,3.84896 44.9062,3.85938 C45.0104,3.85938 45.1146,3.86979 45.2188,3.89062 L45.2188,4.40625 M45.9219,3.98438 L46.4375,3.98438 L48.4688,9.45312 L50.5156,3.98438 L51.0312,3.98438 L48.7969,10 L48.1562,10 L45.9219,3.98438 M57.6562,6.75 L57.6562,7.0625 L53.0938,7.0625 C53.0938,8.02083 53.2812,8.69792 53.6562,9.09375 C54.0729,9.52083 54.6875,9.73438 55.5,9.73438 C55.7188,9.73438 56.0052,9.6875 56.3594,9.59375 C56.7135,9.5 57.0677,9.35938 57.4219,9.17188 L57.4219,9.6875 C57.0677,9.84375 56.7057,9.96094 56.3359,10.0391 C55.9661,10.1172 55.6719,10.1562 55.4531,10.1562 C54.526,10.1562 53.8281,9.90625 53.3594,9.40625 C52.849,8.875 52.5938,8.09375 52.5938,7.0625 C52.5938,5.98958 52.8229,5.1875 53.2812,4.65625 C53.7604,4.11458 54.4271,3.84375 55.2812,3.84375 C56.0625,3.84375 56.6562,4.10417 57.0625,4.625 C57.4583,5.16667 57.6562,5.875 57.6562,6.75 M57.1562,6.64062 C57.1562,5.79688 56.9635,5.18229 56.5781,4.79688 C56.2656,4.45312 55.8333,4.28125 55.2812,4.28125 C54.6875,4.28125 54.1875,4.45833 53.7812,4.8125 C53.4062,5.14583 53.1823,5.75521 53.1094,6.64062 L57.1562,6.64062 M63.1406,4.15625 L63.1406,4.70312 C62.7865,4.50521 62.5677,4.39583 62.4844,4.375 C62.2344,4.32292 61.9219,4.29167 61.5469,4.28125 C60.9844,4.28125 60.5417,4.39062 60.2188,4.60938 C59.9688,4.79688 59.8438,5.11458 59.8438,5.5625 C59.8438,5.875 59.9635,6.11458 60.2031,6.28125 C60.4427,6.46875 60.7917,6.61458 61.25,6.71875 L61.5938,6.78125 C62.1667,6.90625 62.599,7.08333 62.8906,7.3125 C63.2344,7.58333 63.4115,7.92708 63.4219,8.34375 C63.4219,8.90625 63.2552,9.34896 62.9219,9.67188 C62.5677,9.99479 61.9896,10.1562 61.1875,10.1562 C60.75,10.1562 60.4167,10.125 60.1875,10.0625 C59.9062,9.98958 59.6146,9.89583 59.3125,9.78125 L59.3125,9.15625 C59.75,9.40625 60.0312,9.55208 60.1562,9.59375 C60.5104,9.6875 60.8646,9.73438 61.2188,9.73438 C61.7917,9.73438 62.2188,9.61458 62.5,9.375 C62.7812,9.125 62.9219,8.80729 62.9219,8.42188 C62.9219,8.08854 62.8281,7.84896 62.6406,7.70312 C62.3698,7.48438 61.9427,7.30729 61.3594,7.17188 L61.0156,7.09375 C60.5052,6.96875 60.1198,6.80208 59.8594,6.59375 C59.526,6.32292 59.3594,5.99479 59.3594,5.60938 C59.3594,4.98438 59.5599,4.53385 59.9609,4.25781 C60.362,3.98177 60.8542,3.84375 61.4375,3.84375 C61.9375,3.84375 62.2812,3.86979 62.4688,3.92188 C62.6979,3.98438 62.9219,4.0625 63.1406,4.15625 M65.9688,2.28125 L65.9688,3.98438 L68,3.98438 L68,4.40625 L65.9688,4.40625 L65.9688,8.01562 C65.9688,8.47396 66.026,8.79688 66.1406,8.98438 C66.3906,9.38021 66.75,9.57812 67.2188,9.57812 L68,9.57812 L68,10 L67.2344,10 C66.7448,10 66.3281,9.85677 65.9844,9.57031 C65.6406,9.28385 65.4688,8.76562 65.4688,8.01562 L65.4688,4.40625 L64.75,4.40625 L64.75,3.98438 L65.4688,3.98438 L65.4688,2.28125 L65.9688,2.28125"/>
</g>

<g fill="none" stroke="#000000" stroke-opacity="1" stroke-width="1" stroke-linecap="square" stroke-linejoin="bevel" transform="matrix(1.99815,0,0,1.99815,40.6347,454.579)"
font-family="sans" font-size="11" font-weight="100" font-style="normal" 
>
</g>

<g fill="none" stroke="#000000" stroke-opacity="1" stroke-width="1" stroke-linecap="square" stroke-linejoin="bevel" transform="matrix(1.99815,0,0,1.99815,40.6347,454.579)"
font-family="Ubuntu" font-size="11" font-weight="400" font-style="normal" 
>
</g>

<g fill="none" stroke="#000000" stroke-opacity="1" stroke-width="1" stroke-linecap="square" stroke-linejoin="bevel" transform="matrix(1.99815,0,0,1.99815,-0.00199815,503.533)"
font-family="Ubuntu" font-size="11" font-weight="400" font-style="normal" 
>
</g>

<g fill="none" stroke="#000000" stroke-opacity="1" stroke-width="1" stroke-linecap="square" stroke-linejoin="bevel" transform="matrix(1.99815,0,0,1.99815,-0.00199815,503.533)"
font-family="Ubuntu" font-size="11" font-weight="400" font-style="normal" 
>
</g>

<g fill="none" stroke="#000000" stroke-opacity="1" stroke-width="1" stroke-linecap="square" stroke-linejoin="bevel" transform="matrix(1.99815,0,0,1.99815,-0.00199815,503.533)"
font-family="Ubuntu" font-size="11" font-weight="400" font-style="normal" 
>
</g>

<g fill="none" stroke="#000000" stroke-opacity="1" stroke-width="1" stroke-linecap="square" stroke-linejoin="round" transform="matrix(1.99815,0,0,1.99815,-0.00199815,503.533)"
font-family="Ubuntu" font-size="11" font-weight="400" font-style="normal" 
>
<path vector-effect="none" fill-rule="evenodd" d="M88.323,-32.371 C95.459,-36.075 102.78,-40.346 109.19,-45 C120.48,-53.202 131.57,-63.841 140.7,-73.504 "/>
</g>

<g fill="none" stroke="#000000" stroke-opacity="1" stroke-width="1" stroke-linecap="square" stroke-linejoin="bevel" transform="matrix(1.99815,0,0,1.99815,-0.00199815,503.533)"
font-family="Ubuntu" font-size="11" font-weight="400" font-style="normal" 
>
</g>

<g fill="none" stroke="#000000" stroke-opacity="1" stroke-width="1" stroke-linecap="square" stroke-linejoin="bevel" transform="matrix(1.99815,0,0,1.99815,-0.00199815,503.533)"
font-family="Ubuntu" font-size="11" font-weight="400" font-style="normal" 
>
</g>

<g fill="#000000" fill-opacity="1" stroke="#000000" stroke-opacity="1" stroke-width="1" stroke-linecap="square" stroke-linejoin="round" transform="matrix(1.99815,0,0,1.99815,-0.00199815,503.533)"
font-family="Ubuntu" font-size="11" font-weight="400" font-style="normal" 
>
<path vector-effect="none" fill-rule="evenodd" d="M140.7,-73.504 L143.316,-71.0995 L147.57,-80.979 L138.084,-75.9085 L140.7,-73.504"/>
</g>

<g fill="none" stroke="#000000" stroke-opacity="1" stroke-width="1" stroke-linecap="square" stroke-linejoin="bevel" transform="matrix(1.99815,0,0,1.99815,-0.00199815,503.533)"
font-family="Ubuntu" font-size="11" font-weight="400" font-style="normal" 
>
</g>

<g fill="none" stroke="#000000" stroke-opacity="1" stroke-width="1" stroke-linecap="square" stroke-linejoin="bevel" transform="matrix(1.99815,0,0,1.99815,-0.00199815,503.533)"
font-family="Ubuntu" font-size="11" font-weight="400" font-style="normal" 
>
</g>

<g fill="none" stroke="#000000" stroke-opacity="1" stroke-width="1" stroke-linecap="square" stroke-linejoin="bevel" transform="matrix(1.99815,0,0,1.99815,-0.00199815,503.533)"
font-family="Ubuntu" font-size="11" font-weight="400" font-style="normal" 
>
</g>

<g fill="none" stroke="#000000" stroke-opacity="1" stroke-width="1" stroke-linecap="square" stroke-linejoin="bevel" transform="matrix(1.99815,0,0,1.99815,-0.00199815,503.533)"
font-family="Ubuntu" font-size="11" font-weight="400" font-style="normal" 
>
</g>

<g fill="none" stroke="#000000" stroke-opacity="1" stroke-width="1" stroke-linecap="square" stroke-linejoin="round" transform="matrix(1.99815,0,0,1.99815,-0.00199815,503.533)"
font-family="Ubuntu" font-size="11" font-weight="400" font-style="normal" 
>
<path vector-effect="none" fill-rule="evenodd" d="M96.389,-82.285 C101.86,-83.663 107.51,-85.089 113.11,-86.5 "/>
</g>

<g fill="none" stroke="#000000" stroke-opacity="1" stroke-width="1" stroke-linecap="square" stroke-linejoin="bevel" transform="matrix(1.99815,0,0,1.99815,-0.00199815,503.533)"
font-family="Ubuntu" font-size="11" font-weight="400" font-style="normal" 
>
</g>

<g fill="none" stroke="#000000" stroke-opacity="1" stroke-width="1" stroke-linecap="square" stroke-linejoin="bevel" transform="matrix(1.99815,0,0,1.99815,-0.00199815,503.533)"
font-family="Ubuntu" font-size="11" font-weight="400" font-style="normal" 
>
</g>

<g fill="#000000" fill-opacity="1" stroke="#000000" stroke-opacity="1" stroke-width="1" stroke-linecap="square" stroke-linejoin="round" transform="matrix(1.99815,0,0,1.99815,-0.00199815,503.533)"
font-family="Ubuntu" font-size="11" font-weight="400" font-style="normal" 
>
<path vector-effect="none" fill-rule="evenodd" d="M113.11,-86.5 L113.989,-83.014 L123.07,-89.012 L112.231,-89.986 L113.11,-86.5"/>
</g>

<g fill="none" stroke="#000000" stroke-opacity="1" stroke-width="1" stroke-linecap="square" stroke-linejoin="bevel" transform="matrix(1.99815,0,0,1.99815,-0.00199815,503.533)"
font-family="Ubuntu" font-size="11" font-weight="400" font-style="normal" 
>
</g>

<g fill="none" stroke="#000000" stroke-opacity="1" stroke-width="1" stroke-linecap="square" stroke-linejoin="bevel" transform="matrix(1.99815,0,0,1.99815,-0.00199815,503.533)"
font-family="Ubuntu" font-size="11" font-weight="400" font-style="normal" 
>
</g>

<g fill="none" stroke="#000000" stroke-opacity="1" stroke-width="1" stroke-linecap="square" stroke-linejoin="bevel" transform="matrix(1.99815,0,0,1.99815,-0.00199815,503.533)"
font-family="Ubuntu" font-size="11" font-weight="400" font-style="normal" 
>
</g>

<g fill="none" stroke="#000000" stroke-opacity="1" stroke-width="1" stroke-linecap="square" stroke-linejoin="bevel" transform="matrix(1.99815,0,0,1.99815,-0.00199815,503.533)"
font-family="Ubuntu" font-size="11" font-weight="400" font-style="normal" 
>
</g>

<g fill="none" stroke="#000000" stroke-opacity="1" stroke-width="1" stroke-linecap="square" stroke-linejoin="round" transform="matrix(1.99815,0,0,1.99815,-0.00199815,503.533)"
font-family="Ubuntu" font-size="11" font-weight="400" font-style="normal" 
>
<path vector-effect="none" fill-rule="evenodd" d="M90.07,-117.31 C97.465,-115.44 105.42,-113.44 113.25,-111.46 "/>
</g>

<g fill="none" stroke="#000000" stroke-opacity="1" stroke-width="1" stroke-linecap="square" stroke-linejoin="bevel" transform="matrix(1.99815,0,0,1.99815,-0.00199815,503.533)"
font-family="Ubuntu" font-size="11" font-weight="400" font-style="normal" 
>
</g>

<g fill="none" stroke="#000000" stroke-opacity="1" stroke-width="1" stroke-linecap="square" stroke-linejoin="bevel" transform="matrix(1.99815,0,0,1.99815,-0.00199815,503.533)"
font-family="Ubuntu" font-size="11" font-weight="400" font-style="normal" 
>
</g>

<g fill="#000000" fill-opacity="1" stroke="#000000" stroke-opacity="1" stroke-width="1" stroke-linecap="square" stroke-linejoin="round" transform="matrix(1.99815,0,0,1.99815,-0.00199815,503.533)"
font-family="Ubuntu" font-size="11" font-weight="400" font-style="normal" 
>
<path vector-effect="none" fill-rule="evenodd" d="M113.25,-111.46 L112.386,-108.026 L123.06,-108.99 L114.114,-114.893 L113.25,-111.46"/>
</g>

<g fill="none" stroke="#000000" stroke-opacity="1" stroke-width="1" stroke-linecap="square" stroke-linejoin="bevel" transform="matrix(1.99815,0,0,1.99815,-0.00199815,503.533)"
font-family="Ubuntu" font-size="11" font-weight="400" font-style="normal" 
>
</g>

<g fill="none" stroke="#000000" stroke-opacity="1" stroke-width="1" stroke-linecap="square" stroke-linejoin="bevel" transform="matrix(1.99815,0,0,1.99815,-0.00199815,503.533)"
font-family="Ubuntu" font-size="11" font-weight="400" font-style="normal" 
>
</g>

<g fill="none" stroke="#000000" stroke-opacity="1" stroke-width="1" stroke-linecap="square" stroke-linejoin="bevel" transform="matrix(1.99815,0,0,1.99815,-0.00199815,503.533)"
font-family="Ubuntu" font-size="11" font-weight="400" font-style="normal" 
>
</g>

<g fill="none" stroke="#000000" stroke-opacity="1" stroke-width="1" stroke-linecap="square" stroke-linejoin="bevel" transform="matrix(1.99815,0,0,1.99815,-0.00199815,503.533)"
font-family="Ubuntu" font-size="11" font-weight="400" font-style="normal" 
>
</g>

<g fill="none" stroke="#000000" stroke-opacity="1" stroke-width="1" stroke-linecap="square" stroke-linejoin="round" transform="matrix(1.99815,0,0,1.99815,-0.00199815,503.533)"
font-family="Ubuntu" font-size="11" font-weight="400" font-style="normal" 
>
<path vector-effect="none" fill-rule="evenodd" d="M85.241,-167.2 C93.319,-163.15 101.86,-158.33 109.19,-153 C120.48,-144.8 131.57,-134.16 140.7,-124.5 "/>
</g>

<g fill="none" stroke="#000000" stroke-opacity="1" stroke-width="1" stroke-linecap="square" stroke-linejoin="bevel" transform="matrix(1.99815,0,0,1.99815,-0.00199815,503.533)"
font-family="Ubuntu" font-size="11" font-weight="400" font-style="normal" 
>
</g>

<g fill="none" stroke="#000000" stroke-opacity="1" stroke-width="1" stroke-linecap="square" stroke-linejoin="bevel" transform="matrix(1.99815,0,0,1.99815,-0.00199815,503.533)"
font-family="Ubuntu" font-size="11" font-weight="400" font-style="normal" 
>
</g>

<g fill="#000000" fill-opacity="1" stroke="#000000" stroke-opacity="1" stroke-width="1" stroke-linecap="square" stroke-linejoin="round" transform="matrix(1.99815,0,0,1.99815,-0.00199815,503.533)"
font-family="Ubuntu" font-size="11" font-weight="400" font-style="normal" 
>
<path vector-effect="none" fill-rule="evenodd" d="M140.7,-124.5 L138.082,-122.096 L147.57,-117.02 L143.318,-126.904 L140.7,-124.5"/>
</g>

<g fill="none" stroke="#000000" stroke-opacity="1" stroke-width="1" stroke-linecap="square" stroke-linejoin="bevel" transform="matrix(1.99815,0,0,1.99815,-0.00199815,503.533)"
font-family="Ubuntu" font-size="11" font-weight="400" font-style="normal" 
>
</g>

<g fill="none" stroke="#000000" stroke-opacity="1" stroke-width="1" stroke-linecap="square" stroke-linejoin="bevel" transform="matrix(1,0,0,1,0,0)"
font-family="Ubuntu" font-size="11" font-weight="400" font-style="normal" 
>
</g>
</g>
</svg>
