<?xml version="1.0" encoding="UTF-8" standalone="no"?>
<svg width="165.453mm" height="63.5mm"
 xmlns="http://www.w3.org/2000/svg" xmlns:xlink="http://www.w3.org/1999/xlink"  version="1.2" baseProfile="tiny">
<title>Qt SVG Document</title>
<desc>Generated with Qt</desc>
<defs>
</defs>
<g fill="none" stroke="black" stroke-width="1" fill-rule="evenodd" stroke-linecap="square" stroke-linejoin="bevel" >

<g fill="none" stroke="#000000" stroke-opacity="1" stroke-width="1" stroke-linecap="square" stroke-linejoin="bevel" transform="matrix(1,0,0,1,0,0)"
font-family="Ubuntu" font-size="11" font-weight="400" font-style="normal" 
>
</g>

<g fill="none" stroke="#000000" stroke-opacity="1" stroke-width="1" stroke-linecap="square" stroke-linejoin="bevel" transform="matrix(1,0,0,1,0,0)"
font-family="Ubuntu" font-size="11" font-weight="400" font-style="normal" 
>
</g>

<g fill="none" stroke="#000000" stroke-opacity="1" stroke-width="1" stroke-linecap="square" stroke-linejoin="bevel" transform="matrix(2,0,0,2,-0.0012,180)"
font-family="Ubuntu" font-size="11" font-weight="400" font-style="normal" 
>
</g>

<g fill="#ffffff" fill-opacity="1" stroke="none" transform="matrix(2,0,0,2,-0.0012,180)"
font-family="Ubuntu" font-size="11" font-weight="400" font-style="normal" 
>
<rect x="0.0006" y="-90" width="234.389" height="90"/>
</g>

<g fill="none" stroke="#000000" stroke-opacity="1" stroke-width="1" stroke-linecap="square" stroke-linejoin="bevel" transform="matrix(2,0,0,2,-0.0012,180)"
font-family="Ubuntu" font-size="11" font-weight="400" font-style="normal" 
>
</g>

<g fill="none" stroke="#000000" stroke-opacity="1" stroke-width="1" stroke-linecap="square" stroke-linejoin="bevel" transform="matrix(2,0,0,2,-0.0012,180)"
font-family="Ubuntu" font-size="11" font-weight="400" font-style="normal" 
>
</g>

<g fill="none" stroke="#000000" stroke-opacity="1" stroke-width="1" stroke-linecap="square" stroke-linejoin="bevel" transform="matrix(2,0,0,2,-0.0012,180)"
font-family="Ubuntu" font-size="11" font-weight="400" font-style="normal" 
>
</g>

<g fill="none" stroke="#000000" stroke-opacity="1" stroke-width="1" stroke-linecap="square" stroke-linejoin="bevel" transform="matrix(2,0,0,2,-0.0012,180)"
font-family="Ubuntu" font-size="11" font-weight="400" font-style="normal" 
>
</g>

<g fill="none" stroke="#000000" stroke-opacity="1" stroke-width="1" stroke-linecap="square" stroke-linejoin="round" transform="matrix(2,0,0,2,-0.0012,180)"
font-family="Ubuntu" font-size="11" font-weight="400" font-style="normal" 
>
<ellipse cx="83.193" cy="-72" rx="82.6924" ry="17.5"/>
</g>

<g fill="none" stroke="#000000" stroke-opacity="1" stroke-width="1" stroke-linecap="square" stroke-linejoin="bevel" transform="matrix(2,0,0,2,-0.0012,180)"
font-family="Ubuntu" font-size="11" font-weight="400" font-style="normal" 
>
</g>

<g fill="none" stroke="#000000" stroke-opacity="1" stroke-width="1" stroke-linecap="square" stroke-linejoin="bevel" transform="matrix(2,0,0,2,55.7754,23)"
font-family="Ubuntu" font-size="11" font-weight="400" font-style="normal" 
>
</g>

<g fill="none" stroke="#000000" stroke-opacity="1" stroke-width="1" stroke-linecap="square" stroke-linejoin="bevel" transform="matrix(2,0,0,2,55.7754,23)"
font-family="sans" font-size="11" font-weight="100" font-style="normal" 
>
</g>

<g fill="#000000" fill-opacity="1" stroke="#000000" stroke-opacity="1" stroke-width="1" stroke-linecap="square" stroke-linejoin="round" transform="matrix(2,0,0,2,55.7754,23)"
font-family="sans" font-size="11" font-weight="100" font-style="normal" 
>
<path vector-effect="none" fill-rule="nonzero" d="M2.96875,1.98438 L3.53125,1.98438 L0.734375,11.0156 L0.171875,11.0156 L2.96875,1.98438 M8.67188,9.09375 C9.08854,8.67708 9.29688,7.97917 9.29688,7 C9.29688,6.02083 9.08854,5.32292 8.67188,4.90625 C8.25521,4.48958 7.81771,4.28125 7.35938,4.28125 C6.91146,4.28125 6.47917,4.48958 6.0625,4.90625 C5.65625,5.32292 5.45312,6.02083 5.45312,7 C5.45312,7.97917 5.65625,8.67708 6.0625,9.09375 C6.47917,9.51042 6.91146,9.71875 7.35938,9.71875 C7.81771,9.71875 8.25521,9.51042 8.67188,9.09375 M5.4375,5.35938 C5.66667,4.83854 5.91146,4.47917 6.17188,4.28125 C6.57812,3.98958 6.96354,3.84375 7.32812,3.84375 C8.03646,3.84375 8.6276,4.13281 9.10156,4.71094 C9.57552,5.28906 9.8125,6.05208 9.8125,7 C9.8125,7.94792 9.57552,8.71094 9.10156,9.28906 C8.6276,9.86719 8.03646,10.1562 7.32812,10.1562 C6.96354,10.1562 6.57812,10.0052 6.17188,9.70312 C5.91146,9.51562 5.66667,9.16146 5.4375,8.64062 L5.4375,10 L4.95312,10 L4.95312,1.64062 L5.4375,1.64062 L5.4375,5.35938 M14.3281,6.60938 C13.526,6.60938 12.9505,6.75 12.6016,7.03125 C12.2526,7.3125 12.0781,7.72396 12.0781,8.26562 C12.0781,8.79688 12.224,9.17448 12.5156,9.39844 C12.8073,9.6224 13.151,9.73438 13.5469,9.73438 C14.2969,9.73438 14.8385,9.41667 15.1719,8.78125 C15.5052,8.13542 15.6719,7.53125 15.6719,6.96875 L15.6719,6.60938 L14.3281,6.60938 M16.1719,6.5625 L16.1719,10 L15.6719,10 L15.6719,8.35938 C15.401,9.16146 15.0365,9.67188 14.5781,9.89062 C14.224,10.0677 13.8646,10.1562 13.5,10.1562 C12.9062,10.1562 12.4375,9.99479 12.0938,9.67188 C11.75,9.34896 11.5781,8.8776 11.5781,8.25781 C11.5781,7.63802 11.8021,7.14062 12.25,6.76562 C12.6979,6.39062 13.4271,6.20312 14.4375,6.20312 L15.6719,6.20312 L15.6719,6.10938 C15.6719,5.57812 15.5156,5.14062 15.2031,4.79688 C14.9115,4.45312 14.4167,4.28125 13.7188,4.28125 C13.375,4.28125 13.026,4.34375 12.6719,4.46875 C12.4427,4.55208 12.1406,4.71875 11.7656,4.96875 L11.7656,4.4375 C12.0885,4.23958 12.3906,4.09896 12.6719,4.01562 C13.0677,3.90104 13.4479,3.84375 13.8125,3.84375 C14.5312,3.84375 15.1198,4.05729 15.5781,4.48438 C15.974,4.84896 16.1719,5.54167 16.1719,6.5625 M22.0625,4.15625 L22.0625,4.70312 C21.7083,4.50521 21.4896,4.39583 21.4062,4.375 C21.1562,4.32292 20.8438,4.29167 20.4688,4.28125 C19.9062,4.28125 19.4635,4.39062 19.1406,4.60938 C18.8906,4.79688 18.7656,5.11458 18.7656,5.5625 C18.7656,5.875 18.8854,6.11458 19.125,6.28125 C19.3646,6.46875 19.7135,6.61458 20.1719,6.71875 L20.5156,6.78125 C21.0885,6.90625 21.5208,7.08333 21.8125,7.3125 C22.1562,7.58333 22.3333,7.92708 22.3438,8.34375 C22.3438,8.90625 22.1771,9.34896 21.8438,9.67188 C21.4896,9.99479 20.9115,10.1562 20.1094,10.1562 C19.6719,10.1562 19.3385,10.125 19.1094,10.0625 C18.8281,9.98958 18.5365,9.89583 18.2344,9.78125 L18.2344,9.15625 C18.6719,9.40625 18.9531,9.55208 19.0781,9.59375 C19.4323,9.6875 19.7865,9.73438 20.1406,9.73438 C20.7135,9.73438 21.1406,9.61458 21.4219,9.375 C21.7031,9.125 21.8438,8.80729 21.8438,8.42188 C21.8438,8.08854 21.75,7.84896 21.5625,7.70312 C21.2917,7.48438 20.8646,7.30729 20.2812,7.17188 L19.9375,7.09375 C19.4271,6.96875 19.0417,6.80208 18.7812,6.59375 C18.4479,6.32292 18.2812,5.99479 18.2812,5.60938 C18.2812,4.98438 18.4818,4.53385 18.8828,4.25781 C19.2839,3.98177 19.776,3.84375 20.3594,3.84375 C20.8594,3.84375 21.2031,3.86979 21.3906,3.92188 C21.6198,3.98438 21.8438,4.0625 22.0625,4.15625 M29.0625,6.75 L29.0625,7.0625 L24.5,7.0625 C24.5,8.02083 24.6875,8.69792 25.0625,9.09375 C25.4792,9.52083 26.0938,9.73438 26.9062,9.73438 C27.125,9.73438 27.4115,9.6875 27.7656,9.59375 C28.1198,9.5 28.474,9.35938 28.8281,9.17188 L28.8281,9.6875 C28.474,9.84375 28.112,9.96094 27.7422,10.0391 C27.3724,10.1172 27.0781,10.1562 26.8594,10.1562 C25.9323,10.1562 25.2344,9.90625 24.7656,9.40625 C24.2552,8.875 24,8.09375 24,7.0625 C24,5.98958 24.2292,5.1875 24.6875,4.65625 C25.1667,4.11458 25.8333,3.84375 26.6875,3.84375 C27.4688,3.84375 28.0625,4.10417 28.4688,4.625 C28.8646,5.16667 29.0625,5.875 29.0625,6.75 M28.5625,6.64062 C28.5625,5.79688 28.3698,5.18229 27.9844,4.79688 C27.6719,4.45312 27.2396,4.28125 26.6875,4.28125 C26.0938,4.28125 25.5938,4.45833 25.1875,4.8125 C24.8125,5.14583 24.5885,5.75521 24.5156,6.64062 L28.5625,6.64062 M35.5,12.1719 L35.5,12.5938 L29.7812,12.5938 L29.7812,12.1719 L35.5,12.1719 M36.6406,1.64062 L37.125,1.64062 L37.125,10 L36.6406,10 L36.6406,1.64062 M39.6719,3.98438 L40.1719,3.98438 L40.1719,10 L39.6719,10 L39.6719,3.98438 M39.6719,1.64062 L40.1719,1.64062 L40.1719,2.3125 L39.6719,2.3125 L39.6719,1.64062 M47.2812,6.375 L47.2812,10 L46.7812,10 L46.7812,6.40625 C46.7812,5.625 46.6562,5.07552 46.4062,4.75781 C46.1562,4.4401 45.7865,4.28125 45.2969,4.28125 C44.724,4.28125 44.2396,4.45312 43.8438,4.79688 C43.4271,5.14062 43.2188,5.73958 43.2188,6.59375 L43.2188,10 L42.7344,10 L42.7344,3.98438 L43.2188,3.98438 L43.2188,5.10938 C43.3958,4.74479 43.6302,4.46875 43.9219,4.28125 C44.3385,3.98958 44.8021,3.84375 45.3125,3.84375 C45.9167,3.84375 46.3958,4.04688 46.75,4.45312 C47.1042,4.84896 47.2812,5.48958 47.2812,6.375 M50.2031,1.64062 L50.7031,1.64062 L50.7031,6.71875 L53.6875,3.98438 L54.3594,3.98438 L51.25,6.82812 L54.4688,10 L53.8281,10 L50.7031,6.92188 L50.7031,10 L50.2031,10 L50.2031,1.64062 M60.4219,12.1719 L60.4219,12.5938 L54.7031,12.5938 L54.7031,12.1719 L60.4219,12.1719 M62.0781,2.28125 L62.0781,3.98438 L64.1094,3.98438 L64.1094,4.40625 L62.0781,4.40625 L62.0781,8.01562 C62.0781,8.47396 62.1354,8.79688 62.25,8.98438 C62.5,9.38021 62.8594,9.57812 63.3281,9.57812 L64.1094,9.57812 L64.1094,10 L63.3438,10 C62.8542,10 62.4375,9.85677 62.0938,9.57031 C61.75,9.28385 61.5781,8.76562 61.5781,8.01562 L61.5781,4.40625 L60.8594,4.40625 L60.8594,3.98438 L61.5781,3.98438 L61.5781,2.28125 L62.0781,2.28125 M69.4531,5.01562 C69.099,4.52604 68.6146,4.28125 68,4.28125 C67.3854,4.28125 66.901,4.52604 66.5469,5.01562 C66.1927,5.49479 66.0156,6.15104 66.0156,6.98438 C66.0156,7.83854 66.1927,8.51042 66.5469,9 C66.901,9.48958 67.3854,9.73438 68,9.73438 C68.6146,9.73438 69.099,9.48958 69.4531,9 C69.8073,8.5 69.9844,7.82812 69.9844,6.98438 C69.9844,6.16146 69.8073,5.50521 69.4531,5.01562 M68,3.84375 C68.7604,3.84375 69.3646,4.13021 69.8125,4.70312 C70.2604,5.27604 70.4844,6.03646 70.4844,6.98438 C70.4844,7.97396 70.2604,8.75521 69.8125,9.32812 C69.3646,9.90104 68.7604,10.1875 68,10.1875 C67.2188,10.1875 66.6042,9.90104 66.1562,9.32812 C65.7188,8.75521 65.5,7.97396 65.5,6.98438 C65.5,6.02604 65.724,5.26302 66.1719,4.69531 C66.6198,4.1276 67.2292,3.84375 68,3.84375 M76.9531,12.1719 L76.9531,12.5938 L71.2344,12.5938 L71.2344,12.1719 L76.9531,12.1719 M78.0938,1.64062 L78.5781,1.64062 L78.5781,10 L78.0938,10 L78.0938,1.64062 M83.5469,6.60938 C82.7448,6.60938 82.1693,6.75 81.8203,7.03125 C81.4714,7.3125 81.2969,7.72396 81.2969,8.26562 C81.2969,8.79688 81.4427,9.17448 81.7344,9.39844 C82.026,9.6224 82.3698,9.73438 82.7656,9.73438 C83.5156,9.73438 84.0573,9.41667 84.3906,8.78125 C84.724,8.13542 84.8906,7.53125 84.8906,6.96875 L84.8906,6.60938 L83.5469,6.60938 M85.3906,6.5625 L85.3906,10 L84.8906,10 L84.8906,8.35938 C84.6198,9.16146 84.2552,9.67188 83.7969,9.89062 C83.4427,10.0677 83.0833,10.1562 82.7188,10.1562 C82.125,10.1562 81.6562,9.99479 81.3125,9.67188 C80.9688,9.34896 80.7969,8.8776 80.7969,8.25781 C80.7969,7.63802 81.0208,7.14062 81.4688,6.76562 C81.9167,6.39062 82.6458,6.20312 83.6562,6.20312 L84.8906,6.20312 L84.8906,6.10938 C84.8906,5.57812 84.7344,5.14062 84.4219,4.79688 C84.1302,4.45312 83.6354,4.28125 82.9375,4.28125 C82.5938,4.28125 82.2448,4.34375 81.8906,4.46875 C81.6615,4.55208 81.3594,4.71875 80.9844,4.96875 L80.9844,4.4375 C81.3073,4.23958 81.6094,4.09896 81.8906,4.01562 C82.2865,3.90104 82.6667,3.84375 83.0312,3.84375 C83.75,3.84375 84.3385,4.05729 84.7969,4.48438 C85.1927,4.84896 85.3906,5.54167 85.3906,6.5625 M91.2812,4.15625 L91.2812,4.70312 C90.9271,4.50521 90.7083,4.39583 90.625,4.375 C90.375,4.32292 90.0625,4.29167 89.6875,4.28125 C89.125,4.28125 88.6823,4.39062 88.3594,4.60938 C88.1094,4.79688 87.9844,5.11458 87.9844,5.5625 C87.9844,5.875 88.1042,6.11458 88.3438,6.28125 C88.5833,6.46875 88.9323,6.61458 89.3906,6.71875 L89.7344,6.78125 C90.3073,6.90625 90.7396,7.08333 91.0312,7.3125 C91.375,7.58333 91.5521,7.92708 91.5625,8.34375 C91.5625,8.90625 91.3958,9.34896 91.0625,9.67188 C90.7083,9.99479 90.1302,10.1562 89.3281,10.1562 C88.8906,10.1562 88.5573,10.125 88.3281,10.0625 C88.0469,9.98958 87.7552,9.89583 87.4531,9.78125 L87.4531,9.15625 C87.8906,9.40625 88.1719,9.55208 88.2969,9.59375 C88.651,9.6875 89.0052,9.73438 89.3594,9.73438 C89.9323,9.73438 90.3594,9.61458 90.6406,9.375 C90.9219,9.125 91.0625,8.80729 91.0625,8.42188 C91.0625,8.08854 90.9688,7.84896 90.7812,7.70312 C90.5104,7.48438 90.0833,7.30729 89.5,7.17188 L89.1562,7.09375 C88.6458,6.96875 88.2604,6.80208 88,6.59375 C87.6667,6.32292 87.5,5.99479 87.5,5.60938 C87.5,4.98438 87.7005,4.53385 88.1016,4.25781 C88.5026,3.98177 88.9948,3.84375 89.5781,3.84375 C90.0781,3.84375 90.4219,3.86979 90.6094,3.92188 C90.8385,3.98438 91.0625,4.0625 91.2812,4.15625 M98.2812,6.75 L98.2812,7.0625 L93.7188,7.0625 C93.7188,8.02083 93.9062,8.69792 94.2812,9.09375 C94.6979,9.52083 95.3125,9.73438 96.125,9.73438 C96.3438,9.73438 96.6302,9.6875 96.9844,9.59375 C97.3385,9.5 97.6927,9.35938 98.0469,9.17188 L98.0469,9.6875 C97.6927,9.84375 97.3307,9.96094 96.9609,10.0391 C96.5911,10.1172 96.2969,10.1562 96.0781,10.1562 C95.151,10.1562 94.4531,9.90625 93.9844,9.40625 C93.474,8.875 93.2188,8.09375 93.2188,7.0625 C93.2188,5.98958 93.4479,5.1875 93.9062,4.65625 C94.3854,4.11458 95.0521,3.84375 95.9062,3.84375 C96.6875,3.84375 97.2812,4.10417 97.6875,4.625 C98.0833,5.16667 98.2812,5.875 98.2812,6.75 M97.7812,6.64062 C97.7812,5.79688 97.5885,5.18229 97.2031,4.79688 C96.8906,4.45312 96.4583,4.28125 95.9062,4.28125 C95.3125,4.28125 94.8125,4.45833 94.4062,4.8125 C94.0312,5.14583 93.8073,5.75521 93.7344,6.64062 L97.7812,6.64062 M103.625,4.40625 C103.542,4.36458 103.432,4.33333 103.297,4.3125 C103.172,4.29167 103.021,4.28125 102.844,4.28125 C102.229,4.28125 101.724,4.50521 101.328,4.95312 C101.005,5.31771 100.844,5.94271 100.844,6.82812 L100.844,10 L100.359,10 L100.359,3.98438 L100.844,3.98438 L100.844,5.10938 C101.01,4.78646 101.24,4.51562 101.531,4.29688 C101.927,3.99479 102.396,3.84375 102.938,3.84375 C103.083,3.84375 103.208,3.84896 103.312,3.85938 C103.417,3.85938 103.521,3.86979 103.625,3.89062 L103.625,4.40625 M108.047,2.28125 L104.719,7.4375 L108.047,7.4375 L108.047,2.28125 M107.625,1.98438 L108.594,1.98438 L108.594,7.4375 L109.75,7.4375 L109.75,7.875 L108.594,7.875 L108.594,10 L108.047,10 L108.047,7.875 L104.156,7.875 L104.156,7.3125 L107.625,1.98438"/>
</g>

<g fill="none" stroke="#000000" stroke-opacity="1" stroke-width="1" stroke-linecap="square" stroke-linejoin="bevel" transform="matrix(2,0,0,2,55.7754,23)"
font-family="sans" font-size="11" font-weight="100" font-style="normal" 
>
</g>

<g fill="none" stroke="#000000" stroke-opacity="1" stroke-width="1" stroke-linecap="square" stroke-linejoin="bevel" transform="matrix(2,0,0,2,55.7754,23)"
font-family="Ubuntu" font-size="11" font-weight="400" font-style="normal" 
>
</g>

<g fill="none" stroke="#000000" stroke-opacity="1" stroke-width="1" stroke-linecap="square" stroke-linejoin="bevel" transform="matrix(2,0,0,2,-0.0012,180)"
font-family="Ubuntu" font-size="11" font-weight="400" font-style="normal" 
>
</g>

<g fill="none" stroke="#000000" stroke-opacity="1" stroke-width="1" stroke-linecap="square" stroke-linejoin="bevel" transform="matrix(2,0,0,2,-0.0012,180)"
font-family="Ubuntu" font-size="11" font-weight="400" font-style="normal" 
>
</g>

<g fill="none" stroke="#000000" stroke-opacity="1" stroke-width="1" stroke-linecap="square" stroke-linejoin="bevel" transform="matrix(2,0,0,2,-0.0012,180)"
font-family="Ubuntu" font-size="11" font-weight="400" font-style="normal" 
>
</g>

<g fill="none" stroke="#000000" stroke-opacity="1" stroke-width="1" stroke-linecap="square" stroke-linejoin="round" transform="matrix(2,0,0,2,-0.0012,180)"
font-family="Ubuntu" font-size="11" font-weight="400" font-style="normal" 
>
<rect x="180.89" y="-89.5" width="53" height="35"/>
</g>

<g fill="none" stroke="#000000" stroke-opacity="1" stroke-width="1" stroke-linecap="square" stroke-linejoin="bevel" transform="matrix(2,0,0,2,-0.0012,180)"
font-family="Ubuntu" font-size="11" font-weight="400" font-style="normal" 
>
</g>

<g fill="none" stroke="#000000" stroke-opacity="1" stroke-width="1" stroke-linecap="square" stroke-linejoin="bevel" transform="matrix(2,0,0,2,402.904,23)"
font-family="Ubuntu" font-size="11" font-weight="400" font-style="normal" 
>
</g>

<g fill="none" stroke="#000000" stroke-opacity="1" stroke-width="1" stroke-linecap="square" stroke-linejoin="bevel" transform="matrix(2,0,0,2,402.904,23)"
font-family="sans" font-size="11" font-weight="100" font-style="normal" 
>
</g>

<g fill="#000000" fill-opacity="1" stroke="#000000" stroke-opacity="1" stroke-width="1" stroke-linecap="square" stroke-linejoin="round" transform="matrix(2,0,0,2,402.904,23)"
font-family="sans" font-size="11" font-weight="100" font-style="normal" 
>
<path vector-effect="none" fill-rule="nonzero" d="M2.96875,1.98438 L3.53125,1.98438 L0.734375,11.0156 L0.171875,11.0156 L2.96875,1.98438 M5.46875,2.28125 L5.46875,3.98438 L7.5,3.98438 L7.5,4.40625 L5.46875,4.40625 L5.46875,8.01562 C5.46875,8.47396 5.52604,8.79688 5.64062,8.98438 C5.89062,9.38021 6.25,9.57812 6.71875,9.57812 L7.5,9.57812 L7.5,10 L6.73438,10 C6.24479,10 5.82812,9.85677 5.48438,9.57031 C5.14062,9.28385 4.96875,8.76562 4.96875,8.01562 L4.96875,4.40625 L4.25,4.40625 L4.25,3.98438 L4.96875,3.98438 L4.96875,2.28125 L5.46875,2.28125 M11.8438,1.64062 L11.8438,2.0625 L11.1562,2.0625 C10.7917,2.0625 10.5104,2.15625 10.3125,2.34375 C10.0729,2.57292 9.95312,2.94271 9.95312,3.45312 L9.95312,3.98438 L11.5781,3.98438 L11.5781,4.40625 L9.95312,4.40625 L9.95312,10 L9.45312,10 L9.45312,4.40625 L8.51562,4.40625 L8.51562,3.98438 L9.45312,3.98438 L9.45312,3.5625 C9.45312,2.89583 9.60938,2.41146 9.92188,2.10938 C10.224,1.79688 10.6354,1.64062 11.1562,1.64062 L11.8438,1.64062"/>
</g>

<g fill="none" stroke="#000000" stroke-opacity="1" stroke-width="1" stroke-linecap="square" stroke-linejoin="bevel" transform="matrix(2,0,0,2,402.904,23)"
font-family="sans" font-size="11" font-weight="100" font-style="normal" 
>
</g>

<g fill="none" stroke="#000000" stroke-opacity="1" stroke-width="1" stroke-linecap="square" stroke-linejoin="bevel" transform="matrix(2,0,0,2,402.904,23)"
font-family="Ubuntu" font-size="11" font-weight="400" font-style="normal" 
>
</g>

<g fill="none" stroke="#000000" stroke-opacity="1" stroke-width="1" stroke-linecap="square" stroke-linejoin="bevel" transform="matrix(2,0,0,2,-0.0012,180)"
font-family="Ubuntu" font-size="11" font-weight="400" font-style="normal" 
>
</g>

<g fill="none" stroke="#000000" stroke-opacity="1" stroke-width="1" stroke-linecap="square" stroke-linejoin="bevel" transform="matrix(2,0,0,2,-0.0012,180)"
font-family="Ubuntu" font-size="11" font-weight="400" font-style="normal" 
>
</g>

<g fill="none" stroke="#000000" stroke-opacity="1" stroke-width="1" stroke-linecap="square" stroke-linejoin="bevel" transform="matrix(2,0,0,2,-0.0012,180)"
font-family="Ubuntu" font-size="11" font-weight="400" font-style="normal" 
>
</g>

<g fill="none" stroke="#000000" stroke-opacity="1" stroke-width="1" stroke-linecap="square" stroke-linejoin="round" transform="matrix(2,0,0,2,-0.0012,180)"
font-family="Ubuntu" font-size="11" font-weight="400" font-style="normal" 
>
<rect x="180.89" y="-35.5" width="53" height="35"/>
</g>

<g fill="none" stroke="#000000" stroke-opacity="1" stroke-width="1" stroke-linecap="square" stroke-linejoin="bevel" transform="matrix(2,0,0,2,-0.0012,180)"
font-family="Ubuntu" font-size="11" font-weight="400" font-style="normal" 
>
</g>

<g fill="none" stroke="#000000" stroke-opacity="1" stroke-width="1" stroke-linecap="square" stroke-linejoin="bevel" transform="matrix(2,0,0,2,385.607,131)"
font-family="Ubuntu" font-size="11" font-weight="400" font-style="normal" 
>
</g>

<g fill="none" stroke="#000000" stroke-opacity="1" stroke-width="1" stroke-linecap="square" stroke-linejoin="bevel" transform="matrix(2,0,0,2,385.607,131)"
font-family="sans" font-size="11" font-weight="100" font-style="normal" 
>
</g>

<g fill="#000000" fill-opacity="1" stroke="#000000" stroke-opacity="1" stroke-width="1" stroke-linecap="square" stroke-linejoin="round" transform="matrix(2,0,0,2,385.607,131)"
font-family="sans" font-size="11" font-weight="100" font-style="normal" 
>
<path vector-effect="none" fill-rule="nonzero" d="M2.96875,1.98438 L3.53125,1.98438 L0.734375,11.0156 L0.171875,11.0156 L2.96875,1.98438 M8.35938,4.15625 L8.35938,4.70312 C8.00521,4.50521 7.78646,4.39583 7.70312,4.375 C7.45312,4.32292 7.14062,4.29167 6.76562,4.28125 C6.20312,4.28125 5.76042,4.39062 5.4375,4.60938 C5.1875,4.79688 5.0625,5.11458 5.0625,5.5625 C5.0625,5.875 5.18229,6.11458 5.42188,6.28125 C5.66146,6.46875 6.01042,6.61458 6.46875,6.71875 L6.8125,6.78125 C7.38542,6.90625 7.81771,7.08333 8.10938,7.3125 C8.45312,7.58333 8.63021,7.92708 8.64062,8.34375 C8.64062,8.90625 8.47396,9.34896 8.14062,9.67188 C7.78646,9.99479 7.20833,10.1562 6.40625,10.1562 C5.96875,10.1562 5.63542,10.125 5.40625,10.0625 C5.125,9.98958 4.83333,9.89583 4.53125,9.78125 L4.53125,9.15625 C4.96875,9.40625 5.25,9.55208 5.375,9.59375 C5.72917,9.6875 6.08333,9.73438 6.4375,9.73438 C7.01042,9.73438 7.4375,9.61458 7.71875,9.375 C8,9.125 8.14062,8.80729 8.14062,8.42188 C8.14062,8.08854 8.04688,7.84896 7.85938,7.70312 C7.58854,7.48438 7.16146,7.30729 6.57812,7.17188 L6.23438,7.09375 C5.72396,6.96875 5.33854,6.80208 5.07812,6.59375 C4.74479,6.32292 4.57812,5.99479 4.57812,5.60938 C4.57812,4.98438 4.77865,4.53385 5.17969,4.25781 C5.58073,3.98177 6.07292,3.84375 6.65625,3.84375 C7.15625,3.84375 7.5,3.86979 7.6875,3.92188 C7.91667,3.98438 8.14062,4.0625 8.35938,4.15625 M14.7812,4.28125 L14.7812,4.79688 C14.4896,4.61979 14.2448,4.5 14.0469,4.4375 C13.7135,4.33333 13.3958,4.28125 13.0938,4.28125 C12.2292,4.28125 11.6094,4.5026 11.2344,4.94531 C10.8594,5.38802 10.6719,6.07292 10.6719,7 C10.6719,7.9375 10.8594,8.6276 11.2344,9.07031 C11.6094,9.51302 12.2292,9.73438 13.0938,9.73438 C13.3854,9.73438 13.6667,9.69271 13.9375,9.60938 C14.2292,9.53646 14.5104,9.42188 14.7812,9.26562 L14.7812,9.76562 C14.5104,9.90104 14.2292,10 13.9375,10.0625 C13.6354,10.125 13.3385,10.1562 13.0469,10.1562 C12.1719,10.1562 11.474,9.91667 10.9531,9.4375 C10.4323,8.95833 10.1719,8.14323 10.1719,6.99219 C10.1719,5.84115 10.4323,5.02604 10.9531,4.54688 C11.474,4.07812 12.1719,3.84375 13.0469,3.84375 C13.3385,3.84375 13.6458,3.88542 13.9688,3.96875 C14.2917,4.04167 14.5625,4.14583 14.7812,4.28125 M19.125,6.60938 C18.3229,6.60938 17.7474,6.75 17.3984,7.03125 C17.0495,7.3125 16.875,7.72396 16.875,8.26562 C16.875,8.79688 17.0208,9.17448 17.3125,9.39844 C17.6042,9.6224 17.9479,9.73438 18.3438,9.73438 C19.0938,9.73438 19.6354,9.41667 19.9688,8.78125 C20.3021,8.13542 20.4688,7.53125 20.4688,6.96875 L20.4688,6.60938 L19.125,6.60938 M20.9688,6.5625 L20.9688,10 L20.4688,10 L20.4688,8.35938 C20.1979,9.16146 19.8333,9.67188 19.375,9.89062 C19.0208,10.0677 18.6615,10.1562 18.2969,10.1562 C17.7031,10.1562 17.2344,9.99479 16.8906,9.67188 C16.5469,9.34896 16.375,8.8776 16.375,8.25781 C16.375,7.63802 16.599,7.14062 17.0469,6.76562 C17.4948,6.39062 18.224,6.20312 19.2344,6.20312 L20.4688,6.20312 L20.4688,6.10938 C20.4688,5.57812 20.3125,5.14062 20,4.79688 C19.7083,4.45312 19.2135,4.28125 18.5156,4.28125 C18.1719,4.28125 17.8229,4.34375 17.4688,4.46875 C17.2396,4.55208 16.9375,4.71875 16.5625,4.96875 L16.5625,4.4375 C16.8854,4.23958 17.1875,4.09896 17.4688,4.01562 C17.8646,3.90104 18.2448,3.84375 18.6094,3.84375 C19.3281,3.84375 19.9167,4.05729 20.375,4.48438 C20.7708,4.84896 20.9688,5.54167 20.9688,6.5625 M28,6.375 L28,10 L27.5,10 L27.5,6.40625 C27.5,5.625 27.375,5.07552 27.125,4.75781 C26.875,4.4401 26.5052,4.28125 26.0156,4.28125 C25.4427,4.28125 24.9583,4.45312 24.5625,4.79688 C24.1458,5.14062 23.9375,5.73958 23.9375,6.59375 L23.9375,10 L23.4531,10 L23.4531,3.98438 L23.9375,3.98438 L23.9375,5.10938 C24.1146,4.74479 24.349,4.46875 24.6406,4.28125 C25.0573,3.98958 25.5208,3.84375 26.0312,3.84375 C26.6354,3.84375 27.1146,4.04688 27.4688,4.45312 C27.8229,4.84896 28,5.48958 28,6.375 "/>
</g>

<g fill="none" stroke="#000000" stroke-opacity="1" stroke-width="1" stroke-linecap="square" stroke-linejoin="bevel" transform="matrix(2,0,0,2,385.607,131)"
font-family="sans" font-size="11" font-weight="100" font-style="normal" 
>
</g>

<g fill="none" stroke="#000000" stroke-opacity="1" stroke-width="1" stroke-linecap="square" stroke-linejoin="bevel" transform="matrix(2,0,0,2,385.607,131)"
font-family="Ubuntu" font-size="11" font-weight="400" font-style="normal" 
>
</g>

<g fill="none" stroke="#000000" stroke-opacity="1" stroke-width="1" stroke-linecap="square" stroke-linejoin="bevel" transform="matrix(2,0,0,2,-0.0012,180)"
font-family="Ubuntu" font-size="11" font-weight="400" font-style="normal" 
>
</g>

<g fill="none" stroke="#000000" stroke-opacity="1" stroke-width="1" stroke-linecap="square" stroke-linejoin="bevel" transform="matrix(2,0,0,2,-0.0012,180)"
font-family="Ubuntu" font-size="11" font-weight="400" font-style="normal" 
>
</g>

<g fill="none" stroke="#000000" stroke-opacity="1" stroke-width="1" stroke-linecap="square" stroke-linejoin="bevel" transform="matrix(2,0,0,2,-0.0012,180)"
font-family="Ubuntu" font-size="11" font-weight="400" font-style="normal" 
>
</g>

<g fill="none" stroke="#000000" stroke-opacity="1" stroke-width="1" stroke-linecap="square" stroke-linejoin="round" transform="matrix(2,0,0,2,-0.0012,180)"
font-family="Ubuntu" font-size="11" font-weight="400" font-style="normal" 
>
<ellipse cx="83.193" cy="-18" rx="59.296" ry="17.5"/>
</g>

<g fill="none" stroke="#000000" stroke-opacity="1" stroke-width="1" stroke-linecap="square" stroke-linejoin="bevel" transform="matrix(2,0,0,2,-0.0012,180)"
font-family="Ubuntu" font-size="11" font-weight="400" font-style="normal" 
>
</g>

<g fill="none" stroke="#000000" stroke-opacity="1" stroke-width="1" stroke-linecap="square" stroke-linejoin="bevel" transform="matrix(2,0,0,2,91.9786,131)"
font-family="Ubuntu" font-size="11" font-weight="400" font-style="normal" 
>
</g>

<g fill="none" stroke="#000000" stroke-opacity="1" stroke-width="1" stroke-linecap="square" stroke-linejoin="bevel" transform="matrix(2,0,0,2,91.9786,131)"
font-family="sans" font-size="11" font-weight="100" font-style="normal" 
>
</g>

<g fill="#000000" fill-opacity="1" stroke="#000000" stroke-opacity="1" stroke-width="1" stroke-linecap="square" stroke-linejoin="round" transform="matrix(2,0,0,2,91.9786,131)"
font-family="sans" font-size="11" font-weight="100" font-style="normal" 
>
<path vector-effect="none" fill-rule="nonzero" d="M2.96875,1.98438 L3.53125,1.98438 L0.734375,11.0156 L0.171875,11.0156 L2.96875,1.98438 M6.98438,10.5625 C6.76562,11.0938 6.53125,11.4635 6.28125,11.6719 C5.94792,11.9427 5.625,12.0781 5.3125,12.0781 L4.57812,12.0781 L4.57812,11.6562 L5.20312,11.6562 C5.46354,11.6562 5.69271,11.5729 5.89062,11.4062 C6.14062,11.1875 6.34896,10.8698 6.51562,10.4531 L6.6875,10 L4.29688,3.98438 L4.82812,3.98438 L6.95312,9.34375 L9.09375,3.98438 L9.625,3.98438 L6.98438,10.5625 M15.4531,5.35938 L15.4531,1.64062 L15.9219,1.64062 L15.9219,10 L15.4531,10 L15.4531,8.64062 C15.224,9.16146 14.974,9.51562 14.7031,9.70312 C14.3073,10.0052 13.9271,10.1562 13.5625,10.1562 C12.8542,10.1562 12.263,9.86719 11.7891,9.28906 C11.3151,8.71094 11.0781,7.94792 11.0781,7 C11.0781,6.05208 11.3151,5.28906 11.7891,4.71094 C12.263,4.13281 12.8542,3.84375 13.5625,3.84375 C13.9271,3.84375 14.3073,3.98958 14.7031,4.28125 C14.974,4.47917 15.224,4.83854 15.4531,5.35938 M12.2188,4.90625 C11.8021,5.32292 11.5938,6.02083 11.5938,7 C11.5938,7.97917 11.8021,8.67708 12.2188,9.09375 C12.6354,9.51042 13.0729,9.71875 13.5312,9.71875 C13.9792,9.71875 14.4115,9.51042 14.8281,9.09375 C15.2344,8.67708 15.4375,7.97917 15.4375,7 C15.4375,6.02083 15.2344,5.32292 14.8281,4.90625 C14.4115,4.48958 13.9792,4.28125 13.5312,4.28125 C13.0729,4.28125 12.6354,4.48958 12.2188,4.90625 M18.4219,1.64062 L18.9062,1.64062 L18.9062,10 L18.4219,10 L18.4219,1.64062 M21.4531,3.98438 L21.9531,3.98438 L21.9531,10 L21.4531,10 L21.4531,3.98438 M21.4531,1.64062 L21.9531,1.64062 L21.9531,2.3125 L21.4531,2.3125 L21.4531,1.64062 M28.5156,5.35938 L28.5156,1.64062 L28.9844,1.64062 L28.9844,10 L28.5156,10 L28.5156,8.64062 C28.2865,9.16146 28.0365,9.51562 27.7656,9.70312 C27.3698,10.0052 26.9896,10.1562 26.625,10.1562 C25.9167,10.1562 25.3255,9.86719 24.8516,9.28906 C24.3776,8.71094 24.1406,7.94792 24.1406,7 C24.1406,6.05208 24.3776,5.28906 24.8516,4.71094 C25.3255,4.13281 25.9167,3.84375 26.625,3.84375 C26.9896,3.84375 27.3698,3.98958 27.7656,4.28125 C28.0365,4.47917 28.2865,4.83854 28.5156,5.35938 M25.2812,4.90625 C24.8646,5.32292 24.6562,6.02083 24.6562,7 C24.6562,7.97917 24.8646,8.67708 25.2812,9.09375 C25.6979,9.51042 26.1354,9.71875 26.5938,9.71875 C27.0417,9.71875 27.474,9.51042 27.8906,9.09375 C28.2969,8.67708 28.5,7.97917 28.5,7 C28.5,6.02083 28.2969,5.32292 27.8906,4.90625 C27.474,4.48958 27.0417,4.28125 26.5938,4.28125 C26.1354,4.28125 25.6979,4.48958 25.2812,4.90625 M33.8906,6.60938 C33.0885,6.60938 32.513,6.75 32.1641,7.03125 C31.8151,7.3125 31.6406,7.72396 31.6406,8.26562 C31.6406,8.79688 31.7865,9.17448 32.0781,9.39844 C32.3698,9.6224 32.7135,9.73438 33.1094,9.73438 C33.8594,9.73438 34.401,9.41667 34.7344,8.78125 C35.0677,8.13542 35.2344,7.53125 35.2344,6.96875 L35.2344,6.60938 L33.8906,6.60938 M35.7344,6.5625 L35.7344,10 L35.2344,10 L35.2344,8.35938 C34.9635,9.16146 34.599,9.67188 34.1406,9.89062 C33.7865,10.0677 33.4271,10.1562 33.0625,10.1562 C32.4688,10.1562 32,9.99479 31.6562,9.67188 C31.3125,9.34896 31.1406,8.8776 31.1406,8.25781 C31.1406,7.63802 31.3646,7.14062 31.8125,6.76562 C32.2604,6.39062 32.9896,6.20312 34,6.20312 L35.2344,6.20312 L35.2344,6.10938 C35.2344,5.57812 35.0781,5.14062 34.7656,4.79688 C34.474,4.45312 33.9792,4.28125 33.2812,4.28125 C32.9375,4.28125 32.5885,4.34375 32.2344,4.46875 C32.0052,4.55208 31.7031,4.71875 31.3281,4.96875 L31.3281,4.4375 C31.651,4.23958 31.9531,4.09896 32.2344,4.01562 C32.6302,3.90104 33.0104,3.84375 33.375,3.84375 C34.0938,3.84375 34.6823,4.05729 35.1406,4.48438 C35.5365,4.84896 35.7344,5.54167 35.7344,6.5625 M41.4844,4.40625 C41.401,4.36458 41.2917,4.33333 41.1562,4.3125 C41.0312,4.29167 40.8802,4.28125 40.7031,4.28125 C40.0885,4.28125 39.5833,4.50521 39.1875,4.95312 C38.8646,5.31771 38.7031,5.94271 38.7031,6.82812 L38.7031,10 L38.2188,10 L38.2188,3.98438 L38.7031,3.98438 L38.7031,5.10938 C38.8698,4.78646 39.099,4.51562 39.3906,4.29688 C39.7865,3.99479 40.2552,3.84375 40.7969,3.84375 C40.9427,3.84375 41.0677,3.84896 41.1719,3.85938 C41.276,3.85938 41.3802,3.86979 41.4844,3.89062 L41.4844,4.40625 M47.0938,12.1719 L47.0938,12.5938 L41.375,12.5938 L41.375,12.1719 L47.0938,12.1719 M52.7812,6.375 L52.7812,10 L52.2812,10 L52.2812,6.40625 C52.2812,5.625 52.1562,5.07552 51.9062,4.75781 C51.6562,4.4401 51.2865,4.28125 50.7969,4.28125 C50.224,4.28125 49.7396,4.45312 49.3438,4.79688 C48.9271,5.14062 48.7188,5.73958 48.7188,6.59375 L48.7188,10 L48.2344,10 L48.2344,3.98438 L48.7188,3.98438 L48.7188,5.10938 C48.8958,4.74479 49.1302,4.46875 49.4219,4.28125 C49.8385,3.98958 50.3021,3.84375 50.8125,3.84375 C51.4167,3.84375 51.8958,4.04688 52.25,4.45312 C52.6042,4.84896 52.7812,5.48958 52.7812,6.375 M58.7812,5.01562 C58.4271,4.52604 57.9427,4.28125 57.3281,4.28125 C56.7135,4.28125 56.2292,4.52604 55.875,5.01562 C55.5208,5.49479 55.3438,6.15104 55.3438,6.98438 C55.3438,7.83854 55.5208,8.51042 55.875,9 C56.2292,9.48958 56.7135,9.73438 57.3281,9.73438 C57.9427,9.73438 58.4271,9.48958 58.7812,9 C59.1354,8.5 59.3125,7.82812 59.3125,6.98438 C59.3125,6.16146 59.1354,5.50521 58.7812,5.01562 M57.3281,3.84375 C58.0885,3.84375 58.6927,4.13021 59.1406,4.70312 C59.5885,5.27604 59.8125,6.03646 59.8125,6.98438 C59.8125,7.97396 59.5885,8.75521 59.1406,9.32812 C58.6927,9.90104 58.0885,10.1875 57.3281,10.1875 C56.5469,10.1875 55.9323,9.90104 55.4844,9.32812 C55.0469,8.75521 54.8281,7.97396 54.8281,6.98438 C54.8281,6.02604 55.0521,5.26302 55.5,4.69531 C55.9479,4.1276 56.5573,3.84375 57.3281,3.84375 M65.9219,5.35938 L65.9219,1.64062 L66.3906,1.64062 L66.3906,10 L65.9219,10 L65.9219,8.64062 C65.6927,9.16146 65.4427,9.51562 65.1719,9.70312 C64.776,10.0052 64.3958,10.1562 64.0312,10.1562 C63.3229,10.1562 62.7318,9.86719 62.2578,9.28906 C61.7839,8.71094 61.5469,7.94792 61.5469,7 C61.5469,6.05208 61.7839,5.28906 62.2578,4.71094 C62.7318,4.13281 63.3229,3.84375 64.0312,3.84375 C64.3958,3.84375 64.776,3.98958 65.1719,4.28125 C65.4427,4.47917 65.6927,4.83854 65.9219,5.35938 M62.6875,4.90625 C62.2708,5.32292 62.0625,6.02083 62.0625,7 C62.0625,7.97917 62.2708,8.67708 62.6875,9.09375 C63.1042,9.51042 63.5417,9.71875 64,9.71875 C64.4479,9.71875 64.8802,9.51042 65.2969,9.09375 C65.7031,8.67708 65.9062,7.97917 65.9062,7 C65.9062,6.02083 65.7031,5.32292 65.2969,4.90625 C64.8802,4.48958 64.4479,4.28125 64,4.28125 C63.5417,4.28125 63.1042,4.48958 62.6875,4.90625 M73.5781,6.75 L73.5781,7.0625 L69.0156,7.0625 C69.0156,8.02083 69.2031,8.69792 69.5781,9.09375 C69.9948,9.52083 70.6094,9.73438 71.4219,9.73438 C71.6406,9.73438 71.9271,9.6875 72.2812,9.59375 C72.6354,9.5 72.9896,9.35938 73.3438,9.17188 L73.3438,9.6875 C72.9896,9.84375 72.6276,9.96094 72.2578,10.0391 C71.888,10.1172 71.5938,10.1562 71.375,10.1562 C70.4479,10.1562 69.75,9.90625 69.2812,9.40625 C68.7708,8.875 68.5156,8.09375 68.5156,7.0625 C68.5156,5.98958 68.7448,5.1875 69.2031,4.65625 C69.6823,4.11458 70.349,3.84375 71.2031,3.84375 C71.9844,3.84375 72.5781,4.10417 72.9844,4.625 C73.3802,5.16667 73.5781,5.875 73.5781,6.75 M73.0781,6.64062 C73.0781,5.79688 72.8854,5.18229 72.5,4.79688 C72.1875,4.45312 71.7552,4.28125 71.2031,4.28125 C70.6094,4.28125 70.1094,4.45833 69.7031,4.8125 C69.3281,5.14583 69.1042,5.75521 69.0312,6.64062 L73.0781,6.64062"/>
</g>

<g fill="none" stroke="#000000" stroke-opacity="1" stroke-width="1" stroke-linecap="square" stroke-linejoin="bevel" transform="matrix(2,0,0,2,91.9786,131)"
font-family="sans" font-size="11" font-weight="100" font-style="normal" 
>
</g>

<g fill="none" stroke="#000000" stroke-opacity="1" stroke-width="1" stroke-linecap="square" stroke-linejoin="bevel" transform="matrix(2,0,0,2,91.9786,131)"
font-family="Ubuntu" font-size="11" font-weight="400" font-style="normal" 
>
</g>

<g fill="none" stroke="#000000" stroke-opacity="1" stroke-width="1" stroke-linecap="square" stroke-linejoin="bevel" transform="matrix(2,0,0,2,-0.0012,180)"
font-family="Ubuntu" font-size="11" font-weight="400" font-style="normal" 
>
</g>

<g fill="none" stroke="#000000" stroke-opacity="1" stroke-width="1" stroke-linecap="square" stroke-linejoin="bevel" transform="matrix(2,0,0,2,-0.0012,180)"
font-family="Ubuntu" font-size="11" font-weight="400" font-style="normal" 
>
</g>

<g fill="none" stroke="#000000" stroke-opacity="1" stroke-width="1" stroke-linecap="square" stroke-linejoin="bevel" transform="matrix(2,0,0,2,-0.0012,180)"
font-family="Ubuntu" font-size="11" font-weight="400" font-style="normal" 
>
</g>

<g fill="none" stroke="#000000" stroke-opacity="1" stroke-width="1" stroke-linecap="square" stroke-linejoin="round" transform="matrix(2,0,0,2,-0.0012,180)"
font-family="Ubuntu" font-size="11" font-weight="400" font-style="normal" 
>
<path vector-effect="none" fill-rule="evenodd" d="M143.14,-18 C152.32,-18 161.57,-18 170.05,-18 "/>
</g>

<g fill="none" stroke="#000000" stroke-opacity="1" stroke-width="1" stroke-linecap="square" stroke-linejoin="bevel" transform="matrix(2,0,0,2,-0.0012,180)"
font-family="Ubuntu" font-size="11" font-weight="400" font-style="normal" 
>
</g>

<g fill="none" stroke="#000000" stroke-opacity="1" stroke-width="1" stroke-linecap="square" stroke-linejoin="bevel" transform="matrix(2,0,0,2,-0.0012,180)"
font-family="Ubuntu" font-size="11" font-weight="400" font-style="normal" 
>
</g>

<g fill="#000000" fill-opacity="1" stroke="#000000" stroke-opacity="1" stroke-width="1" stroke-linecap="square" stroke-linejoin="round" transform="matrix(2,0,0,2,-0.0012,180)"
font-family="Ubuntu" font-size="11" font-weight="400" font-style="normal" 
>
<path vector-effect="none" fill-rule="evenodd" d="M170.05,-18 L170.05,-14.4055 L180.32,-18 L170.05,-21.5945 L170.05,-18"/>
</g>

<g fill="none" stroke="#000000" stroke-opacity="1" stroke-width="1" stroke-linecap="square" stroke-linejoin="bevel" transform="matrix(2,0,0,2,-0.0012,180)"
font-family="Ubuntu" font-size="11" font-weight="400" font-style="normal" 
>
</g>

<g fill="none" stroke="#000000" stroke-opacity="1" stroke-width="1" stroke-linecap="square" stroke-linejoin="bevel" transform="matrix(2,0,0,2,-0.0012,180)"
font-family="Ubuntu" font-size="11" font-weight="400" font-style="normal" 
>
</g>

<g fill="none" stroke="#000000" stroke-opacity="1" stroke-width="1" stroke-linecap="square" stroke-linejoin="bevel" transform="matrix(2,0,0,2,-0.0012,180)"
font-family="Ubuntu" font-size="11" font-weight="400" font-style="normal" 
>
</g>

<g fill="none" stroke="#000000" stroke-opacity="1" stroke-width="1" stroke-linecap="square" stroke-linejoin="bevel" transform="matrix(2,0,0,2,-0.0012,180)"
font-family="Ubuntu" font-size="11" font-weight="400" font-style="normal" 
>
</g>

<g fill="none" stroke="#000000" stroke-opacity="1" stroke-width="1" stroke-linecap="square" stroke-linejoin="round" transform="matrix(2,0,0,2,-0.0012,180)"
font-family="Ubuntu" font-size="11" font-weight="400" font-style="normal" 
>
<path vector-effect="none" fill-rule="evenodd" d="M166.71,-72 C167.91,-72 169.1,-72 170.27,-72 "/>
</g>

<g fill="none" stroke="#000000" stroke-opacity="1" stroke-width="1" stroke-linecap="square" stroke-linejoin="bevel" transform="matrix(2,0,0,2,-0.0012,180)"
font-family="Ubuntu" font-size="11" font-weight="400" font-style="normal" 
>
</g>

<g fill="none" stroke="#000000" stroke-opacity="1" stroke-width="1" stroke-linecap="square" stroke-linejoin="bevel" transform="matrix(2,0,0,2,-0.0012,180)"
font-family="Ubuntu" font-size="11" font-weight="400" font-style="normal" 
>
</g>

<g fill="#000000" fill-opacity="1" stroke="#000000" stroke-opacity="1" stroke-width="1" stroke-linecap="square" stroke-linejoin="round" transform="matrix(2,0,0,2,-0.0012,180)"
font-family="Ubuntu" font-size="11" font-weight="400" font-style="normal" 
>
<path vector-effect="none" fill-rule="evenodd" d="M170.27,-72 L170.27,-68.465 L180.37,-72 L170.27,-75.535 L170.27,-72"/>
</g>

<g fill="none" stroke="#000000" stroke-opacity="1" stroke-width="1" stroke-linecap="square" stroke-linejoin="bevel" transform="matrix(2,0,0,2,-0.0012,180)"
font-family="Ubuntu" font-size="11" font-weight="400" font-style="normal" 
>
</g>

<g fill="none" stroke="#000000" stroke-opacity="1" stroke-width="1" stroke-linecap="square" stroke-linejoin="bevel" transform="matrix(1,0,0,1,0,0)"
font-family="Ubuntu" font-size="11" font-weight="400" font-style="normal" 
>
</g>
</g>
</svg>
