<?xml version="1.0" encoding="UTF-8" standalone="no"?>
<svg width="325.261mm" height="101.6mm"
 xmlns="http://www.w3.org/2000/svg" xmlns:xlink="http://www.w3.org/1999/xlink"  version="1.2" baseProfile="tiny">
<title>Qt SVG Document</title>
<desc>Generated with Qt</desc>
<defs>
</defs>
<g fill="none" stroke="black" stroke-width="1" fill-rule="evenodd" stroke-linecap="square" stroke-linejoin="bevel" >

<g fill="none" stroke="#000000" stroke-opacity="1" stroke-width="1" stroke-linecap="square" stroke-linejoin="bevel" transform="matrix(1,0,0,1,0,0)"
font-family="Ubuntu" font-size="11" font-weight="400" font-style="normal" 
>
</g>

<g fill="none" stroke="#000000" stroke-opacity="1" stroke-width="1" stroke-linecap="square" stroke-linejoin="bevel" transform="matrix(1,0,0,1,0,0)"
font-family="Ubuntu" font-size="11" font-weight="400" font-style="normal" 
>
</g>

<g fill="none" stroke="#000000" stroke-opacity="1" stroke-width="1" stroke-linecap="square" stroke-linejoin="bevel" transform="matrix(2,0,0,2,0.0032,288)"
font-family="Ubuntu" font-size="11" font-weight="400" font-style="normal" 
>
</g>

<g fill="#ffffff" fill-opacity="1" stroke="none" transform="matrix(2,0,0,2,0.0032,288)"
font-family="Ubuntu" font-size="11" font-weight="400" font-style="normal" 
>
<rect x="-0.0016" y="-144" width="460.875" height="144"/>
</g>

<g fill="none" stroke="#000000" stroke-opacity="1" stroke-width="1" stroke-linecap="square" stroke-linejoin="bevel" transform="matrix(2,0,0,2,0.0032,288)"
font-family="Ubuntu" font-size="11" font-weight="400" font-style="normal" 
>
</g>

<g fill="none" stroke="#000000" stroke-opacity="1" stroke-width="1" stroke-linecap="square" stroke-linejoin="bevel" transform="matrix(2,0,0,2,0.0032,288)"
font-family="Ubuntu" font-size="11" font-weight="400" font-style="normal" 
>
</g>

<g fill="none" stroke="#000000" stroke-opacity="1" stroke-width="1" stroke-linecap="square" stroke-linejoin="bevel" transform="matrix(2,0,0,2,0.0032,288)"
font-family="Ubuntu" font-size="11" font-weight="400" font-style="normal" 
>
</g>

<g fill="none" stroke="#000000" stroke-opacity="1" stroke-width="1" stroke-linecap="square" stroke-linejoin="bevel" transform="matrix(2,0,0,2,0.0032,288)"
font-family="Ubuntu" font-size="11" font-weight="400" font-style="normal" 
>
</g>

<g fill="none" stroke="#000000" stroke-opacity="1" stroke-width="1" stroke-linecap="square" stroke-linejoin="round" transform="matrix(2,0,0,2,0.0032,288)"
font-family="Ubuntu" font-size="11" font-weight="400" font-style="normal" 
>
<ellipse cx="66.944" cy="-72" rx="66.4456" ry="17.5"/>
</g>

<g fill="none" stroke="#000000" stroke-opacity="1" stroke-width="1" stroke-linecap="square" stroke-linejoin="bevel" transform="matrix(2,0,0,2,0.0032,288)"
font-family="Ubuntu" font-size="11" font-weight="400" font-style="normal" 
>
</g>

<g fill="none" stroke="#000000" stroke-opacity="1" stroke-width="1" stroke-linecap="square" stroke-linejoin="bevel" transform="matrix(2,0,0,2,45.7349,131)"
font-family="Ubuntu" font-size="11" font-weight="400" font-style="normal" 
>
</g>

<g fill="none" stroke="#000000" stroke-opacity="1" stroke-width="1" stroke-linecap="square" stroke-linejoin="bevel" transform="matrix(2,0,0,2,45.7349,131)"
font-family="sans" font-size="11" font-weight="100" font-style="normal" 
>
</g>

<g fill="#000000" fill-opacity="1" stroke="#000000" stroke-opacity="1" stroke-width="1" stroke-linecap="square" stroke-linejoin="round" transform="matrix(2,0,0,2,45.7349,131)"
font-family="sans" font-size="11" font-weight="100" font-style="normal" 
>
<path vector-effect="none" fill-rule="nonzero" d="M2.96875,1.98438 L3.53125,1.98438 L0.734375,11.0156 L0.171875,11.0156 L2.96875,1.98438 M5.46875,2.28125 L5.46875,3.98438 L7.5,3.98438 L7.5,4.40625 L5.46875,4.40625 L5.46875,8.01562 C5.46875,8.47396 5.52604,8.79688 5.64062,8.98438 C5.89062,9.38021 6.25,9.57812 6.71875,9.57812 L7.5,9.57812 L7.5,10 L6.73438,10 C6.24479,10 5.82812,9.85677 5.48438,9.57031 C5.14062,9.28385 4.96875,8.76562 4.96875,8.01562 L4.96875,4.40625 L4.25,4.40625 L4.25,3.98438 L4.96875,3.98438 L4.96875,2.28125 L5.46875,2.28125 M9.20312,7.60938 L9.20312,3.98438 L9.6875,3.98438 L9.6875,7.57812 C9.6875,8.35938 9.8125,8.90885 10.0625,9.22656 C10.3125,9.54427 10.6823,9.70312 11.1719,9.70312 C11.7448,9.70312 12.2344,9.53125 12.6406,9.1875 C13.0469,8.84375 13.25,8.24479 13.25,7.39062 L13.25,3.98438 L13.7344,3.98438 L13.7344,10 L13.25,10 L13.25,8.875 C13.0729,9.23958 12.8385,9.51562 12.5469,9.70312 C12.1302,9.99479 11.6667,10.1406 11.1562,10.1406 C10.5625,10.1406 10.0885,9.9375 9.73438,9.53125 C9.38021,9.13542 9.20312,8.49479 9.20312,7.60938 M19.5,4.40625 C19.4167,4.36458 19.3073,4.33333 19.1719,4.3125 C19.0469,4.29167 18.8958,4.28125 18.7188,4.28125 C18.1042,4.28125 17.599,4.50521 17.2031,4.95312 C16.8802,5.31771 16.7188,5.94271 16.7188,6.82812 L16.7188,10 L16.2344,10 L16.2344,3.98438 L16.7188,3.98438 L16.7188,5.10938 C16.8854,4.78646 17.1146,4.51562 17.4062,4.29688 C17.8021,3.99479 18.2708,3.84375 18.8125,3.84375 C18.9583,3.84375 19.0833,3.84896 19.1875,3.85938 C19.2917,3.85938 19.3958,3.86979 19.5,3.89062 L19.5,4.40625 M21.2656,2.28125 L21.2656,3.98438 L23.2969,3.98438 L23.2969,4.40625 L21.2656,4.40625 L21.2656,8.01562 C21.2656,8.47396 21.3229,8.79688 21.4375,8.98438 C21.6875,9.38021 22.0469,9.57812 22.5156,9.57812 L23.2969,9.57812 L23.2969,10 L22.5312,10 C22.0417,10 21.625,9.85677 21.2812,9.57031 C20.9375,9.28385 20.7656,8.76562 20.7656,8.01562 L20.7656,4.40625 L20.0469,4.40625 L20.0469,3.98438 L20.7656,3.98438 L20.7656,2.28125 L21.2656,2.28125 M25.0625,1.64062 L25.5469,1.64062 L25.5469,10 L25.0625,10 L25.0625,1.64062 M32.7969,6.75 L32.7969,7.0625 L28.2344,7.0625 C28.2344,8.02083 28.4219,8.69792 28.7969,9.09375 C29.2135,9.52083 29.8281,9.73438 30.6406,9.73438 C30.8594,9.73438 31.1458,9.6875 31.5,9.59375 C31.8542,9.5 32.2083,9.35938 32.5625,9.17188 L32.5625,9.6875 C32.2083,9.84375 31.8464,9.96094 31.4766,10.0391 C31.1068,10.1172 30.8125,10.1562 30.5938,10.1562 C29.6667,10.1562 28.9688,9.90625 28.5,9.40625 C27.9896,8.875 27.7344,8.09375 27.7344,7.0625 C27.7344,5.98958 27.9635,5.1875 28.4219,4.65625 C28.901,4.11458 29.5677,3.84375 30.4219,3.84375 C31.2031,3.84375 31.7969,4.10417 32.2031,4.625 C32.599,5.16667 32.7969,5.875 32.7969,6.75 M32.2969,6.64062 C32.2969,5.79688 32.1042,5.18229 31.7188,4.79688 C31.4062,4.45312 30.974,4.28125 30.4219,4.28125 C29.8281,4.28125 29.3281,4.45833 28.9219,4.8125 C28.5469,5.14583 28.3229,5.75521 28.25,6.64062 L32.2969,6.64062 M38.5938,9.09375 C39.0104,8.67708 39.2188,7.97917 39.2188,7 C39.2188,6.02083 39.0104,5.32292 38.5938,4.90625 C38.1771,4.48958 37.7396,4.28125 37.2812,4.28125 C36.8333,4.28125 36.401,4.48958 35.9844,4.90625 C35.5781,5.32292 35.375,6.02083 35.375,7 C35.375,7.97917 35.5781,8.67708 35.9844,9.09375 C36.401,9.51042 36.8333,9.71875 37.2812,9.71875 C37.7396,9.71875 38.1771,9.51042 38.5938,9.09375 M35.3594,5.35938 C35.5885,4.83854 35.8333,4.47917 36.0938,4.28125 C36.5,3.98958 36.8854,3.84375 37.25,3.84375 C37.9583,3.84375 38.5495,4.13281 39.0234,4.71094 C39.4974,5.28906 39.7344,6.05208 39.7344,7 C39.7344,7.94792 39.4974,8.71094 39.0234,9.28906 C38.5495,9.86719 37.9583,10.1562 37.25,10.1562 C36.8854,10.1562 36.5,10.0052 36.0938,9.70312 C35.8333,9.51562 35.5885,9.16146 35.3594,8.64062 L35.3594,10 L34.875,10 L34.875,1.64062 L35.3594,1.64062 L35.3594,5.35938 M45.4219,5.01562 C45.0677,4.52604 44.5833,4.28125 43.9688,4.28125 C43.3542,4.28125 42.8698,4.52604 42.5156,5.01562 C42.1615,5.49479 41.9844,6.15104 41.9844,6.98438 C41.9844,7.83854 42.1615,8.51042 42.5156,9 C42.8698,9.48958 43.3542,9.73438 43.9688,9.73438 C44.5833,9.73438 45.0677,9.48958 45.4219,9 C45.776,8.5 45.9531,7.82812 45.9531,6.98438 C45.9531,6.16146 45.776,5.50521 45.4219,5.01562 M43.9688,3.84375 C44.7292,3.84375 45.3333,4.13021 45.7812,4.70312 C46.2292,5.27604 46.4531,6.03646 46.4531,6.98438 C46.4531,7.97396 46.2292,8.75521 45.7812,9.32812 C45.3333,9.90104 44.7292,10.1875 43.9688,10.1875 C43.1875,10.1875 42.5729,9.90104 42.125,9.32812 C41.6875,8.75521 41.4688,7.97396 41.4688,6.98438 C41.4688,6.02604 41.6927,5.26302 42.1406,4.69531 C42.5885,4.1276 43.1979,3.84375 43.9688,3.84375 M49.0781,2.28125 L49.0781,3.98438 L51.1094,3.98438 L51.1094,4.40625 L49.0781,4.40625 L49.0781,8.01562 C49.0781,8.47396 49.1354,8.79688 49.25,8.98438 C49.5,9.38021 49.8594,9.57812 50.3281,9.57812 L51.1094,9.57812 L51.1094,10 L50.3438,10 C49.8542,10 49.4375,9.85677 49.0938,9.57031 C48.75,9.28385 48.5781,8.76562 48.5781,8.01562 L48.5781,4.40625 L47.8594,4.40625 L47.8594,3.98438 L48.5781,3.98438 L48.5781,2.28125 L49.0781,2.28125 M56.0938,5.67188 C56.5208,5.77604 56.8594,6.01042 57.1094,6.375 C57.349,6.71875 57.4688,7.15104 57.4688,7.67188 C57.4688,8.46354 57.2422,9.07552 56.7891,9.50781 C56.3359,9.9401 55.6094,10.1562 54.6094,10.1562 C54.2656,10.1562 53.9167,10.1042 53.5625,10 C53.2083,9.89583 52.8438,9.72917 52.4688,9.5 L52.4688,8.92188 C52.7708,9.18229 53.099,9.38021 53.4531,9.51562 C53.8073,9.65104 54.1719,9.71875 54.5469,9.71875 C55.3177,9.71875 55.9062,9.54167 56.3125,9.1875 C56.7188,8.84375 56.9219,8.33854 56.9219,7.67188 C56.9219,7.13021 56.7344,6.70312 56.3594,6.39062 C55.9844,6.08854 55.4583,5.9375 54.7812,5.9375 L53.8438,5.9375 L53.8438,5.48438 L54.8281,5.48438 C55.4427,5.48438 55.9167,5.35938 56.25,5.10938 C56.5729,4.85938 56.7344,4.5 56.7344,4.03125 C56.7344,3.46875 56.5677,3.03646 56.2344,2.73438 C55.8906,2.43229 55.4062,2.28125 54.7812,2.28125 C54.4896,2.28125 54.1719,2.33333 53.8281,2.4375 C53.4844,2.54167 53.1094,2.70312 52.7031,2.92188 L52.7031,2.375 C53.1198,2.19792 53.5052,2.06771 53.8594,1.98438 C54.224,1.89062 54.5625,1.83854 54.875,1.82812 C55.6979,1.82812 56.3073,2.01562 56.7031,2.39062 C57.0885,2.76562 57.2812,3.27604 57.2812,3.92188 C57.2812,4.33854 57.1771,4.70833 56.9688,5.03125 C56.7708,5.34375 56.4792,5.55729 56.0938,5.67188 M64.2188,12.1719 L64.2188,12.5938 L58.5,12.5938 L58.5,12.1719 L64.2188,12.1719 M69.4688,4.28125 L69.4688,4.79688 C69.1771,4.61979 68.9323,4.5 68.7344,4.4375 C68.401,4.33333 68.0833,4.28125 67.7812,4.28125 C66.9167,4.28125 66.2969,4.5026 65.9219,4.94531 C65.5469,5.38802 65.3594,6.07292 65.3594,7 C65.3594,7.9375 65.5469,8.6276 65.9219,9.07031 C66.2969,9.51302 66.9167,9.73438 67.7812,9.73438 C68.0729,9.73438 68.3542,9.69271 68.625,9.60938 C68.9167,9.53646 69.1979,9.42188 69.4688,9.26562 L69.4688,9.76562 C69.1979,9.90104 68.9167,10 68.625,10.0625 C68.3229,10.125 68.026,10.1562 67.7344,10.1562 C66.8594,10.1562 66.1615,9.91667 65.6406,9.4375 C65.1198,8.95833 64.8594,8.14323 64.8594,6.99219 C64.8594,5.84115 65.1198,5.02604 65.6406,4.54688 C66.1615,4.07812 66.8594,3.84375 67.7344,3.84375 C68.026,3.84375 68.3333,3.88542 68.6562,3.96875 C68.9792,4.04167 69.25,4.14583 69.4688,4.28125 M74.9844,5.01562 C74.6302,4.52604 74.1458,4.28125 73.5312,4.28125 C72.9167,4.28125 72.4323,4.52604 72.0781,5.01562 C71.724,5.49479 71.5469,6.15104 71.5469,6.98438 C71.5469,7.83854 71.724,8.51042 72.0781,9 C72.4323,9.48958 72.9167,9.73438 73.5312,9.73438 C74.1458,9.73438 74.6302,9.48958 74.9844,9 C75.3385,8.5 75.5156,7.82812 75.5156,6.98438 C75.5156,6.16146 75.3385,5.50521 74.9844,5.01562 M73.5312,3.84375 C74.2917,3.84375 74.8958,4.13021 75.3438,4.70312 C75.7917,5.27604 76.0156,6.03646 76.0156,6.98438 C76.0156,7.97396 75.7917,8.75521 75.3438,9.32812 C74.8958,9.90104 74.2917,10.1875 73.5312,10.1875 C72.75,10.1875 72.1354,9.90104 71.6875,9.32812 C71.25,8.75521 71.0312,7.97396 71.0312,6.98438 C71.0312,6.02604 71.2552,5.26302 71.7031,4.69531 C72.151,4.1276 72.7604,3.84375 73.5312,3.84375 M81.3906,4.40625 C81.3073,4.36458 81.1979,4.33333 81.0625,4.3125 C80.9375,4.29167 80.7865,4.28125 80.6094,4.28125 C79.9948,4.28125 79.4896,4.50521 79.0938,4.95312 C78.7708,5.31771 78.6094,5.94271 78.6094,6.82812 L78.6094,10 L78.125,10 L78.125,3.98438 L78.6094,3.98438 L78.6094,5.10938 C78.776,4.78646 79.0052,4.51562 79.2969,4.29688 C79.6927,3.99479 80.1615,3.84375 80.7031,3.84375 C80.849,3.84375 80.974,3.84896 81.0781,3.85938 C81.1823,3.85938 81.2865,3.86979 81.3906,3.89062 L81.3906,4.40625 M87.3281,6.75 L87.3281,7.0625 L82.7656,7.0625 C82.7656,8.02083 82.9531,8.69792 83.3281,9.09375 C83.7448,9.52083 84.3594,9.73438 85.1719,9.73438 C85.3906,9.73438 85.6771,9.6875 86.0312,9.59375 C86.3854,9.5 86.7396,9.35938 87.0938,9.17188 L87.0938,9.6875 C86.7396,9.84375 86.3776,9.96094 86.0078,10.0391 C85.638,10.1172 85.3438,10.1562 85.125,10.1562 C84.1979,10.1562 83.5,9.90625 83.0312,9.40625 C82.5208,8.875 82.2656,8.09375 82.2656,7.0625 C82.2656,5.98958 82.4948,5.1875 82.9531,4.65625 C83.4323,4.11458 84.099,3.84375 84.9531,3.84375 C85.7344,3.84375 86.3281,4.10417 86.7344,4.625 C87.1302,5.16667 87.3281,5.875 87.3281,6.75 M86.8281,6.64062 C86.8281,5.79688 86.6354,5.18229 86.25,4.79688 C85.9375,4.45312 85.5052,4.28125 84.9531,4.28125 C84.3594,4.28125 83.8594,4.45833 83.4531,4.8125 C83.0781,5.14583 82.8542,5.75521 82.7812,6.64062 L86.8281,6.64062"/>
</g>

<g fill="none" stroke="#000000" stroke-opacity="1" stroke-width="1" stroke-linecap="square" stroke-linejoin="bevel" transform="matrix(2,0,0,2,45.7349,131)"
font-family="sans" font-size="11" font-weight="100" font-style="normal" 
>
</g>

<g fill="none" stroke="#000000" stroke-opacity="1" stroke-width="1" stroke-linecap="square" stroke-linejoin="bevel" transform="matrix(2,0,0,2,45.7349,131)"
font-family="Ubuntu" font-size="11" font-weight="400" font-style="normal" 
>
</g>

<g fill="none" stroke="#000000" stroke-opacity="1" stroke-width="1" stroke-linecap="square" stroke-linejoin="bevel" transform="matrix(2,0,0,2,0.0032,288)"
font-family="Ubuntu" font-size="11" font-weight="400" font-style="normal" 
>
</g>

<g fill="none" stroke="#000000" stroke-opacity="1" stroke-width="1" stroke-linecap="square" stroke-linejoin="bevel" transform="matrix(2,0,0,2,0.0032,288)"
font-family="Ubuntu" font-size="11" font-weight="400" font-style="normal" 
>
</g>

<g fill="none" stroke="#000000" stroke-opacity="1" stroke-width="1" stroke-linecap="square" stroke-linejoin="bevel" transform="matrix(2,0,0,2,0.0032,288)"
font-family="Ubuntu" font-size="11" font-weight="400" font-style="normal" 
>
</g>

<g fill="none" stroke="#000000" stroke-opacity="1" stroke-width="1" stroke-linecap="square" stroke-linejoin="round" transform="matrix(2,0,0,2,0.0032,288)"
font-family="Ubuntu" font-size="11" font-weight="400" font-style="normal" 
>
<ellipse cx="369.88" cy="-72" rx="90.4936" ry="17.5"/>
</g>

<g fill="none" stroke="#000000" stroke-opacity="1" stroke-width="1" stroke-linecap="square" stroke-linejoin="bevel" transform="matrix(2,0,0,2,0.0032,288)"
font-family="Ubuntu" font-size="11" font-weight="400" font-style="normal" 
>
</g>

<g fill="none" stroke="#000000" stroke-opacity="1" stroke-width="1" stroke-linecap="square" stroke-linejoin="bevel" transform="matrix(2,0,0,2,613.779,131)"
font-family="Ubuntu" font-size="11" font-weight="400" font-style="normal" 
>
</g>

<g fill="none" stroke="#000000" stroke-opacity="1" stroke-width="1" stroke-linecap="square" stroke-linejoin="bevel" transform="matrix(2,0,0,2,613.779,131)"
font-family="sans" font-size="11" font-weight="100" font-style="normal" 
>
</g>

<g fill="#000000" fill-opacity="1" stroke="#000000" stroke-opacity="1" stroke-width="1" stroke-linecap="square" stroke-linejoin="round" transform="matrix(2,0,0,2,613.779,131)"
font-family="sans" font-size="11" font-weight="100" font-style="normal" 
>
<path vector-effect="none" fill-rule="nonzero" d="M2.96875,1.98438 L3.53125,1.98438 L0.734375,11.0156 L0.171875,11.0156 L2.96875,1.98438 M5.46875,2.28125 L5.46875,3.98438 L7.5,3.98438 L7.5,4.40625 L5.46875,4.40625 L5.46875,8.01562 C5.46875,8.47396 5.52604,8.79688 5.64062,8.98438 C5.89062,9.38021 6.25,9.57812 6.71875,9.57812 L7.5,9.57812 L7.5,10 L6.73438,10 C6.24479,10 5.82812,9.85677 5.48438,9.57031 C5.14062,9.28385 4.96875,8.76562 4.96875,8.01562 L4.96875,4.40625 L4.25,4.40625 L4.25,3.98438 L4.96875,3.98438 L4.96875,2.28125 L5.46875,2.28125 M9.20312,7.60938 L9.20312,3.98438 L9.6875,3.98438 L9.6875,7.57812 C9.6875,8.35938 9.8125,8.90885 10.0625,9.22656 C10.3125,9.54427 10.6823,9.70312 11.1719,9.70312 C11.7448,9.70312 12.2344,9.53125 12.6406,9.1875 C13.0469,8.84375 13.25,8.24479 13.25,7.39062 L13.25,3.98438 L13.7344,3.98438 L13.7344,10 L13.25,10 L13.25,8.875 C13.0729,9.23958 12.8385,9.51562 12.5469,9.70312 C12.1302,9.99479 11.6667,10.1406 11.1562,10.1406 C10.5625,10.1406 10.0885,9.9375 9.73438,9.53125 C9.38021,9.13542 9.20312,8.49479 9.20312,7.60938 M19.5,4.40625 C19.4167,4.36458 19.3073,4.33333 19.1719,4.3125 C19.0469,4.29167 18.8958,4.28125 18.7188,4.28125 C18.1042,4.28125 17.599,4.50521 17.2031,4.95312 C16.8802,5.31771 16.7188,5.94271 16.7188,6.82812 L16.7188,10 L16.2344,10 L16.2344,3.98438 L16.7188,3.98438 L16.7188,5.10938 C16.8854,4.78646 17.1146,4.51562 17.4062,4.29688 C17.8021,3.99479 18.2708,3.84375 18.8125,3.84375 C18.9583,3.84375 19.0833,3.84896 19.1875,3.85938 C19.2917,3.85938 19.3958,3.86979 19.5,3.89062 L19.5,4.40625 M21.2656,2.28125 L21.2656,3.98438 L23.2969,3.98438 L23.2969,4.40625 L21.2656,4.40625 L21.2656,8.01562 C21.2656,8.47396 21.3229,8.79688 21.4375,8.98438 C21.6875,9.38021 22.0469,9.57812 22.5156,9.57812 L23.2969,9.57812 L23.2969,10 L22.5312,10 C22.0417,10 21.625,9.85677 21.2812,9.57031 C20.9375,9.28385 20.7656,8.76562 20.7656,8.01562 L20.7656,4.40625 L20.0469,4.40625 L20.0469,3.98438 L20.7656,3.98438 L20.7656,2.28125 L21.2656,2.28125 M25.0625,1.64062 L25.5469,1.64062 L25.5469,10 L25.0625,10 L25.0625,1.64062 M32.7969,6.75 L32.7969,7.0625 L28.2344,7.0625 C28.2344,8.02083 28.4219,8.69792 28.7969,9.09375 C29.2135,9.52083 29.8281,9.73438 30.6406,9.73438 C30.8594,9.73438 31.1458,9.6875 31.5,9.59375 C31.8542,9.5 32.2083,9.35938 32.5625,9.17188 L32.5625,9.6875 C32.2083,9.84375 31.8464,9.96094 31.4766,10.0391 C31.1068,10.1172 30.8125,10.1562 30.5938,10.1562 C29.6667,10.1562 28.9688,9.90625 28.5,9.40625 C27.9896,8.875 27.7344,8.09375 27.7344,7.0625 C27.7344,5.98958 27.9635,5.1875 28.4219,4.65625 C28.901,4.11458 29.5677,3.84375 30.4219,3.84375 C31.2031,3.84375 31.7969,4.10417 32.2031,4.625 C32.599,5.16667 32.7969,5.875 32.7969,6.75 M32.2969,6.64062 C32.2969,5.79688 32.1042,5.18229 31.7188,4.79688 C31.4062,4.45312 30.974,4.28125 30.4219,4.28125 C29.8281,4.28125 29.3281,4.45833 28.9219,4.8125 C28.5469,5.14583 28.3229,5.75521 28.25,6.64062 L32.2969,6.64062 M38.5938,9.09375 C39.0104,8.67708 39.2188,7.97917 39.2188,7 C39.2188,6.02083 39.0104,5.32292 38.5938,4.90625 C38.1771,4.48958 37.7396,4.28125 37.2812,4.28125 C36.8333,4.28125 36.401,4.48958 35.9844,4.90625 C35.5781,5.32292 35.375,6.02083 35.375,7 C35.375,7.97917 35.5781,8.67708 35.9844,9.09375 C36.401,9.51042 36.8333,9.71875 37.2812,9.71875 C37.7396,9.71875 38.1771,9.51042 38.5938,9.09375 M35.3594,5.35938 C35.5885,4.83854 35.8333,4.47917 36.0938,4.28125 C36.5,3.98958 36.8854,3.84375 37.25,3.84375 C37.9583,3.84375 38.5495,4.13281 39.0234,4.71094 C39.4974,5.28906 39.7344,6.05208 39.7344,7 C39.7344,7.94792 39.4974,8.71094 39.0234,9.28906 C38.5495,9.86719 37.9583,10.1562 37.25,10.1562 C36.8854,10.1562 36.5,10.0052 36.0938,9.70312 C35.8333,9.51562 35.5885,9.16146 35.3594,8.64062 L35.3594,10 L34.875,10 L34.875,1.64062 L35.3594,1.64062 L35.3594,5.35938 M45.4219,5.01562 C45.0677,4.52604 44.5833,4.28125 43.9688,4.28125 C43.3542,4.28125 42.8698,4.52604 42.5156,5.01562 C42.1615,5.49479 41.9844,6.15104 41.9844,6.98438 C41.9844,7.83854 42.1615,8.51042 42.5156,9 C42.8698,9.48958 43.3542,9.73438 43.9688,9.73438 C44.5833,9.73438 45.0677,9.48958 45.4219,9 C45.776,8.5 45.9531,7.82812 45.9531,6.98438 C45.9531,6.16146 45.776,5.50521 45.4219,5.01562 M43.9688,3.84375 C44.7292,3.84375 45.3333,4.13021 45.7812,4.70312 C46.2292,5.27604 46.4531,6.03646 46.4531,6.98438 C46.4531,7.97396 46.2292,8.75521 45.7812,9.32812 C45.3333,9.90104 44.7292,10.1875 43.9688,10.1875 C43.1875,10.1875 42.5729,9.90104 42.125,9.32812 C41.6875,8.75521 41.4688,7.97396 41.4688,6.98438 C41.4688,6.02604 41.6927,5.26302 42.1406,4.69531 C42.5885,4.1276 43.1979,3.84375 43.9688,3.84375 M49.0781,2.28125 L49.0781,3.98438 L51.1094,3.98438 L51.1094,4.40625 L49.0781,4.40625 L49.0781,8.01562 C49.0781,8.47396 49.1354,8.79688 49.25,8.98438 C49.5,9.38021 49.8594,9.57812 50.3281,9.57812 L51.1094,9.57812 L51.1094,10 L50.3438,10 C49.8542,10 49.4375,9.85677 49.0938,9.57031 C48.75,9.28385 48.5781,8.76562 48.5781,8.01562 L48.5781,4.40625 L47.8594,4.40625 L47.8594,3.98438 L48.5781,3.98438 L48.5781,2.28125 L49.0781,2.28125 M56.0938,5.67188 C56.5208,5.77604 56.8594,6.01042 57.1094,6.375 C57.349,6.71875 57.4688,7.15104 57.4688,7.67188 C57.4688,8.46354 57.2422,9.07552 56.7891,9.50781 C56.3359,9.9401 55.6094,10.1562 54.6094,10.1562 C54.2656,10.1562 53.9167,10.1042 53.5625,10 C53.2083,9.89583 52.8438,9.72917 52.4688,9.5 L52.4688,8.92188 C52.7708,9.18229 53.099,9.38021 53.4531,9.51562 C53.8073,9.65104 54.1719,9.71875 54.5469,9.71875 C55.3177,9.71875 55.9062,9.54167 56.3125,9.1875 C56.7188,8.84375 56.9219,8.33854 56.9219,7.67188 C56.9219,7.13021 56.7344,6.70312 56.3594,6.39062 C55.9844,6.08854 55.4583,5.9375 54.7812,5.9375 L53.8438,5.9375 L53.8438,5.48438 L54.8281,5.48438 C55.4427,5.48438 55.9167,5.35938 56.25,5.10938 C56.5729,4.85938 56.7344,4.5 56.7344,4.03125 C56.7344,3.46875 56.5677,3.03646 56.2344,2.73438 C55.8906,2.43229 55.4062,2.28125 54.7812,2.28125 C54.4896,2.28125 54.1719,2.33333 53.8281,2.4375 C53.4844,2.54167 53.1094,2.70312 52.7031,2.92188 L52.7031,2.375 C53.1198,2.19792 53.5052,2.06771 53.8594,1.98438 C54.224,1.89062 54.5625,1.83854 54.875,1.82812 C55.6979,1.82812 56.3073,2.01562 56.7031,2.39062 C57.0885,2.76562 57.2812,3.27604 57.2812,3.92188 C57.2812,4.33854 57.1771,4.70833 56.9688,5.03125 C56.7708,5.34375 56.4792,5.55729 56.0938,5.67188 M64.2188,12.1719 L64.2188,12.5938 L58.5,12.5938 L58.5,12.1719 L64.2188,12.1719 M69.3594,5.35938 L69.3594,1.64062 L69.8281,1.64062 L69.8281,10 L69.3594,10 L69.3594,8.64062 C69.1302,9.16146 68.8802,9.51562 68.6094,9.70312 C68.2135,10.0052 67.8333,10.1562 67.4688,10.1562 C66.7604,10.1562 66.1693,9.86719 65.6953,9.28906 C65.2214,8.71094 64.9844,7.94792 64.9844,7 C64.9844,6.05208 65.2214,5.28906 65.6953,4.71094 C66.1693,4.13281 66.7604,3.84375 67.4688,3.84375 C67.8333,3.84375 68.2135,3.98958 68.6094,4.28125 C68.8802,4.47917 69.1302,4.83854 69.3594,5.35938 M66.125,4.90625 C65.7083,5.32292 65.5,6.02083 65.5,7 C65.5,7.97917 65.7083,8.67708 66.125,9.09375 C66.5417,9.51042 66.9792,9.71875 67.4375,9.71875 C67.8854,9.71875 68.3177,9.51042 68.7344,9.09375 C69.1406,8.67708 69.3438,7.97917 69.3438,7 C69.3438,6.02083 69.1406,5.32292 68.7344,4.90625 C68.3177,4.48958 67.8854,4.28125 67.4375,4.28125 C66.9792,4.28125 66.5417,4.48958 66.125,4.90625 M72.3125,3.98438 L72.8125,3.98438 L72.8125,10 L72.3125,10 L72.3125,3.98438 M72.3125,1.64062 L72.8125,1.64062 L72.8125,2.3125 L72.3125,2.3125 L72.3125,1.64062 M77.7812,6.60938 C76.9792,6.60938 76.4036,6.75 76.0547,7.03125 C75.7057,7.3125 75.5312,7.72396 75.5312,8.26562 C75.5312,8.79688 75.6771,9.17448 75.9688,9.39844 C76.2604,9.6224 76.6042,9.73438 77,9.73438 C77.75,9.73438 78.2917,9.41667 78.625,8.78125 C78.9583,8.13542 79.125,7.53125 79.125,6.96875 L79.125,6.60938 L77.7812,6.60938 M79.625,6.5625 L79.625,10 L79.125,10 L79.125,8.35938 C78.8542,9.16146 78.4896,9.67188 78.0312,9.89062 C77.6771,10.0677 77.3177,10.1562 76.9531,10.1562 C76.3594,10.1562 75.8906,9.99479 75.5469,9.67188 C75.2031,9.34896 75.0312,8.8776 75.0312,8.25781 C75.0312,7.63802 75.2552,7.14062 75.7031,6.76562 C76.151,6.39062 76.8802,6.20312 77.8906,6.20312 L79.125,6.20312 L79.125,6.10938 C79.125,5.57812 78.9688,5.14062 78.6562,4.79688 C78.3646,4.45312 77.8698,4.28125 77.1719,4.28125 C76.8281,4.28125 76.4792,4.34375 76.125,4.46875 C75.8958,4.55208 75.5938,4.71875 75.2188,4.96875 L75.2188,4.4375 C75.5417,4.23958 75.8438,4.09896 76.125,4.01562 C76.5208,3.90104 76.901,3.84375 77.2656,3.84375 C77.9844,3.84375 78.5729,4.05729 79.0312,4.48438 C79.4271,4.84896 79.625,5.54167 79.625,6.5625 M86.1094,6.92188 C86.1094,6.08854 85.9401,5.44271 85.6016,4.98438 C85.263,4.52604 84.7865,4.29688 84.1719,4.29688 C83.5677,4.29688 83.0964,4.52604 82.7578,4.98438 C82.4193,5.44271 82.25,6.08854 82.25,6.92188 C82.25,7.75521 82.4193,8.40104 82.7578,8.85938 C83.0964,9.31771 83.5677,9.54688 84.1719,9.54688 C84.7865,9.54688 85.263,9.31771 85.6016,8.85938 C85.9401,8.40104 86.1094,7.75521 86.1094,6.92188 M86.5938,9.25 C86.5938,10.5 86.3568,11.3177 85.8828,11.7031 C85.4089,12.0885 84.8073,12.2812 84.0781,12.2812 C83.724,12.2812 83.3958,12.2604 83.0938,12.2188 C82.7812,12.1562 82.4792,12.0729 82.1875,11.9688 L82.1875,11.4062 C82.4792,11.5625 82.7656,11.6797 83.0469,11.7578 C83.3281,11.8359 83.6198,11.875 83.9219,11.875 C84.5156,11.875 85.0286,11.7474 85.4609,11.4922 C85.8932,11.237 86.1094,10.5521 86.1094,9.4375 L86.1094,8.48438 C85.9531,8.90104 85.75,9.22917 85.5,9.46875 C85.1042,9.82292 84.6615,10 84.1719,10 C83.4115,10 82.8177,9.73177 82.3906,9.19531 C81.9635,8.65885 81.75,7.90104 81.75,6.92188 C81.75,5.94271 81.9635,5.1849 82.3906,4.64844 C82.8177,4.11198 83.4115,3.84375 84.1719,3.84375 C84.6615,3.84375 85.0781,3.99479 85.4219,4.29688 C85.6927,4.53646 85.9219,4.85938 86.1094,5.26562 L86.1094,3.98438 L86.5938,3.98438 L86.5938,9.25 M93.25,6.375 L93.25,10 L92.75,10 L92.75,6.40625 C92.75,5.625 92.625,5.07552 92.375,4.75781 C92.125,4.4401 91.7552,4.28125 91.2656,4.28125 C90.6927,4.28125 90.2083,4.45312 89.8125,4.79688 C89.3958,5.14062 89.1875,5.73958 89.1875,6.59375 L89.1875,10 L88.7031,10 L88.7031,3.98438 L89.1875,3.98438 L89.1875,5.10938 C89.3646,4.74479 89.599,4.46875 89.8906,4.28125 C90.3073,3.98958 90.7708,3.84375 91.2812,3.84375 C91.8854,3.84375 92.3646,4.04688 92.7188,4.45312 C93.0729,4.84896 93.25,5.48958 93.25,6.375 M99.25,5.01562 C98.8958,4.52604 98.4115,4.28125 97.7969,4.28125 C97.1823,4.28125 96.6979,4.52604 96.3438,5.01562 C95.9896,5.49479 95.8125,6.15104 95.8125,6.98438 C95.8125,7.83854 95.9896,8.51042 96.3438,9 C96.6979,9.48958 97.1823,9.73438 97.7969,9.73438 C98.4115,9.73438 98.8958,9.48958 99.25,9 C99.6042,8.5 99.7812,7.82812 99.7812,6.98438 C99.7812,6.16146 99.6042,5.50521 99.25,5.01562 M97.7969,3.84375 C98.5573,3.84375 99.1615,4.13021 99.6094,4.70312 C100.057,5.27604 100.281,6.03646 100.281,6.98438 C100.281,7.97396 100.057,8.75521 99.6094,9.32812 C99.1615,9.90104 98.5573,10.1875 97.7969,10.1875 C97.0156,10.1875 96.401,9.90104 95.9531,9.32812 C95.5156,8.75521 95.2969,7.97396 95.2969,6.98438 C95.2969,6.02604 95.5208,5.26302 95.9688,4.69531 C96.4167,4.1276 97.026,3.84375 97.7969,3.84375 M105.797,4.15625 L105.797,4.70312 C105.443,4.50521 105.224,4.39583 105.141,4.375 C104.891,4.32292 104.578,4.29167 104.203,4.28125 C103.641,4.28125 103.198,4.39062 102.875,4.60938 C102.625,4.79688 102.5,5.11458 102.5,5.5625 C102.5,5.875 102.62,6.11458 102.859,6.28125 C103.099,6.46875 103.448,6.61458 103.906,6.71875 L104.25,6.78125 C104.823,6.90625 105.255,7.08333 105.547,7.3125 C105.891,7.58333 106.068,7.92708 106.078,8.34375 C106.078,8.90625 105.911,9.34896 105.578,9.67188 C105.224,9.99479 104.646,10.1562 103.844,10.1562 C103.406,10.1562 103.073,10.125 102.844,10.0625 C102.562,9.98958 102.271,9.89583 101.969,9.78125 L101.969,9.15625 C102.406,9.40625 102.688,9.55208 102.812,9.59375 C103.167,9.6875 103.521,9.73438 103.875,9.73438 C104.448,9.73438 104.875,9.61458 105.156,9.375 C105.438,9.125 105.578,8.80729 105.578,8.42188 C105.578,8.08854 105.484,7.84896 105.297,7.70312 C105.026,7.48438 104.599,7.30729 104.016,7.17188 L103.672,7.09375 C103.161,6.96875 102.776,6.80208 102.516,6.59375 C102.182,6.32292 102.016,5.99479 102.016,5.60938 C102.016,4.98438 102.216,4.53385 102.617,4.25781 C103.018,3.98177 103.51,3.84375 104.094,3.84375 C104.594,3.84375 104.938,3.86979 105.125,3.92188 C105.354,3.98438 105.578,4.0625 105.797,4.15625 M108.625,2.28125 L108.625,3.98438 L110.656,3.98438 L110.656,4.40625 L108.625,4.40625 L108.625,8.01562 C108.625,8.47396 108.682,8.79688 108.797,8.98438 C109.047,9.38021 109.406,9.57812 109.875,9.57812 L110.656,9.57812 L110.656,10 L109.891,10 C109.401,10 108.984,9.85677 108.641,9.57031 C108.297,9.28385 108.125,8.76562 108.125,8.01562 L108.125,4.40625 L107.406,4.40625 L107.406,3.98438 L108.125,3.98438 L108.125,2.28125 L108.625,2.28125 M112.406,3.98438 L112.906,3.98438 L112.906,10 L112.406,10 L112.406,3.98438 M112.406,1.64062 L112.906,1.64062 L112.906,2.3125 L112.406,2.3125 L112.406,1.64062 M119.578,4.28125 L119.578,4.79688 C119.286,4.61979 119.042,4.5 118.844,4.4375 C118.51,4.33333 118.193,4.28125 117.891,4.28125 C117.026,4.28125 116.406,4.5026 116.031,4.94531 C115.656,5.38802 115.469,6.07292 115.469,7 C115.469,7.9375 115.656,8.6276 116.031,9.07031 C116.406,9.51302 117.026,9.73438 117.891,9.73438 C118.182,9.73438 118.464,9.69271 118.734,9.60938 C119.026,9.53646 119.307,9.42188 119.578,9.26562 L119.578,9.76562 C119.307,9.90104 119.026,10 118.734,10.0625 C118.432,10.125 118.135,10.1562 117.844,10.1562 C116.969,10.1562 116.271,9.91667 115.75,9.4375 C115.229,8.95833 114.969,8.14323 114.969,6.99219 C114.969,5.84115 115.229,5.02604 115.75,4.54688 C116.271,4.07812 116.969,3.84375 117.844,3.84375 C118.135,3.84375 118.443,3.88542 118.766,3.96875 C119.089,4.04167 119.359,4.14583 119.578,4.28125 M124.922,4.15625 L124.922,4.70312 C124.568,4.50521 124.349,4.39583 124.266,4.375 C124.016,4.32292 123.703,4.29167 123.328,4.28125 C122.766,4.28125 122.323,4.39062 122,4.60938 C121.75,4.79688 121.625,5.11458 121.625,5.5625 C121.625,5.875 121.745,6.11458 121.984,6.28125 C122.224,6.46875 122.573,6.61458 123.031,6.71875 L123.375,6.78125 C123.948,6.90625 124.38,7.08333 124.672,7.3125 C125.016,7.58333 125.193,7.92708 125.203,8.34375 C125.203,8.90625 125.036,9.34896 124.703,9.67188 C124.349,9.99479 123.771,10.1562 122.969,10.1562 C122.531,10.1562 122.198,10.125 121.969,10.0625 C121.688,9.98958 121.396,9.89583 121.094,9.78125 L121.094,9.15625 C121.531,9.40625 121.812,9.55208 121.938,9.59375 C122.292,9.6875 122.646,9.73438 123,9.73438 C123.573,9.73438 124,9.61458 124.281,9.375 C124.562,9.125 124.703,8.80729 124.703,8.42188 C124.703,8.08854 124.609,7.84896 124.422,7.70312 C124.151,7.48438 123.724,7.30729 123.141,7.17188 L122.797,7.09375 C122.286,6.96875 121.901,6.80208 121.641,6.59375 C121.307,6.32292 121.141,5.99479 121.141,5.60938 C121.141,4.98438 121.341,4.53385 121.742,4.25781 C122.143,3.98177 122.635,3.84375 123.219,3.84375 C123.719,3.84375 124.062,3.86979 124.25,3.92188 C124.479,3.98438 124.703,4.0625 124.922,4.15625 "/>
</g>

<g fill="none" stroke="#000000" stroke-opacity="1" stroke-width="1" stroke-linecap="square" stroke-linejoin="bevel" transform="matrix(2,0,0,2,613.779,131)"
font-family="sans" font-size="11" font-weight="100" font-style="normal" 
>
</g>

<g fill="none" stroke="#000000" stroke-opacity="1" stroke-width="1" stroke-linecap="square" stroke-linejoin="bevel" transform="matrix(2,0,0,2,613.779,131)"
font-family="Ubuntu" font-size="11" font-weight="400" font-style="normal" 
>
</g>

<g fill="none" stroke="#000000" stroke-opacity="1" stroke-width="1" stroke-linecap="square" stroke-linejoin="bevel" transform="matrix(2,0,0,2,0.0032,288)"
font-family="Ubuntu" font-size="11" font-weight="400" font-style="normal" 
>
</g>

<g fill="none" stroke="#000000" stroke-opacity="1" stroke-width="1" stroke-linecap="square" stroke-linejoin="bevel" transform="matrix(2,0,0,2,0.0032,288)"
font-family="Ubuntu" font-size="11" font-weight="400" font-style="normal" 
>
</g>

<g fill="none" stroke="#000000" stroke-opacity="1" stroke-width="1" stroke-linecap="square" stroke-linejoin="bevel" transform="matrix(2,0,0,2,0.0032,288)"
font-family="Ubuntu" font-size="11" font-weight="400" font-style="normal" 
>
</g>

<g fill="none" stroke="#000000" stroke-opacity="1" stroke-width="1" stroke-linecap="square" stroke-linejoin="round" transform="matrix(2,0,0,2,0.0032,288)"
font-family="Ubuntu" font-size="11" font-weight="400" font-style="normal" 
>
<rect x="148.39" y="-143.5" width="116" height="35"/>
</g>

<g fill="none" stroke="#000000" stroke-opacity="1" stroke-width="1" stroke-linecap="square" stroke-linejoin="bevel" transform="matrix(2,0,0,2,0.0032,288)"
font-family="Ubuntu" font-size="11" font-weight="400" font-style="normal" 
>
</g>

<g fill="none" stroke="#000000" stroke-opacity="1" stroke-width="1" stroke-linecap="square" stroke-linejoin="bevel" transform="matrix(2,0,0,2,314.221,23)"
font-family="Ubuntu" font-size="11" font-weight="400" font-style="normal" 
>
</g>

<g fill="none" stroke="#000000" stroke-opacity="1" stroke-width="1" stroke-linecap="square" stroke-linejoin="bevel" transform="matrix(2,0,0,2,314.221,23)"
font-family="sans" font-size="11" font-weight="100" font-style="normal" 
>
</g>

<g fill="#000000" fill-opacity="1" stroke="#000000" stroke-opacity="1" stroke-width="1" stroke-linecap="square" stroke-linejoin="round" transform="matrix(2,0,0,2,314.221,23)"
font-family="sans" font-size="11" font-weight="100" font-style="normal" 
>
<path vector-effect="none" fill-rule="nonzero" d="M2.96875,1.98438 L3.53125,1.98438 L0.734375,11.0156 L0.171875,11.0156 L2.96875,1.98438 M7.53125,1.64062 L7.53125,2.0625 L6.84375,2.0625 C6.47917,2.0625 6.19792,2.15625 6,2.34375 C5.76042,2.57292 5.64062,2.94271 5.64062,3.45312 L5.64062,3.98438 L7.26562,3.98438 L7.26562,4.40625 L5.64062,4.40625 L5.64062,10 L5.14062,10 L5.14062,4.40625 L4.20312,4.40625 L4.20312,3.98438 L5.14062,3.98438 L5.14062,3.5625 C5.14062,2.89583 5.29688,2.41146 5.60938,2.10938 C5.91146,1.79688 6.32292,1.64062 6.84375,1.64062 L7.53125,1.64062 M8.79688,3.98438 L9.29688,3.98438 L9.29688,10 L8.79688,10 L8.79688,3.98438 M8.79688,1.64062 L9.29688,1.64062 L9.29688,2.3125 L8.79688,2.3125 L8.79688,1.64062 M15.125,4.40625 C15.0417,4.36458 14.9323,4.33333 14.7969,4.3125 C14.6719,4.29167 14.5208,4.28125 14.3438,4.28125 C13.7292,4.28125 13.224,4.50521 12.8281,4.95312 C12.5052,5.31771 12.3438,5.94271 12.3438,6.82812 L12.3438,10 L11.8594,10 L11.8594,3.98438 L12.3438,3.98438 L12.3438,5.10938 C12.5104,4.78646 12.7396,4.51562 13.0312,4.29688 C13.4271,3.99479 13.8958,3.84375 14.4375,3.84375 C14.5833,3.84375 14.7083,3.84896 14.8125,3.85938 C14.9167,3.85938 15.0208,3.86979 15.125,3.89062 L15.125,4.40625 M20.7031,5.29688 C20.8906,4.80729 21.1823,4.44271 21.5781,4.20312 C21.9635,3.96354 22.4167,3.84375 22.9375,3.84375 C23.4583,3.84375 23.875,4.02604 24.1875,4.39062 C24.5104,4.75521 24.6719,5.41667 24.6719,6.375 L24.6719,10 L24.1875,10 L24.1875,6.40625 C24.1875,5.57292 24.0729,5.01042 23.8438,4.71875 C23.6146,4.42708 23.3073,4.28125 22.9219,4.28125 C22.3698,4.28125 21.8854,4.44792 21.4688,4.78125 C21,5.15625 20.7656,5.76042 20.7656,6.59375 L20.7656,10 L20.2812,10 L20.2812,6.40625 C20.2812,5.60417 20.1693,5.04948 19.9453,4.74219 C19.7214,4.4349 19.4115,4.28125 19.0156,4.28125 C18.4635,4.28125 17.9792,4.45312 17.5625,4.79688 C17.0938,5.16146 16.8594,5.76042 16.8594,6.59375 L16.8594,10 L16.375,10 L16.375,3.98438 L16.8594,3.98438 L16.8594,5.10938 C17.0365,4.71354 17.3125,4.40104 17.6875,4.17188 C18.0521,3.95312 18.5052,3.84375 19.0469,3.84375 C19.401,3.84375 19.7396,3.95833 20.0625,4.1875 C20.3125,4.375 20.526,4.74479 20.7031,5.29688 M26.5312,3.98438 L27.0312,3.98438 L28.4531,9.34375 L29.8438,3.98438 L30.4844,3.98438 L31.8906,9.375 L33.2969,3.98438 L33.8125,3.98438 L32.2344,10 L31.5469,10 L30.1562,4.71875 L28.7812,10 L28.1094,10 L26.5312,3.98438 M38.4688,6.60938 C37.6667,6.60938 37.0911,6.75 36.7422,7.03125 C36.3932,7.3125 36.2188,7.72396 36.2188,8.26562 C36.2188,8.79688 36.3646,9.17448 36.6562,9.39844 C36.9479,9.6224 37.2917,9.73438 37.6875,9.73438 C38.4375,9.73438 38.9792,9.41667 39.3125,8.78125 C39.6458,8.13542 39.8125,7.53125 39.8125,6.96875 L39.8125,6.60938 L38.4688,6.60938 M40.3125,6.5625 L40.3125,10 L39.8125,10 L39.8125,8.35938 C39.5417,9.16146 39.1771,9.67188 38.7188,9.89062 C38.3646,10.0677 38.0052,10.1562 37.6406,10.1562 C37.0469,10.1562 36.5781,9.99479 36.2344,9.67188 C35.8906,9.34896 35.7188,8.8776 35.7188,8.25781 C35.7188,7.63802 35.9427,7.14062 36.3906,6.76562 C36.8385,6.39062 37.5677,6.20312 38.5781,6.20312 L39.8125,6.20312 L39.8125,6.10938 C39.8125,5.57812 39.6562,5.14062 39.3438,4.79688 C39.0521,4.45312 38.5573,4.28125 37.8594,4.28125 C37.5156,4.28125 37.1667,4.34375 36.8125,4.46875 C36.5833,4.55208 36.2812,4.71875 35.9062,4.96875 L35.9062,4.4375 C36.2292,4.23958 36.5312,4.09896 36.8125,4.01562 C37.2083,3.90104 37.5885,3.84375 37.9531,3.84375 C38.6719,3.84375 39.2604,4.05729 39.7188,4.48438 C40.1146,4.84896 40.3125,5.54167 40.3125,6.5625 M46.0625,4.40625 C45.9792,4.36458 45.8698,4.33333 45.7344,4.3125 C45.6094,4.29167 45.4583,4.28125 45.2812,4.28125 C44.6667,4.28125 44.1615,4.50521 43.7656,4.95312 C43.4427,5.31771 43.2812,5.94271 43.2812,6.82812 L43.2812,10 L42.7969,10 L42.7969,3.98438 L43.2812,3.98438 L43.2812,5.10938 C43.4479,4.78646 43.6771,4.51562 43.9688,4.29688 C44.3646,3.99479 44.8333,3.84375 45.375,3.84375 C45.5208,3.84375 45.6458,3.84896 45.75,3.85938 C45.8542,3.85938 45.9583,3.86979 46.0625,3.89062 L46.0625,4.40625 M52,6.75 L52,7.0625 L47.4375,7.0625 C47.4375,8.02083 47.625,8.69792 48,9.09375 C48.4167,9.52083 49.0312,9.73438 49.8438,9.73438 C50.0625,9.73438 50.349,9.6875 50.7031,9.59375 C51.0573,9.5 51.4115,9.35938 51.7656,9.17188 L51.7656,9.6875 C51.4115,9.84375 51.0495,9.96094 50.6797,10.0391 C50.3099,10.1172 50.0156,10.1562 49.7969,10.1562 C48.8698,10.1562 48.1719,9.90625 47.7031,9.40625 C47.1927,8.875 46.9375,8.09375 46.9375,7.0625 C46.9375,5.98958 47.1667,5.1875 47.625,4.65625 C48.1042,4.11458 48.7708,3.84375 49.625,3.84375 C50.4062,3.84375 51,4.10417 51.4062,4.625 C51.8021,5.16667 52,5.875 52,6.75 M51.5,6.64062 C51.5,5.79688 51.3073,5.18229 50.9219,4.79688 C50.6094,4.45312 50.1771,4.28125 49.625,4.28125 C49.0312,4.28125 48.5312,4.45833 48.125,4.8125 C47.75,5.14583 47.526,5.75521 47.4531,6.64062 L51.5,6.64062 M58.4375,12.1719 L58.4375,12.5938 L52.7188,12.5938 L52.7188,12.1719 L58.4375,12.1719 M59.0312,3.98438 L59.5469,3.98438 L61.5781,9.45312 L63.625,3.98438 L64.1406,3.98438 L61.9062,10 L61.2656,10 L59.0312,3.98438 M70.7656,6.75 L70.7656,7.0625 L66.2031,7.0625 C66.2031,8.02083 66.3906,8.69792 66.7656,9.09375 C67.1823,9.52083 67.7969,9.73438 68.6094,9.73438 C68.8281,9.73438 69.1146,9.6875 69.4688,9.59375 C69.8229,9.5 70.1771,9.35938 70.5312,9.17188 L70.5312,9.6875 C70.1771,9.84375 69.8151,9.96094 69.4453,10.0391 C69.0755,10.1172 68.7812,10.1562 68.5625,10.1562 C67.6354,10.1562 66.9375,9.90625 66.4688,9.40625 C65.9583,8.875 65.7031,8.09375 65.7031,7.0625 C65.7031,5.98958 65.9323,5.1875 66.3906,4.65625 C66.8698,4.11458 67.5365,3.84375 68.3906,3.84375 C69.1719,3.84375 69.7656,4.10417 70.1719,4.625 C70.5677,5.16667 70.7656,5.875 70.7656,6.75 M70.2656,6.64062 C70.2656,5.79688 70.0729,5.18229 69.6875,4.79688 C69.375,4.45312 68.9427,4.28125 68.3906,4.28125 C67.7969,4.28125 67.2969,4.45833 66.8906,4.8125 C66.5156,5.14583 66.2917,5.75521 66.2188,6.64062 L70.2656,6.64062 M76.1094,4.40625 C76.026,4.36458 75.9167,4.33333 75.7812,4.3125 C75.6562,4.29167 75.5052,4.28125 75.3281,4.28125 C74.7135,4.28125 74.2083,4.50521 73.8125,4.95312 C73.4896,5.31771 73.3281,5.94271 73.3281,6.82812 L73.3281,10 L72.8438,10 L72.8438,3.98438 L73.3281,3.98438 L73.3281,5.10938 C73.4948,4.78646 73.724,4.51562 74.0156,4.29688 C74.4115,3.99479 74.8802,3.84375 75.4219,3.84375 C75.5677,3.84375 75.6927,3.84896 75.7969,3.85938 C75.901,3.85938 76.0052,3.86979 76.1094,3.89062 L76.1094,4.40625 M80.7656,4.15625 L80.7656,4.70312 C80.4115,4.50521 80.1927,4.39583 80.1094,4.375 C79.8594,4.32292 79.5469,4.29167 79.1719,4.28125 C78.6094,4.28125 78.1667,4.39062 77.8438,4.60938 C77.5938,4.79688 77.4688,5.11458 77.4688,5.5625 C77.4688,5.875 77.5885,6.11458 77.8281,6.28125 C78.0677,6.46875 78.4167,6.61458 78.875,6.71875 L79.2188,6.78125 C79.7917,6.90625 80.224,7.08333 80.5156,7.3125 C80.8594,7.58333 81.0365,7.92708 81.0469,8.34375 C81.0469,8.90625 80.8802,9.34896 80.5469,9.67188 C80.1927,9.99479 79.6146,10.1562 78.8125,10.1562 C78.375,10.1562 78.0417,10.125 77.8125,10.0625 C77.5312,9.98958 77.2396,9.89583 76.9375,9.78125 L76.9375,9.15625 C77.375,9.40625 77.6562,9.55208 77.7812,9.59375 C78.1354,9.6875 78.4896,9.73438 78.8438,9.73438 C79.4167,9.73438 79.8438,9.61458 80.125,9.375 C80.4062,9.125 80.5469,8.80729 80.5469,8.42188 C80.5469,8.08854 80.4531,7.84896 80.2656,7.70312 C79.9948,7.48438 79.5677,7.30729 78.9844,7.17188 L78.6406,7.09375 C78.1302,6.96875 77.7448,6.80208 77.4844,6.59375 C77.151,6.32292 76.9844,5.99479 76.9844,5.60938 C76.9844,4.98438 77.1849,4.53385 77.5859,4.25781 C77.987,3.98177 78.4792,3.84375 79.0625,3.84375 C79.5625,3.84375 79.9062,3.86979 80.0938,3.92188 C80.3229,3.98438 80.5469,4.0625 80.7656,4.15625 M83.0625,3.98438 L83.5625,3.98438 L83.5625,10 L83.0625,10 L83.0625,3.98438 M83.0625,1.64062 L83.5625,1.64062 L83.5625,2.3125 L83.0625,2.3125 L83.0625,1.64062 M89.7031,5.01562 C89.349,4.52604 88.8646,4.28125 88.25,4.28125 C87.6354,4.28125 87.151,4.52604 86.7969,5.01562 C86.4427,5.49479 86.2656,6.15104 86.2656,6.98438 C86.2656,7.83854 86.4427,8.51042 86.7969,9 C87.151,9.48958 87.6354,9.73438 88.25,9.73438 C88.8646,9.73438 89.349,9.48958 89.7031,9 C90.0573,8.5 90.2344,7.82812 90.2344,6.98438 C90.2344,6.16146 90.0573,5.50521 89.7031,5.01562 M88.25,3.84375 C89.0104,3.84375 89.6146,4.13021 90.0625,4.70312 C90.5104,5.27604 90.7344,6.03646 90.7344,6.98438 C90.7344,7.97396 90.5104,8.75521 90.0625,9.32812 C89.6146,9.90104 89.0104,10.1875 88.25,10.1875 C87.4688,10.1875 86.8542,9.90104 86.4062,9.32812 C85.9688,8.75521 85.75,7.97396 85.75,6.98438 C85.75,6.02604 85.974,5.26302 86.4219,4.69531 C86.8698,4.1276 87.4792,3.84375 88.25,3.84375 M97.3906,6.375 L97.3906,10 L96.8906,10 L96.8906,6.40625 C96.8906,5.625 96.7656,5.07552 96.5156,4.75781 C96.2656,4.4401 95.8958,4.28125 95.4062,4.28125 C94.8333,4.28125 94.349,4.45312 93.9531,4.79688 C93.5365,5.14062 93.3281,5.73958 93.3281,6.59375 L93.3281,10 L92.8438,10 L92.8438,3.98438 L93.3281,3.98438 L93.3281,5.10938 C93.5052,4.74479 93.7396,4.46875 94.0312,4.28125 C94.4479,3.98958 94.9115,3.84375 95.4219,3.84375 C96.026,3.84375 96.5052,4.04688 96.8594,4.45312 C97.2135,4.84896 97.3906,5.48958 97.3906,6.375 "/>
</g>

<g fill="none" stroke="#000000" stroke-opacity="1" stroke-width="1" stroke-linecap="square" stroke-linejoin="bevel" transform="matrix(2,0,0,2,314.221,23)"
font-family="sans" font-size="11" font-weight="100" font-style="normal" 
>
</g>

<g fill="none" stroke="#000000" stroke-opacity="1" stroke-width="1" stroke-linecap="square" stroke-linejoin="bevel" transform="matrix(2,0,0,2,314.221,23)"
font-family="Ubuntu" font-size="11" font-weight="400" font-style="normal" 
>
</g>

<g fill="none" stroke="#000000" stroke-opacity="1" stroke-width="1" stroke-linecap="square" stroke-linejoin="bevel" transform="matrix(2,0,0,2,0.0032,288)"
font-family="Ubuntu" font-size="11" font-weight="400" font-style="normal" 
>
</g>

<g fill="none" stroke="#000000" stroke-opacity="1" stroke-width="1" stroke-linecap="square" stroke-linejoin="bevel" transform="matrix(2,0,0,2,0.0032,288)"
font-family="Ubuntu" font-size="11" font-weight="400" font-style="normal" 
>
</g>

<g fill="none" stroke="#000000" stroke-opacity="1" stroke-width="1" stroke-linecap="square" stroke-linejoin="bevel" transform="matrix(2,0,0,2,0.0032,288)"
font-family="Ubuntu" font-size="11" font-weight="400" font-style="normal" 
>
</g>

<g fill="none" stroke="#000000" stroke-opacity="1" stroke-width="1" stroke-linecap="square" stroke-linejoin="round" transform="matrix(2,0,0,2,0.0032,288)"
font-family="Ubuntu" font-size="11" font-weight="400" font-style="normal" 
>
<rect x="163.892" y="-35.5" width="84.9968" height="35"/>
</g>

<g fill="none" stroke="#000000" stroke-opacity="1" stroke-width="1" stroke-linecap="square" stroke-linejoin="bevel" transform="matrix(2,0,0,2,0.0032,288)"
font-family="Ubuntu" font-size="11" font-weight="400" font-style="normal" 
>
</g>

<g fill="none" stroke="#000000" stroke-opacity="1" stroke-width="1" stroke-linecap="square" stroke-linejoin="bevel" transform="matrix(2,0,0,2,339.33,239)"
font-family="Ubuntu" font-size="11" font-weight="400" font-style="normal" 
>
</g>

<g fill="none" stroke="#000000" stroke-opacity="1" stroke-width="1" stroke-linecap="square" stroke-linejoin="bevel" transform="matrix(2,0,0,2,339.33,239)"
font-family="sans" font-size="11" font-weight="100" font-style="normal" 
>
</g>

<g fill="#000000" fill-opacity="1" stroke="#000000" stroke-opacity="1" stroke-width="1" stroke-linecap="square" stroke-linejoin="round" transform="matrix(2,0,0,2,339.33,239)"
font-family="sans" font-size="11" font-weight="100" font-style="normal" 
>
<path vector-effect="none" fill-rule="nonzero" d="M2.96875,1.98438 L3.53125,1.98438 L0.734375,11.0156 L0.171875,11.0156 L2.96875,1.98438 M8.35938,4.15625 L8.35938,4.70312 C8.00521,4.50521 7.78646,4.39583 7.70312,4.375 C7.45312,4.32292 7.14062,4.29167 6.76562,4.28125 C6.20312,4.28125 5.76042,4.39062 5.4375,4.60938 C5.1875,4.79688 5.0625,5.11458 5.0625,5.5625 C5.0625,5.875 5.18229,6.11458 5.42188,6.28125 C5.66146,6.46875 6.01042,6.61458 6.46875,6.71875 L6.8125,6.78125 C7.38542,6.90625 7.81771,7.08333 8.10938,7.3125 C8.45312,7.58333 8.63021,7.92708 8.64062,8.34375 C8.64062,8.90625 8.47396,9.34896 8.14062,9.67188 C7.78646,9.99479 7.20833,10.1562 6.40625,10.1562 C5.96875,10.1562 5.63542,10.125 5.40625,10.0625 C5.125,9.98958 4.83333,9.89583 4.53125,9.78125 L4.53125,9.15625 C4.96875,9.40625 5.25,9.55208 5.375,9.59375 C5.72917,9.6875 6.08333,9.73438 6.4375,9.73438 C7.01042,9.73438 7.4375,9.61458 7.71875,9.375 C8,9.125 8.14062,8.80729 8.14062,8.42188 C8.14062,8.08854 8.04688,7.84896 7.85938,7.70312 C7.58854,7.48438 7.16146,7.30729 6.57812,7.17188 L6.23438,7.09375 C5.72396,6.96875 5.33854,6.80208 5.07812,6.59375 C4.74479,6.32292 4.57812,5.99479 4.57812,5.60938 C4.57812,4.98438 4.77865,4.53385 5.17969,4.25781 C5.58073,3.98177 6.07292,3.84375 6.65625,3.84375 C7.15625,3.84375 7.5,3.86979 7.6875,3.92188 C7.91667,3.98438 8.14062,4.0625 8.35938,4.15625 M15.3594,6.75 L15.3594,7.0625 L10.7969,7.0625 C10.7969,8.02083 10.9844,8.69792 11.3594,9.09375 C11.776,9.52083 12.3906,9.73438 13.2031,9.73438 C13.4219,9.73438 13.7083,9.6875 14.0625,9.59375 C14.4167,9.5 14.7708,9.35938 15.125,9.17188 L15.125,9.6875 C14.7708,9.84375 14.4089,9.96094 14.0391,10.0391 C13.6693,10.1172 13.375,10.1562 13.1562,10.1562 C12.2292,10.1562 11.5312,9.90625 11.0625,9.40625 C10.5521,8.875 10.2969,8.09375 10.2969,7.0625 C10.2969,5.98958 10.526,5.1875 10.9844,4.65625 C11.4635,4.11458 12.1302,3.84375 12.9844,3.84375 C13.7656,3.84375 14.3594,4.10417 14.7656,4.625 C15.1615,5.16667 15.3594,5.875 15.3594,6.75 M14.8594,6.64062 C14.8594,5.79688 14.6667,5.18229 14.2812,4.79688 C13.9688,4.45312 13.5365,4.28125 12.9844,4.28125 C12.3906,4.28125 11.8906,4.45833 11.4844,4.8125 C11.1094,5.14583 10.8854,5.75521 10.8125,6.64062 L14.8594,6.64062 M21.9844,6.375 L21.9844,10 L21.4844,10 L21.4844,6.40625 C21.4844,5.625 21.3594,5.07552 21.1094,4.75781 C20.8594,4.4401 20.4896,4.28125 20,4.28125 C19.4271,4.28125 18.9427,4.45312 18.5469,4.79688 C18.1302,5.14062 17.9219,5.73958 17.9219,6.59375 L17.9219,10 L17.4375,10 L17.4375,3.98438 L17.9219,3.98438 L17.9219,5.10938 C18.099,4.74479 18.3333,4.46875 18.625,4.28125 C19.0417,3.98958 19.5052,3.84375 20.0156,3.84375 C20.6198,3.84375 21.099,4.04688 21.4531,4.45312 C21.8073,4.84896 21.9844,5.48958 21.9844,6.375 M27.8125,4.15625 L27.8125,4.70312 C27.4583,4.50521 27.2396,4.39583 27.1562,4.375 C26.9062,4.32292 26.5938,4.29167 26.2188,4.28125 C25.6562,4.28125 25.2135,4.39062 24.8906,4.60938 C24.6406,4.79688 24.5156,5.11458 24.5156,5.5625 C24.5156,5.875 24.6354,6.11458 24.875,6.28125 C25.1146,6.46875 25.4635,6.61458 25.9219,6.71875 L26.2656,6.78125 C26.8385,6.90625 27.2708,7.08333 27.5625,7.3125 C27.9062,7.58333 28.0833,7.92708 28.0938,8.34375 C28.0938,8.90625 27.9271,9.34896 27.5938,9.67188 C27.2396,9.99479 26.6615,10.1562 25.8594,10.1562 C25.4219,10.1562 25.0885,10.125 24.8594,10.0625 C24.5781,9.98958 24.2865,9.89583 23.9844,9.78125 L23.9844,9.15625 C24.4219,9.40625 24.7031,9.55208 24.8281,9.59375 C25.1823,9.6875 25.5365,9.73438 25.8906,9.73438 C26.4635,9.73438 26.8906,9.61458 27.1719,9.375 C27.4531,9.125 27.5938,8.80729 27.5938,8.42188 C27.5938,8.08854 27.5,7.84896 27.3125,7.70312 C27.0417,7.48438 26.6146,7.30729 26.0312,7.17188 L25.6875,7.09375 C25.1771,6.96875 24.7917,6.80208 24.5312,6.59375 C24.1979,6.32292 24.0312,5.99479 24.0312,5.60938 C24.0312,4.98438 24.2318,4.53385 24.6328,4.25781 C25.0339,3.98177 25.526,3.84375 26.1094,3.84375 C26.6094,3.84375 26.9531,3.86979 27.1406,3.92188 C27.3698,3.98438 27.5938,4.0625 27.8125,4.15625 M33.7031,5.01562 C33.349,4.52604 32.8646,4.28125 32.25,4.28125 C31.6354,4.28125 31.151,4.52604 30.7969,5.01562 C30.4427,5.49479 30.2656,6.15104 30.2656,6.98438 C30.2656,7.83854 30.4427,8.51042 30.7969,9 C31.151,9.48958 31.6354,9.73438 32.25,9.73438 C32.8646,9.73438 33.349,9.48958 33.7031,9 C34.0573,8.5 34.2344,7.82812 34.2344,6.98438 C34.2344,6.16146 34.0573,5.50521 33.7031,5.01562 M32.25,3.84375 C33.0104,3.84375 33.6146,4.13021 34.0625,4.70312 C34.5104,5.27604 34.7344,6.03646 34.7344,6.98438 C34.7344,7.97396 34.5104,8.75521 34.0625,9.32812 C33.6146,9.90104 33.0104,10.1875 32.25,10.1875 C31.4688,10.1875 30.8542,9.90104 30.4062,9.32812 C29.9688,8.75521 29.75,7.97396 29.75,6.98438 C29.75,6.02604 29.974,5.26302 30.4219,4.69531 C30.8698,4.1276 31.4792,3.84375 32.25,3.84375 M40.1094,4.40625 C40.026,4.36458 39.9167,4.33333 39.7812,4.3125 C39.6562,4.29167 39.5052,4.28125 39.3281,4.28125 C38.7135,4.28125 38.2083,4.50521 37.8125,4.95312 C37.4896,5.31771 37.3281,5.94271 37.3281,6.82812 L37.3281,10 L36.8438,10 L36.8438,3.98438 L37.3281,3.98438 L37.3281,5.10938 C37.4948,4.78646 37.724,4.51562 38.0156,4.29688 C38.4115,3.99479 38.8802,3.84375 39.4219,3.84375 C39.5677,3.84375 39.6927,3.84896 39.7969,3.85938 C39.901,3.85938 40.0052,3.86979 40.1094,3.89062 L40.1094,4.40625 M45.7188,12.1719 L45.7188,12.5938 L40,12.5938 L40,12.1719 L45.7188,12.1719 M50.2656,4.15625 L50.2656,4.70312 C49.9115,4.50521 49.6927,4.39583 49.6094,4.375 C49.3594,4.32292 49.0469,4.29167 48.6719,4.28125 C48.1094,4.28125 47.6667,4.39062 47.3438,4.60938 C47.0938,4.79688 46.9688,5.11458 46.9688,5.5625 C46.9688,5.875 47.0885,6.11458 47.3281,6.28125 C47.5677,6.46875 47.9167,6.61458 48.375,6.71875 L48.7188,6.78125 C49.2917,6.90625 49.724,7.08333 50.0156,7.3125 C50.3594,7.58333 50.5365,7.92708 50.5469,8.34375 C50.5469,8.90625 50.3802,9.34896 50.0469,9.67188 C49.6927,9.99479 49.1146,10.1562 48.3125,10.1562 C47.875,10.1562 47.5417,10.125 47.3125,10.0625 C47.0312,9.98958 46.7396,9.89583 46.4375,9.78125 L46.4375,9.15625 C46.875,9.40625 47.1562,9.55208 47.2812,9.59375 C47.6354,9.6875 47.9896,9.73438 48.3438,9.73438 C48.9167,9.73438 49.3438,9.61458 49.625,9.375 C49.9062,9.125 50.0469,8.80729 50.0469,8.42188 C50.0469,8.08854 49.9531,7.84896 49.7656,7.70312 C49.4948,7.48438 49.0677,7.30729 48.4844,7.17188 L48.1406,7.09375 C47.6302,6.96875 47.2448,6.80208 46.9844,6.59375 C46.651,6.32292 46.4844,5.99479 46.4844,5.60938 C46.4844,4.98438 46.6849,4.53385 47.0859,4.25781 C47.487,3.98177 47.9792,3.84375 48.5625,3.84375 C49.0625,3.84375 49.4062,3.86979 49.5938,3.92188 C49.8229,3.98438 50.0469,4.0625 50.2656,4.15625 M53.0938,2.28125 L53.0938,3.98438 L55.125,3.98438 L55.125,4.40625 L53.0938,4.40625 L53.0938,8.01562 C53.0938,8.47396 53.151,8.79688 53.2656,8.98438 C53.5156,9.38021 53.875,9.57812 54.3438,9.57812 L55.125,9.57812 L55.125,10 L54.3594,10 C53.8698,10 53.4531,9.85677 53.1094,9.57031 C52.7656,9.28385 52.5938,8.76562 52.5938,8.01562 L52.5938,4.40625 L51.875,4.40625 L51.875,3.98438 L52.5938,3.98438 L52.5938,2.28125 L53.0938,2.28125 M59.2969,6.60938 C58.4948,6.60938 57.9193,6.75 57.5703,7.03125 C57.2214,7.3125 57.0469,7.72396 57.0469,8.26562 C57.0469,8.79688 57.1927,9.17448 57.4844,9.39844 C57.776,9.6224 58.1198,9.73438 58.5156,9.73438 C59.2656,9.73438 59.8073,9.41667 60.1406,8.78125 C60.474,8.13542 60.6406,7.53125 60.6406,6.96875 L60.6406,6.60938 L59.2969,6.60938 M61.1406,6.5625 L61.1406,10 L60.6406,10 L60.6406,8.35938 C60.3698,9.16146 60.0052,9.67188 59.5469,9.89062 C59.1927,10.0677 58.8333,10.1562 58.4688,10.1562 C57.875,10.1562 57.4062,9.99479 57.0625,9.67188 C56.7188,9.34896 56.5469,8.8776 56.5469,8.25781 C56.5469,7.63802 56.7708,7.14062 57.2188,6.76562 C57.6667,6.39062 58.3958,6.20312 59.4062,6.20312 L60.6406,6.20312 L60.6406,6.10938 C60.6406,5.57812 60.4844,5.14062 60.1719,4.79688 C59.8802,4.45312 59.3854,4.28125 58.6875,4.28125 C58.3438,4.28125 57.9948,4.34375 57.6406,4.46875 C57.4115,4.55208 57.1094,4.71875 56.7344,4.96875 L56.7344,4.4375 C57.0573,4.23958 57.3594,4.09896 57.6406,4.01562 C58.0365,3.90104 58.4167,3.84375 58.7812,3.84375 C59.5,3.84375 60.0885,4.05729 60.5469,4.48438 C60.9427,4.84896 61.1406,5.54167 61.1406,6.5625 M64.1406,2.28125 L64.1406,3.98438 L66.1719,3.98438 L66.1719,4.40625 L64.1406,4.40625 L64.1406,8.01562 C64.1406,8.47396 64.1979,8.79688 64.3125,8.98438 C64.5625,9.38021 64.9219,9.57812 65.3906,9.57812 L66.1719,9.57812 L66.1719,10 L65.4062,10 C64.9167,10 64.5,9.85677 64.1562,9.57031 C63.8125,9.28385 63.6406,8.76562 63.6406,8.01562 L63.6406,4.40625 L62.9219,4.40625 L62.9219,3.98438 L63.6406,3.98438 L63.6406,2.28125 L64.1406,2.28125 M72.625,6.75 L72.625,7.0625 L68.0625,7.0625 C68.0625,8.02083 68.25,8.69792 68.625,9.09375 C69.0417,9.52083 69.6562,9.73438 70.4688,9.73438 C70.6875,9.73438 70.974,9.6875 71.3281,9.59375 C71.6823,9.5 72.0365,9.35938 72.3906,9.17188 L72.3906,9.6875 C72.0365,9.84375 71.6745,9.96094 71.3047,10.0391 C70.9349,10.1172 70.6406,10.1562 70.4219,10.1562 C69.4948,10.1562 68.7969,9.90625 68.3281,9.40625 C67.8177,8.875 67.5625,8.09375 67.5625,7.0625 C67.5625,5.98958 67.7917,5.1875 68.25,4.65625 C68.7292,4.11458 69.3958,3.84375 70.25,3.84375 C71.0312,3.84375 71.625,4.10417 72.0312,4.625 C72.4271,5.16667 72.625,5.875 72.625,6.75 M72.125,6.64062 C72.125,5.79688 71.9323,5.18229 71.5469,4.79688 C71.2344,4.45312 70.8021,4.28125 70.25,4.28125 C69.6562,4.28125 69.1562,4.45833 68.75,4.8125 C68.375,5.14583 68.151,5.75521 68.0781,6.64062 L72.125,6.64062"/>
</g>

<g fill="none" stroke="#000000" stroke-opacity="1" stroke-width="1" stroke-linecap="square" stroke-linejoin="bevel" transform="matrix(2,0,0,2,339.33,239)"
font-family="sans" font-size="11" font-weight="100" font-style="normal" 
>
</g>

<g fill="none" stroke="#000000" stroke-opacity="1" stroke-width="1" stroke-linecap="square" stroke-linejoin="bevel" transform="matrix(2,0,0,2,339.33,239)"
font-family="Ubuntu" font-size="11" font-weight="400" font-style="normal" 
>
</g>

<g fill="none" stroke="#000000" stroke-opacity="1" stroke-width="1" stroke-linecap="square" stroke-linejoin="bevel" transform="matrix(2,0,0,2,0.0032,288)"
font-family="Ubuntu" font-size="11" font-weight="400" font-style="normal" 
>
</g>

<g fill="none" stroke="#000000" stroke-opacity="1" stroke-width="1" stroke-linecap="square" stroke-linejoin="bevel" transform="matrix(2,0,0,2,0.0032,288)"
font-family="Ubuntu" font-size="11" font-weight="400" font-style="normal" 
>
</g>

<g fill="none" stroke="#000000" stroke-opacity="1" stroke-width="1" stroke-linecap="square" stroke-linejoin="bevel" transform="matrix(2,0,0,2,0.0032,288)"
font-family="Ubuntu" font-size="11" font-weight="400" font-style="normal" 
>
</g>

<g fill="none" stroke="#000000" stroke-opacity="1" stroke-width="1" stroke-linecap="square" stroke-linejoin="round" transform="matrix(2,0,0,2,0.0032,288)"
font-family="Ubuntu" font-size="11" font-weight="400" font-style="normal" 
>
<rect x="179.89" y="-89.5" width="53" height="35"/>
</g>

<g fill="none" stroke="#000000" stroke-opacity="1" stroke-width="1" stroke-linecap="square" stroke-linejoin="bevel" transform="matrix(2,0,0,2,0.0032,288)"
font-family="Ubuntu" font-size="11" font-weight="400" font-style="normal" 
>
</g>

<g fill="none" stroke="#000000" stroke-opacity="1" stroke-width="1" stroke-linecap="square" stroke-linejoin="bevel" transform="matrix(2,0,0,2,388.361,131)"
font-family="Ubuntu" font-size="11" font-weight="400" font-style="normal" 
>
</g>

<g fill="none" stroke="#000000" stroke-opacity="1" stroke-width="1" stroke-linecap="square" stroke-linejoin="bevel" transform="matrix(2,0,0,2,388.361,131)"
font-family="sans" font-size="11" font-weight="100" font-style="normal" 
>
</g>

<g fill="#000000" fill-opacity="1" stroke="#000000" stroke-opacity="1" stroke-width="1" stroke-linecap="square" stroke-linejoin="round" transform="matrix(2,0,0,2,388.361,131)"
font-family="sans" font-size="11" font-weight="100" font-style="normal" 
>
<path vector-effect="none" fill-rule="nonzero" d="M2.96875,1.98438 L3.53125,1.98438 L0.734375,11.0156 L0.171875,11.0156 L2.96875,1.98438 M4.9375,3.98438 L5.4375,3.98438 L5.4375,10 L4.9375,10 L4.9375,3.98438 M4.9375,1.64062 L5.4375,1.64062 L5.4375,2.3125 L4.9375,2.3125 L4.9375,1.64062 M12.3281,5.29688 C12.5156,4.80729 12.8073,4.44271 13.2031,4.20312 C13.5885,3.96354 14.0417,3.84375 14.5625,3.84375 C15.0833,3.84375 15.5,4.02604 15.8125,4.39062 C16.1354,4.75521 16.2969,5.41667 16.2969,6.375 L16.2969,10 L15.8125,10 L15.8125,6.40625 C15.8125,5.57292 15.6979,5.01042 15.4688,4.71875 C15.2396,4.42708 14.9323,4.28125 14.5469,4.28125 C13.9948,4.28125 13.5104,4.44792 13.0938,4.78125 C12.625,5.15625 12.3906,5.76042 12.3906,6.59375 L12.3906,10 L11.9062,10 L11.9062,6.40625 C11.9062,5.60417 11.7943,5.04948 11.5703,4.74219 C11.3464,4.4349 11.0365,4.28125 10.6406,4.28125 C10.0885,4.28125 9.60417,4.45312 9.1875,4.79688 C8.71875,5.16146 8.48438,5.76042 8.48438,6.59375 L8.48438,10 L8,10 L8,3.98438 L8.48438,3.98438 L8.48438,5.10938 C8.66146,4.71354 8.9375,4.40104 9.3125,4.17188 C9.67708,3.95312 10.1302,3.84375 10.6719,3.84375 C11.026,3.84375 11.3646,3.95833 11.6875,4.1875 C11.9375,4.375 12.151,4.74479 12.3281,5.29688 M18.6406,7.60938 L18.6406,3.98438 L19.125,3.98438 L19.125,7.57812 C19.125,8.35938 19.25,8.90885 19.5,9.22656 C19.75,9.54427 20.1198,9.70312 20.6094,9.70312 C21.1823,9.70312 21.6719,9.53125 22.0781,9.1875 C22.4844,8.84375 22.6875,8.24479 22.6875,7.39062 L22.6875,3.98438 L23.1719,3.98438 L23.1719,10 L22.6875,10 L22.6875,8.875 C22.5104,9.23958 22.276,9.51562 21.9844,9.70312 C21.5677,9.99479 21.1042,10.1406 20.5938,10.1406 C20,10.1406 19.526,9.9375 19.1719,9.53125 C18.8177,9.13542 18.6406,8.49479 18.6406,7.60938 "/>
</g>

<g fill="none" stroke="#000000" stroke-opacity="1" stroke-width="1" stroke-linecap="square" stroke-linejoin="bevel" transform="matrix(2,0,0,2,388.361,131)"
font-family="sans" font-size="11" font-weight="100" font-style="normal" 
>
</g>

<g fill="none" stroke="#000000" stroke-opacity="1" stroke-width="1" stroke-linecap="square" stroke-linejoin="bevel" transform="matrix(2,0,0,2,388.361,131)"
font-family="Ubuntu" font-size="11" font-weight="400" font-style="normal" 
>
</g>

<g fill="none" stroke="#000000" stroke-opacity="1" stroke-width="1" stroke-linecap="square" stroke-linejoin="bevel" transform="matrix(2,0,0,2,0.0032,288)"
font-family="Ubuntu" font-size="11" font-weight="400" font-style="normal" 
>
</g>

<g fill="none" stroke="#000000" stroke-opacity="1" stroke-width="1" stroke-linecap="square" stroke-linejoin="bevel" transform="matrix(2,0,0,2,0.0032,288)"
font-family="Ubuntu" font-size="11" font-weight="400" font-style="normal" 
>
</g>

<g fill="none" stroke="#000000" stroke-opacity="1" stroke-width="1" stroke-linecap="square" stroke-linejoin="bevel" transform="matrix(2,0,0,2,0.0032,288)"
font-family="Ubuntu" font-size="11" font-weight="400" font-style="normal" 
>
</g>

<g fill="none" stroke="#000000" stroke-opacity="1" stroke-width="1" stroke-linecap="square" stroke-linejoin="round" transform="matrix(2,0,0,2,0.0032,288)"
font-family="Ubuntu" font-size="11" font-weight="400" font-style="normal" 
>
<path vector-effect="none" fill-rule="evenodd" d="M134.25,-72 C146.2,-72 158.24,-72 168.93,-72 "/>
</g>

<g fill="none" stroke="#000000" stroke-opacity="1" stroke-width="1" stroke-linecap="square" stroke-linejoin="bevel" transform="matrix(2,0,0,2,0.0032,288)"
font-family="Ubuntu" font-size="11" font-weight="400" font-style="normal" 
>
</g>

<g fill="none" stroke="#000000" stroke-opacity="1" stroke-width="1" stroke-linecap="square" stroke-linejoin="bevel" transform="matrix(2,0,0,2,0.0032,288)"
font-family="Ubuntu" font-size="11" font-weight="400" font-style="normal" 
>
</g>

<g fill="#000000" fill-opacity="1" stroke="#000000" stroke-opacity="1" stroke-width="1" stroke-linecap="square" stroke-linejoin="round" transform="matrix(2,0,0,2,0.0032,288)"
font-family="Ubuntu" font-size="11" font-weight="400" font-style="normal" 
>
<path vector-effect="none" fill-rule="evenodd" d="M168.93,-72 L168.93,-68.4335 L179.12,-72 L168.93,-75.5665 L168.93,-72"/>
</g>

<g fill="none" stroke="#000000" stroke-opacity="1" stroke-width="1" stroke-linecap="square" stroke-linejoin="bevel" transform="matrix(2,0,0,2,0.0032,288)"
font-family="Ubuntu" font-size="11" font-weight="400" font-style="normal" 
>
</g>

<g fill="none" stroke="#000000" stroke-opacity="1" stroke-width="1" stroke-linecap="square" stroke-linejoin="bevel" transform="matrix(2,0,0,2,0.0032,288)"
font-family="Ubuntu" font-size="11" font-weight="400" font-style="normal" 
>
</g>

<g fill="none" stroke="#000000" stroke-opacity="1" stroke-width="1" stroke-linecap="square" stroke-linejoin="bevel" transform="matrix(2,0,0,2,0.0032,288)"
font-family="Ubuntu" font-size="11" font-weight="400" font-style="normal" 
>
</g>

<g fill="none" stroke="#000000" stroke-opacity="1" stroke-width="1" stroke-linecap="square" stroke-linejoin="bevel" transform="matrix(2,0,0,2,0.0032,288)"
font-family="Ubuntu" font-size="11" font-weight="400" font-style="normal" 
>
</g>

<g fill="none" stroke="#000000" stroke-opacity="1" stroke-width="1" stroke-linecap="square" stroke-linejoin="round" transform="matrix(2,0,0,2,0.0032,288)"
font-family="Ubuntu" font-size="11" font-weight="400" font-style="normal" 
>
<path vector-effect="none" fill-rule="evenodd" d="M105.5,-57.244 C120.25,-51.452 137.42,-44.705 153.32,-38.456 "/>
</g>

<g fill="none" stroke="#000000" stroke-opacity="1" stroke-width="1" stroke-linecap="square" stroke-linejoin="bevel" transform="matrix(2,0,0,2,0.0032,288)"
font-family="Ubuntu" font-size="11" font-weight="400" font-style="normal" 
>
</g>

<g fill="none" stroke="#000000" stroke-opacity="1" stroke-width="1" stroke-linecap="square" stroke-linejoin="bevel" transform="matrix(2,0,0,2,0.0032,288)"
font-family="Ubuntu" font-size="11" font-weight="400" font-style="normal" 
>
</g>

<g fill="#000000" fill-opacity="1" stroke="#000000" stroke-opacity="1" stroke-width="1" stroke-linecap="square" stroke-linejoin="round" transform="matrix(2,0,0,2,0.0032,288)"
font-family="Ubuntu" font-size="11" font-weight="400" font-style="normal" 
>
<path vector-effect="none" fill-rule="evenodd" d="M153.32,-38.456 L151.985,-35.0575 L163.03,-34.642 L154.655,-41.8545 L153.32,-38.456"/>
</g>

<g fill="none" stroke="#000000" stroke-opacity="1" stroke-width="1" stroke-linecap="square" stroke-linejoin="bevel" transform="matrix(2,0,0,2,0.0032,288)"
font-family="Ubuntu" font-size="11" font-weight="400" font-style="normal" 
>
</g>

<g fill="none" stroke="#000000" stroke-opacity="1" stroke-width="1" stroke-linecap="square" stroke-linejoin="bevel" transform="matrix(2,0,0,2,0.0032,288)"
font-family="Ubuntu" font-size="11" font-weight="400" font-style="normal" 
>
</g>

<g fill="none" stroke="#000000" stroke-opacity="1" stroke-width="1" stroke-linecap="square" stroke-linejoin="bevel" transform="matrix(2,0,0,2,0.0032,288)"
font-family="Ubuntu" font-size="11" font-weight="400" font-style="normal" 
>
</g>

<g fill="none" stroke="#000000" stroke-opacity="1" stroke-width="1" stroke-linecap="square" stroke-linejoin="bevel" transform="matrix(2,0,0,2,0.0032,288)"
font-family="Ubuntu" font-size="11" font-weight="400" font-style="normal" 
>
</g>

<g fill="none" stroke="#000000" stroke-opacity="1" stroke-width="1" stroke-linecap="square" stroke-linejoin="round" transform="matrix(2,0,0,2,0.0032,288)"
font-family="Ubuntu" font-size="11" font-weight="400" font-style="normal" 
>
<path vector-effect="none" fill-rule="evenodd" d="M105.5,-86.756 C119.19,-92.135 134.98,-98.337 149.9,-104.2 "/>
</g>

<g fill="none" stroke="#000000" stroke-opacity="1" stroke-width="1" stroke-linecap="square" stroke-linejoin="bevel" transform="matrix(2,0,0,2,0.0032,288)"
font-family="Ubuntu" font-size="11" font-weight="400" font-style="normal" 
>
</g>

<g fill="none" stroke="#000000" stroke-opacity="1" stroke-width="1" stroke-linecap="square" stroke-linejoin="bevel" transform="matrix(2,0,0,2,0.0032,288)"
font-family="Ubuntu" font-size="11" font-weight="400" font-style="normal" 
>
</g>

<g fill="#000000" fill-opacity="1" stroke="#000000" stroke-opacity="1" stroke-width="1" stroke-linecap="square" stroke-linejoin="round" transform="matrix(2,0,0,2,0.0032,288)"
font-family="Ubuntu" font-size="11" font-weight="400" font-style="normal" 
>
<path vector-effect="none" fill-rule="evenodd" d="M149.9,-104.2 L151.227,-100.823 L159.55,-107.99 L148.573,-107.578 L149.9,-104.2"/>
</g>

<g fill="none" stroke="#000000" stroke-opacity="1" stroke-width="1" stroke-linecap="square" stroke-linejoin="bevel" transform="matrix(2,0,0,2,0.0032,288)"
font-family="Ubuntu" font-size="11" font-weight="400" font-style="normal" 
>
</g>

<g fill="none" stroke="#000000" stroke-opacity="1" stroke-width="1" stroke-linecap="square" stroke-linejoin="bevel" transform="matrix(2,0,0,2,0.0032,288)"
font-family="Ubuntu" font-size="11" font-weight="400" font-style="normal" 
>
</g>

<g fill="none" stroke="#000000" stroke-opacity="1" stroke-width="1" stroke-linecap="square" stroke-linejoin="bevel" transform="matrix(2,0,0,2,0.0032,288)"
font-family="Ubuntu" font-size="11" font-weight="400" font-style="normal" 
>
</g>

<g fill="none" stroke="#000000" stroke-opacity="1" stroke-width="1" stroke-linecap="square" stroke-linejoin="bevel" transform="matrix(2,0,0,2,0.0032,288)"
font-family="Ubuntu" font-size="11" font-weight="400" font-style="normal" 
>
</g>

<g fill="none" stroke="#000000" stroke-opacity="1" stroke-width="1" stroke-linecap="square" stroke-linejoin="round" transform="matrix(2,0,0,2,0.0032,288)"
font-family="Ubuntu" font-size="11" font-weight="400" font-style="normal" 
>
<path vector-effect="none" fill-rule="evenodd" d="M249.4,-32.047 C268.76,-38.521 292.02,-46.298 312.85,-53.263 "/>
</g>

<g fill="none" stroke="#000000" stroke-opacity="1" stroke-width="1" stroke-linecap="square" stroke-linejoin="bevel" transform="matrix(2,0,0,2,0.0032,288)"
font-family="Ubuntu" font-size="11" font-weight="400" font-style="normal" 
>
</g>

<g fill="none" stroke="#000000" stroke-opacity="1" stroke-width="1" stroke-linecap="square" stroke-linejoin="bevel" transform="matrix(2,0,0,2,0.0032,288)"
font-family="Ubuntu" font-size="11" font-weight="400" font-style="normal" 
>
</g>

<g fill="#000000" fill-opacity="1" stroke="#000000" stroke-opacity="1" stroke-width="1" stroke-linecap="square" stroke-linejoin="round" transform="matrix(2,0,0,2,0.0032,288)"
font-family="Ubuntu" font-size="11" font-weight="400" font-style="normal" 
>
<path vector-effect="none" fill-rule="evenodd" d="M312.85,-53.263 L313.984,-49.8715 L322.54,-56.503 L311.716,-56.6545 L312.85,-53.263"/>
</g>

<g fill="none" stroke="#000000" stroke-opacity="1" stroke-width="1" stroke-linecap="square" stroke-linejoin="bevel" transform="matrix(2,0,0,2,0.0032,288)"
font-family="Ubuntu" font-size="11" font-weight="400" font-style="normal" 
>
</g>

<g fill="none" stroke="#000000" stroke-opacity="1" stroke-width="1" stroke-linecap="square" stroke-linejoin="bevel" transform="matrix(2,0,0,2,0.0032,288)"
font-family="Ubuntu" font-size="11" font-weight="400" font-style="normal" 
>
</g>

<g fill="none" stroke="#000000" stroke-opacity="1" stroke-width="1" stroke-linecap="square" stroke-linejoin="bevel" transform="matrix(2,0,0,2,0.0032,288)"
font-family="Ubuntu" font-size="11" font-weight="400" font-style="normal" 
>
</g>

<g fill="none" stroke="#000000" stroke-opacity="1" stroke-width="1" stroke-linecap="square" stroke-linejoin="bevel" transform="matrix(2,0,0,2,0.0032,288)"
font-family="Ubuntu" font-size="11" font-weight="400" font-style="normal" 
>
</g>

<g fill="none" stroke="#000000" stroke-opacity="1" stroke-width="1" stroke-linecap="square" stroke-linejoin="round" transform="matrix(2,0,0,2,0.0032,288)"
font-family="Ubuntu" font-size="11" font-weight="400" font-style="normal" 
>
<path vector-effect="none" fill-rule="evenodd" d="M261.61,-107.87 C278.16,-102.34 296.37,-96.245 313.02,-90.677 "/>
</g>

<g fill="none" stroke="#000000" stroke-opacity="1" stroke-width="1" stroke-linecap="square" stroke-linejoin="bevel" transform="matrix(2,0,0,2,0.0032,288)"
font-family="Ubuntu" font-size="11" font-weight="400" font-style="normal" 
>
</g>

<g fill="none" stroke="#000000" stroke-opacity="1" stroke-width="1" stroke-linecap="square" stroke-linejoin="bevel" transform="matrix(2,0,0,2,0.0032,288)"
font-family="Ubuntu" font-size="11" font-weight="400" font-style="normal" 
>
</g>

<g fill="#000000" fill-opacity="1" stroke="#000000" stroke-opacity="1" stroke-width="1" stroke-linecap="square" stroke-linejoin="round" transform="matrix(2,0,0,2,0.0032,288)"
font-family="Ubuntu" font-size="11" font-weight="400" font-style="normal" 
>
<path vector-effect="none" fill-rule="evenodd" d="M313.02,-90.677 L311.897,-87.317 L322.62,-87.467 L314.143,-94.037 L313.02,-90.677"/>
</g>

<g fill="none" stroke="#000000" stroke-opacity="1" stroke-width="1" stroke-linecap="square" stroke-linejoin="bevel" transform="matrix(2,0,0,2,0.0032,288)"
font-family="Ubuntu" font-size="11" font-weight="400" font-style="normal" 
>
</g>

<g fill="none" stroke="#000000" stroke-opacity="1" stroke-width="1" stroke-linecap="square" stroke-linejoin="bevel" transform="matrix(2,0,0,2,0.0032,288)"
font-family="Ubuntu" font-size="11" font-weight="400" font-style="normal" 
>
</g>

<g fill="none" stroke="#000000" stroke-opacity="1" stroke-width="1" stroke-linecap="square" stroke-linejoin="bevel" transform="matrix(2,0,0,2,0.0032,288)"
font-family="Ubuntu" font-size="11" font-weight="400" font-style="normal" 
>
</g>

<g fill="none" stroke="#000000" stroke-opacity="1" stroke-width="1" stroke-linecap="square" stroke-linejoin="bevel" transform="matrix(2,0,0,2,0.0032,288)"
font-family="Ubuntu" font-size="11" font-weight="400" font-style="normal" 
>
</g>

<g fill="none" stroke="#000000" stroke-opacity="1" stroke-width="1" stroke-linecap="square" stroke-linejoin="round" transform="matrix(2,0,0,2,0.0032,288)"
font-family="Ubuntu" font-size="11" font-weight="400" font-style="normal" 
>
<path vector-effect="none" fill-rule="evenodd" d="M233.69,-72 C243.64,-72 255.64,-72 268.35,-72 "/>
</g>

<g fill="none" stroke="#000000" stroke-opacity="1" stroke-width="1" stroke-linecap="square" stroke-linejoin="bevel" transform="matrix(2,0,0,2,0.0032,288)"
font-family="Ubuntu" font-size="11" font-weight="400" font-style="normal" 
>
</g>

<g fill="none" stroke="#000000" stroke-opacity="1" stroke-width="1" stroke-linecap="square" stroke-linejoin="bevel" transform="matrix(2,0,0,2,0.0032,288)"
font-family="Ubuntu" font-size="11" font-weight="400" font-style="normal" 
>
</g>

<g fill="#000000" fill-opacity="1" stroke="#000000" stroke-opacity="1" stroke-width="1" stroke-linecap="square" stroke-linejoin="round" transform="matrix(2,0,0,2,0.0032,288)"
font-family="Ubuntu" font-size="11" font-weight="400" font-style="normal" 
>
<path vector-effect="none" fill-rule="evenodd" d="M268.35,-72 L268.35,-68.3915 L278.66,-72 L268.35,-75.6085 L268.35,-72"/>
</g>

<g fill="none" stroke="#000000" stroke-opacity="1" stroke-width="1" stroke-linecap="square" stroke-linejoin="bevel" transform="matrix(2,0,0,2,0.0032,288)"
font-family="Ubuntu" font-size="11" font-weight="400" font-style="normal" 
>
</g>

<g fill="none" stroke="#000000" stroke-opacity="1" stroke-width="1" stroke-linecap="square" stroke-linejoin="bevel" transform="matrix(1,0,0,1,0,0)"
font-family="Ubuntu" font-size="11" font-weight="400" font-style="normal" 
>
</g>
</g>
</svg>
